<svg width="228" height="127" viewBox="0 0 228 127" fill="none" xmlns="http://www.w3.org/2000/svg">
<path d="M44.9766 123V116.936L40.4551 108.684H42.3496L44.6543 113C45.11 113.853 45.5104 114.66 45.8555 115.422C46.2005 114.673 46.627 113.83 47.1348 112.893L49.4102 108.684H51.2168L46.5293 116.936V123H44.9766ZM50.3574 117.814C50.3574 116.024 50.7318 114.673 51.4805 113.762C52.2357 112.85 53.1895 112.395 54.3418 112.395C55.4746 112.395 56.4219 112.85 57.1836 113.762C57.9453 114.673 58.3262 115.988 58.3262 117.707C58.3262 119.569 57.9518 120.956 57.2031 121.867C56.4544 122.779 55.5007 123.234 54.3418 123.234C53.2025 123.234 52.252 122.779 51.4902 121.867C50.735 120.949 50.3574 119.598 50.3574 117.814ZM51.832 117.814C51.832 119.156 52.0762 120.155 52.5645 120.812C53.0527 121.464 53.6582 121.789 54.3809 121.789C55.0579 121.789 55.6374 121.46 56.1191 120.803C56.6074 120.139 56.8516 119.143 56.8516 117.814C56.8516 116.48 56.6074 115.487 56.1191 114.836C55.6309 114.178 55.0254 113.85 54.3027 113.85C53.6191 113.85 53.0365 114.178 52.5547 114.836C52.0729 115.493 51.832 116.486 51.832 117.814ZM65.5918 123V121.477C65.2598 122.062 64.8691 122.502 64.4199 122.795C63.9707 123.088 63.4629 123.234 62.8965 123.234C62.2259 123.234 61.653 123.055 61.1777 122.697C60.7025 122.333 60.3835 121.874 60.2207 121.32C60.0645 120.767 59.9863 120.012 59.9863 119.055V112.629H61.4219V118.381C61.4219 119.449 61.474 120.165 61.5781 120.529C61.6888 120.887 61.8874 121.177 62.1738 121.398C62.4668 121.613 62.7988 121.721 63.1699 121.721C63.86 121.721 64.4264 121.438 64.8691 120.871C65.2467 120.383 65.4355 119.488 65.4355 118.186V112.629H66.8809V123H65.5918ZM75.2695 123L72.6719 112.629H74.166L75.5137 118.615L76.0117 120.842L76.4609 118.703L77.8086 112.629H79.293L80.5625 118.645L80.9922 120.627L81.4805 118.625L82.9355 112.629H84.3418L81.6758 123H80.1816L78.8242 116.789L78.502 115.021L76.7832 123H75.2695ZM85.0059 117.814C85.0059 116.024 85.3802 114.673 86.1289 113.762C86.8841 112.85 87.8379 112.395 88.9902 112.395C90.123 112.395 91.0703 112.85 91.832 113.762C92.5938 114.673 92.9746 115.988 92.9746 117.707C92.9746 119.569 92.6003 120.956 91.8516 121.867C91.1029 122.779 90.1491 123.234 88.9902 123.234C87.8509 123.234 86.9004 122.779 86.1387 121.867C85.3835 120.949 85.0059 119.598 85.0059 117.814ZM86.4805 117.814C86.4805 119.156 86.7246 120.155 87.2129 120.812C87.7012 121.464 88.3066 121.789 89.0293 121.789C89.7064 121.789 90.2858 121.46 90.7676 120.803C91.2559 120.139 91.5 119.143 91.5 117.814C91.5 116.48 91.2559 115.487 90.7676 114.836C90.2793 114.178 89.6738 113.85 88.9512 113.85C88.2676 113.85 87.6849 114.178 87.2031 114.836C86.7214 115.493 86.4805 116.486 86.4805 117.814ZM94.6641 123V112.629H95.9629V114.104C96.2754 113.531 96.6562 113.104 97.1055 112.824C97.5612 112.538 98.082 112.395 98.668 112.395C99.1237 112.395 99.5436 112.486 99.9277 112.668C100.318 112.844 100.631 113.078 100.865 113.371C101.106 113.658 101.285 114.032 101.402 114.494C101.52 114.956 101.578 115.666 101.578 116.623V123H100.133V116.691C100.133 115.93 100.068 115.373 99.9375 115.021C99.8073 114.67 99.6022 114.4 99.3223 114.211C99.0488 114.016 98.7298 113.918 98.3652 113.918C97.6751 113.918 97.125 114.175 96.7148 114.689C96.3047 115.204 96.0996 116.086 96.0996 117.336V123H94.6641ZM111.568 121.428L111.764 122.98C111.367 123.085 111.008 123.137 110.689 123.137C110.188 123.137 109.785 123.039 109.479 122.844C109.173 122.642 108.961 122.368 108.844 122.023C108.733 121.678 108.678 120.992 108.678 119.963V113.996H107.623V112.629H108.678V110.061L110.113 109.006V112.629H111.568V113.996H110.113V120.061C110.113 120.62 110.156 120.982 110.24 121.145C110.364 121.379 110.595 121.496 110.934 121.496C111.096 121.496 111.308 121.473 111.568 121.428ZM112.926 123V108.684H114.361V113.82C114.7 113.345 115.081 112.99 115.504 112.756C115.934 112.515 116.406 112.395 116.92 112.395C117.825 112.395 118.538 112.684 119.059 113.264C119.586 113.837 119.85 114.891 119.85 116.428V123H118.414V116.428C118.414 115.529 118.255 114.885 117.936 114.494C117.617 114.104 117.177 113.908 116.617 113.908C115.992 113.908 115.458 114.159 115.016 114.66C114.579 115.161 114.361 116.05 114.361 117.326V123H112.926ZM127.867 119.66L129.352 119.885C129.104 120.992 128.655 121.828 128.004 122.395C127.359 122.954 126.559 123.234 125.602 123.234C124.397 123.234 123.421 122.779 122.672 121.867C121.93 120.949 121.559 119.628 121.559 117.902C121.559 116.112 121.933 114.748 122.682 113.811C123.437 112.867 124.391 112.395 125.543 112.395C126.643 112.395 127.561 112.857 128.297 113.781C129.033 114.706 129.4 116.044 129.4 117.795L129.391 118.264H123.043C123.102 119.429 123.372 120.308 123.854 120.9C124.335 121.493 124.921 121.789 125.611 121.789C126.692 121.789 127.444 121.079 127.867 119.66ZM123.131 116.818H127.877C127.812 115.92 127.62 115.249 127.301 114.807C126.839 114.162 126.249 113.84 125.533 113.84C124.889 113.84 124.339 114.11 123.883 114.65C123.427 115.184 123.176 115.907 123.131 116.818ZM141.285 121.721C140.803 122.222 140.302 122.6 139.781 122.854C139.26 123.107 138.72 123.234 138.16 123.234C137.275 123.234 136.568 122.967 136.041 122.434C135.514 121.9 135.25 121.18 135.25 120.275C135.25 119.676 135.374 119.146 135.621 118.684C135.868 118.221 136.207 117.86 136.637 117.6C137.066 117.339 137.717 117.147 138.59 117.023C139.762 116.854 140.621 116.652 141.168 116.418L141.178 115.969C141.178 115.259 141.051 114.761 140.797 114.475C140.439 114.058 139.889 113.85 139.146 113.85C138.476 113.85 137.975 113.99 137.643 114.27C137.311 114.543 137.066 115.061 136.91 115.822L135.494 115.588C135.696 114.475 136.103 113.664 136.715 113.156C137.333 112.648 138.215 112.395 139.361 112.395C140.253 112.395 140.953 112.564 141.461 112.902C141.969 113.234 142.288 113.648 142.418 114.143C142.555 114.637 142.623 115.36 142.623 116.311V118.654C142.623 120.295 142.652 121.33 142.711 121.76C142.776 122.183 142.9 122.596 143.082 123H141.578C141.428 122.642 141.331 122.215 141.285 121.721ZM141.168 117.795C140.641 118.055 139.856 118.277 138.814 118.459C138.209 118.563 137.786 118.684 137.545 118.82C137.304 118.951 137.115 119.139 136.979 119.387C136.848 119.628 136.783 119.908 136.783 120.227C136.783 120.721 136.936 121.118 137.242 121.418C137.548 121.711 137.971 121.857 138.512 121.857C139.026 121.857 139.492 121.724 139.908 121.457C140.331 121.19 140.647 120.835 140.855 120.393C141.064 119.943 141.168 119.292 141.168 118.439V117.795ZM150.436 123V121.477C150.104 122.062 149.713 122.502 149.264 122.795C148.814 123.088 148.307 123.234 147.74 123.234C147.07 123.234 146.497 123.055 146.021 122.697C145.546 122.333 145.227 121.874 145.064 121.32C144.908 120.767 144.83 120.012 144.83 119.055V112.629H146.266V118.381C146.266 119.449 146.318 120.165 146.422 120.529C146.533 120.887 146.731 121.177 147.018 121.398C147.311 121.613 147.643 121.721 148.014 121.721C148.704 121.721 149.27 121.438 149.713 120.871C150.09 120.383 150.279 119.488 150.279 118.186V112.629H151.725V123H150.436ZM159.557 119.201L160.973 119.426C160.81 120.663 160.4 121.607 159.742 122.258C159.091 122.909 158.307 123.234 157.389 123.234C156.275 123.234 155.357 122.779 154.635 121.867C153.919 120.949 153.561 119.595 153.561 117.805C153.561 116.001 153.922 114.65 154.645 113.752C155.374 112.847 156.308 112.395 157.447 112.395C158.326 112.395 159.065 112.668 159.664 113.215C160.27 113.762 160.657 114.582 160.826 115.676L159.43 115.939C159.293 115.236 159.055 114.712 158.717 114.367C158.378 114.016 157.971 113.84 157.496 113.84C156.786 113.84 156.197 114.156 155.729 114.787C155.266 115.412 155.035 116.408 155.035 117.775C155.035 119.188 155.257 120.21 155.699 120.842C156.148 121.473 156.721 121.789 157.418 121.789C157.965 121.789 158.43 121.581 158.814 121.164C159.205 120.741 159.452 120.087 159.557 119.201ZM165.396 121.428L165.592 122.98C165.195 123.085 164.837 123.137 164.518 123.137C164.016 123.137 163.613 123.039 163.307 122.844C163.001 122.642 162.789 122.368 162.672 122.023C162.561 121.678 162.506 120.992 162.506 119.963V113.996H161.451V112.629H162.506V110.061L163.941 109.006V112.629H165.396V113.996H163.941V120.061C163.941 120.62 163.984 120.982 164.068 121.145C164.192 121.379 164.423 121.496 164.762 121.496C164.924 121.496 165.136 121.473 165.396 121.428ZM166.754 110.705V108.684H168.189V110.705H166.754ZM166.754 123V112.629H168.189V123H166.754ZM169.869 117.814C169.869 116.024 170.243 114.673 170.992 113.762C171.747 112.85 172.701 112.395 173.854 112.395C174.986 112.395 175.934 112.85 176.695 113.762C177.457 114.673 177.838 115.988 177.838 117.707C177.838 119.569 177.464 120.956 176.715 121.867C175.966 122.779 175.012 123.234 173.854 123.234C172.714 123.234 171.764 122.779 171.002 121.867C170.247 120.949 169.869 119.598 169.869 117.814ZM171.344 117.814C171.344 119.156 171.588 120.155 172.076 120.812C172.564 121.464 173.17 121.789 173.893 121.789C174.57 121.789 175.149 121.46 175.631 120.803C176.119 120.139 176.363 119.143 176.363 117.814C176.363 116.48 176.119 115.487 175.631 114.836C175.143 114.178 174.537 113.85 173.814 113.85C173.131 113.85 172.548 114.178 172.066 114.836C171.585 115.493 171.344 116.486 171.344 117.814ZM179.527 123V112.629H180.826V114.104C181.139 113.531 181.52 113.104 181.969 112.824C182.424 112.538 182.945 112.395 183.531 112.395C183.987 112.395 184.407 112.486 184.791 112.668C185.182 112.844 185.494 113.078 185.729 113.371C185.969 113.658 186.148 114.032 186.266 114.494C186.383 114.956 186.441 115.666 186.441 116.623V123H184.996V116.691C184.996 115.93 184.931 115.373 184.801 115.021C184.671 114.67 184.465 114.4 184.186 114.211C183.912 114.016 183.593 113.918 183.229 113.918C182.538 113.918 181.988 114.175 181.578 114.689C181.168 115.204 180.963 116.086 180.963 117.336V123H179.527Z" fill="white"/>
<rect x="61" y="56" width="11" height="11" fill="black"/>
<rect x="149" y="56" width="11" height="11" fill="black"/>
<rect x="72" y="56" width="11" height="11" fill="black"/>
<rect x="160" y="56" width="12" height="11" fill="black"/>
<rect x="83" y="56" width="11" height="11" fill="black"/>
<rect x="172" y="56" width="11" height="11" fill="black"/>
<rect x="83" y="45" width="11" height="11" fill="white"/>
<rect x="172" y="45" width="11" height="11" fill="white"/>
<rect x="72" y="45" width="11" height="11" fill="black"/>
<rect x="160" y="45" width="12" height="11" fill="black"/>
<rect x="61" y="45" width="11" height="11" fill="black"/>
<rect x="149" y="45" width="11" height="11" fill="black"/>
<rect x="49" y="45" width="12" height="11" fill="black"/>
<rect x="138" y="45" width="11" height="11" fill="black"/>
<rect x="38" y="34" width="11" height="11" fill="black"/>
<rect x="127" y="34" width="11" height="11" fill="black"/>
<rect x="49" y="34" width="12" height="11" fill="black"/>
<rect x="138" y="34" width="11" height="11" fill="black"/>
<rect x="61" y="34" width="11" height="11" fill="black"/>
<rect x="149" y="34" width="11" height="11" fill="black"/>
<rect x="72" y="34" width="11" height="11" fill="black"/>
<rect x="160" y="34" width="12" height="11" fill="black"/>
<rect x="83" y="34" width="11" height="11" fill="black"/>
<rect x="172" y="34" width="11" height="11" fill="black"/>
<rect x="94" y="34" width="11" height="11" fill="white"/>
<rect x="183" y="34" width="11" height="11" fill="white"/>
<rect x="105" y="34" width="11" height="11" fill="black"/>
<rect x="194" y="34" width="11" height="11" fill="black"/>
<rect x="116" y="23" width="11" height="11" fill="black"/>
<rect x="27" y="23" width="11" height="11" fill="black"/>
<rect x="16" y="11" width="11" height="12" fill="black"/>
<rect x="5" width="11" height="11" fill="black"/>
<rect x="127" y="23" width="11" height="11" fill="black"/>
<rect x="38" y="23" width="11" height="11" fill="black"/>
<rect x="138" y="23" width="11" height="11" fill="black"/>
<rect x="49" y="23" width="12" height="11" fill="black"/>
<rect x="149" y="23" width="11" height="11" fill="black"/>
<rect x="61" y="23" width="11" height="11" fill="black"/>
<rect x="160" y="23" width="12" height="11" fill="black"/>
<rect x="72" y="23" width="11" height="11" fill="black"/>
<rect x="172" y="23" width="11" height="11" fill="black"/>
<rect x="83" y="23" width="11" height="11" fill="black"/>
<rect x="183" y="23" width="11" height="11" fill="black"/>
<rect x="94" y="23" width="11" height="11" fill="black"/>
<rect x="194" y="23" width="11" height="11" fill="black"/>
<rect x="194" y="11" width="11" height="12" fill="black"/>
<rect x="183" width="11" height="11" fill="black"/>
<rect x="105" y="23" width="11" height="11" fill="black"/>
<rect x="205" y="23" width="11" height="11" fill="black"/>
<rect x="94" y="45" width="11" height="11" fill="black"/>
<rect x="183" y="45" width="11" height="11" fill="black"/>
</svg>
