<svg width="228" height="127" viewBox="0 0 228 127" fill="none" xmlns="http://www.w3.org/2000/svg">
<path d="M27.6523 123V116.936L23.1309 108.684H25.0254L27.3301 113C27.7858 113.853 28.1862 114.66 28.5312 115.422C28.8763 114.673 29.3027 113.83 29.8105 112.893L32.0859 108.684H33.8926L29.2051 116.936V123H27.6523ZM33.0332 117.814C33.0332 116.024 33.4076 114.673 34.1562 113.762C34.9115 112.85 35.8652 112.395 37.0176 112.395C38.1504 112.395 39.0977 112.85 39.8594 113.762C40.6211 114.673 41.002 115.988 41.002 117.707C41.002 119.569 40.6276 120.956 39.8789 121.867C39.1302 122.779 38.1764 123.234 37.0176 123.234C35.8783 123.234 34.9277 122.779 34.166 121.867C33.4108 120.949 33.0332 119.598 33.0332 117.814ZM34.5078 117.814C34.5078 119.156 34.752 120.155 35.2402 120.812C35.7285 121.464 36.334 121.789 37.0566 121.789C37.7337 121.789 38.3132 121.46 38.7949 120.803C39.2832 120.139 39.5273 119.143 39.5273 117.814C39.5273 116.48 39.2832 115.487 38.7949 114.836C38.3066 114.178 37.7012 113.85 36.9785 113.85C36.2949 113.85 35.7122 114.178 35.2305 114.836C34.7487 115.493 34.5078 116.486 34.5078 117.814ZM48.2676 123V121.477C47.9355 122.062 47.5449 122.502 47.0957 122.795C46.6465 123.088 46.1387 123.234 45.5723 123.234C44.9017 123.234 44.3288 123.055 43.8535 122.697C43.3783 122.333 43.0592 121.874 42.8965 121.32C42.7402 120.767 42.6621 120.012 42.6621 119.055V112.629H44.0977V118.381C44.0977 119.449 44.1497 120.165 44.2539 120.529C44.3646 120.887 44.5632 121.177 44.8496 121.398C45.1426 121.613 45.4746 121.721 45.8457 121.721C46.5358 121.721 47.1022 121.438 47.5449 120.871C47.9225 120.383 48.1113 119.488 48.1113 118.186V112.629H49.5566V123H48.2676ZM51.7148 110.734V108.684H53.2676V110.295C53.2676 111.219 53.1569 111.903 52.9355 112.346C52.7142 112.788 52.3822 113.13 51.9395 113.371L51.5879 112.688C52.1478 112.401 52.4408 111.75 52.4668 110.734H51.7148ZM55.4648 123V112.629H56.7637V114.201C57.0957 113.472 57.3984 112.99 57.6719 112.756C57.9518 112.515 58.2643 112.395 58.6094 112.395C59.0911 112.395 59.5827 112.583 60.084 112.961L59.5957 114.592C59.2376 114.338 58.8893 114.211 58.5508 114.211C58.2448 114.211 57.9648 114.318 57.7109 114.533C57.457 114.748 57.278 115.048 57.1738 115.432C56.9915 116.102 56.9004 116.815 56.9004 117.57V123H55.4648ZM66.7539 119.66L68.2383 119.885C67.9909 120.992 67.5417 121.828 66.8906 122.395C66.2461 122.954 65.4453 123.234 64.4883 123.234C63.2839 123.234 62.3073 122.779 61.5586 121.867C60.8164 120.949 60.4453 119.628 60.4453 117.902C60.4453 116.112 60.8197 114.748 61.5684 113.811C62.3236 112.867 63.2773 112.395 64.4297 112.395C65.5299 112.395 66.4479 112.857 67.1836 113.781C67.9193 114.706 68.2871 116.044 68.2871 117.795L68.2773 118.264H61.9297C61.9883 119.429 62.2585 120.308 62.7402 120.9C63.222 121.493 63.8079 121.789 64.498 121.789C65.5788 121.789 66.3307 121.079 66.7539 119.66ZM62.0176 116.818H66.7637C66.6986 115.92 66.5065 115.249 66.1875 114.807C65.7253 114.162 65.1361 113.84 64.4199 113.84C63.7754 113.84 63.2253 114.11 62.7695 114.65C62.3138 115.184 62.0632 115.907 62.0176 116.818ZM77.8379 121.428L78.0332 122.98C77.6361 123.085 77.278 123.137 76.959 123.137C76.4577 123.137 76.054 123.039 75.748 122.844C75.4421 122.642 75.2305 122.368 75.1133 122.023C75.0026 121.678 74.9473 120.992 74.9473 119.963V113.996H73.8926V112.629H74.9473V110.061L76.3828 109.006V112.629H77.8379V113.996H76.3828V120.061C76.3828 120.62 76.4251 120.982 76.5098 121.145C76.6335 121.379 76.8646 121.496 77.2031 121.496C77.3659 121.496 77.5775 121.473 77.8379 121.428ZM79.1953 123V108.684H80.6309V113.82C80.9694 113.345 81.3503 112.99 81.7734 112.756C82.2031 112.515 82.6751 112.395 83.1895 112.395C84.0944 112.395 84.8073 112.684 85.3281 113.264C85.8555 113.837 86.1191 114.891 86.1191 116.428V123H84.6836V116.428C84.6836 115.529 84.5241 114.885 84.2051 114.494C83.8861 114.104 83.4466 113.908 82.8867 113.908C82.2617 113.908 81.7279 114.159 81.2852 114.66C80.849 115.161 80.6309 116.05 80.6309 117.326V123H79.1953ZM94.1367 119.66L95.6211 119.885C95.3737 120.992 94.9245 121.828 94.2734 122.395C93.6289 122.954 92.8281 123.234 91.8711 123.234C90.6667 123.234 89.6901 122.779 88.9414 121.867C88.1992 120.949 87.8281 119.628 87.8281 117.902C87.8281 116.112 88.2025 114.748 88.9512 113.811C89.7064 112.867 90.6602 112.395 91.8125 112.395C92.9128 112.395 93.8307 112.857 94.5664 113.781C95.3021 114.706 95.6699 116.044 95.6699 117.795L95.6602 118.264H89.3125C89.3711 119.429 89.6413 120.308 90.123 120.9C90.6048 121.493 91.1908 121.789 91.8809 121.789C92.9616 121.789 93.7135 121.079 94.1367 119.66ZM89.4004 116.818H94.1465C94.0814 115.92 93.8893 115.249 93.5703 114.807C93.1081 114.162 92.5189 113.84 91.8027 113.84C91.1582 113.84 90.6081 114.11 90.1523 114.65C89.6966 115.184 89.446 115.907 89.4004 116.818ZM107.584 119.201L109 119.426C108.837 120.663 108.427 121.607 107.77 122.258C107.118 122.909 106.334 123.234 105.416 123.234C104.303 123.234 103.385 122.779 102.662 121.867C101.946 120.949 101.588 119.595 101.588 117.805C101.588 116.001 101.949 114.65 102.672 113.752C103.401 112.847 104.335 112.395 105.475 112.395C106.354 112.395 107.092 112.668 107.691 113.215C108.297 113.762 108.684 114.582 108.854 115.676L107.457 115.939C107.32 115.236 107.083 114.712 106.744 114.367C106.406 114.016 105.999 113.84 105.523 113.84C104.814 113.84 104.225 114.156 103.756 114.787C103.294 115.412 103.062 116.408 103.062 117.775C103.062 119.188 103.284 120.21 103.727 120.842C104.176 121.473 104.749 121.789 105.445 121.789C105.992 121.789 106.458 121.581 106.842 121.164C107.232 120.741 107.48 120.087 107.584 119.201ZM115.787 123V121.477C115.455 122.062 115.064 122.502 114.615 122.795C114.166 123.088 113.658 123.234 113.092 123.234C112.421 123.234 111.848 123.055 111.373 122.697C110.898 122.333 110.579 121.874 110.416 121.32C110.26 120.767 110.182 120.012 110.182 119.055V112.629H111.617V118.381C111.617 119.449 111.669 120.165 111.773 120.529C111.884 120.887 112.083 121.177 112.369 121.398C112.662 121.613 112.994 121.721 113.365 121.721C114.055 121.721 114.622 121.438 115.064 120.871C115.442 120.383 115.631 119.488 115.631 118.186V112.629H117.076V123H115.787ZM119.332 123V112.629H120.631V114.201C120.963 113.472 121.266 112.99 121.539 112.756C121.819 112.515 122.132 112.395 122.477 112.395C122.958 112.395 123.45 112.583 123.951 112.961L123.463 114.592C123.105 114.338 122.757 114.211 122.418 114.211C122.112 114.211 121.832 114.318 121.578 114.533C121.324 114.748 121.145 115.048 121.041 115.432C120.859 116.102 120.768 116.815 120.768 117.57V123H119.332ZM124.801 123V112.629H126.1V114.201C126.432 113.472 126.734 112.99 127.008 112.756C127.288 112.515 127.6 112.395 127.945 112.395C128.427 112.395 128.919 112.583 129.42 112.961L128.932 114.592C128.574 114.338 128.225 114.211 127.887 114.211C127.581 114.211 127.301 114.318 127.047 114.533C126.793 114.748 126.614 115.048 126.51 115.432C126.327 116.102 126.236 116.815 126.236 117.57V123H124.801ZM136.09 119.66L137.574 119.885C137.327 120.992 136.878 121.828 136.227 122.395C135.582 122.954 134.781 123.234 133.824 123.234C132.62 123.234 131.643 122.779 130.895 121.867C130.152 120.949 129.781 119.628 129.781 117.902C129.781 116.112 130.156 114.748 130.904 113.811C131.66 112.867 132.613 112.395 133.766 112.395C134.866 112.395 135.784 112.857 136.52 113.781C137.255 114.706 137.623 116.044 137.623 117.795L137.613 118.264H131.266C131.324 119.429 131.594 120.308 132.076 120.9C132.558 121.493 133.144 121.789 133.834 121.789C134.915 121.789 135.667 121.079 136.09 119.66ZM131.354 116.818H136.1C136.035 115.92 135.842 115.249 135.523 114.807C135.061 114.162 134.472 113.84 133.756 113.84C133.111 113.84 132.561 114.11 132.105 114.65C131.65 115.184 131.399 115.907 131.354 116.818ZM139.391 123V112.629H140.689V114.104C141.002 113.531 141.383 113.104 141.832 112.824C142.288 112.538 142.809 112.395 143.395 112.395C143.85 112.395 144.27 112.486 144.654 112.668C145.045 112.844 145.357 113.078 145.592 113.371C145.833 113.658 146.012 114.032 146.129 114.494C146.246 114.956 146.305 115.666 146.305 116.623V123H144.859V116.691C144.859 115.93 144.794 115.373 144.664 115.021C144.534 114.67 144.329 114.4 144.049 114.211C143.775 114.016 143.456 113.918 143.092 113.918C142.402 113.918 141.852 114.175 141.441 114.689C141.031 115.204 140.826 116.086 140.826 117.336V123H139.391ZM151.725 121.428L151.92 122.98C151.523 123.085 151.165 123.137 150.846 123.137C150.344 123.137 149.941 123.039 149.635 122.844C149.329 122.642 149.117 122.368 149 122.023C148.889 121.678 148.834 120.992 148.834 119.963V113.996H147.779V112.629H148.834V110.061L150.27 109.006V112.629H151.725V113.996H150.27V120.061C150.27 120.62 150.312 120.982 150.396 121.145C150.52 121.379 150.751 121.496 151.09 121.496C151.253 121.496 151.464 121.473 151.725 121.428ZM159.215 123L156.617 112.629H158.111L159.459 118.615L159.957 120.842L160.406 118.703L161.754 112.629H163.238L164.508 118.645L164.938 120.627L165.426 118.625L166.881 112.629H168.287L165.621 123H164.127L162.77 116.789L162.447 115.021L160.729 123H159.215ZM169.488 110.705V108.684H170.924V110.705H169.488ZM169.488 123V112.629H170.924V123H169.488ZM173.141 123V112.629H174.439V114.104C174.752 113.531 175.133 113.104 175.582 112.824C176.038 112.538 176.559 112.395 177.145 112.395C177.6 112.395 178.02 112.486 178.404 112.668C178.795 112.844 179.107 113.078 179.342 113.371C179.583 113.658 179.762 114.032 179.879 114.494C179.996 114.956 180.055 115.666 180.055 116.623V123H178.609V116.691C178.609 115.93 178.544 115.373 178.414 115.021C178.284 114.67 178.079 114.4 177.799 114.211C177.525 114.016 177.206 113.918 176.842 113.918C176.152 113.918 175.602 114.175 175.191 114.689C174.781 115.204 174.576 116.086 174.576 117.336V123H173.141ZM182.262 123V112.629H183.561V114.104C183.873 113.531 184.254 113.104 184.703 112.824C185.159 112.538 185.68 112.395 186.266 112.395C186.721 112.395 187.141 112.486 187.525 112.668C187.916 112.844 188.229 113.078 188.463 113.371C188.704 113.658 188.883 114.032 189 114.494C189.117 114.956 189.176 115.666 189.176 116.623V123H187.73V116.691C187.73 115.93 187.665 115.373 187.535 115.021C187.405 114.67 187.2 114.4 186.92 114.211C186.646 114.016 186.327 113.918 185.963 113.918C185.273 113.918 184.723 114.175 184.312 114.689C183.902 115.204 183.697 116.086 183.697 117.336V123H182.262ZM197.203 119.66L198.688 119.885C198.44 120.992 197.991 121.828 197.34 122.395C196.695 122.954 195.895 123.234 194.938 123.234C193.733 123.234 192.757 122.779 192.008 121.867C191.266 120.949 190.895 119.628 190.895 117.902C190.895 116.112 191.269 114.748 192.018 113.811C192.773 112.867 193.727 112.395 194.879 112.395C195.979 112.395 196.897 112.857 197.633 113.781C198.368 114.706 198.736 116.044 198.736 117.795L198.727 118.264H192.379C192.438 119.429 192.708 120.308 193.189 120.9C193.671 121.493 194.257 121.789 194.947 121.789C196.028 121.789 196.78 121.079 197.203 119.66ZM192.467 116.818H197.213C197.148 115.92 196.956 115.249 196.637 114.807C196.174 114.162 195.585 113.84 194.869 113.84C194.225 113.84 193.674 114.11 193.219 114.65C192.763 115.184 192.512 115.907 192.467 116.818ZM200.504 123V112.629H201.803V114.201C202.135 113.472 202.438 112.99 202.711 112.756C202.991 112.515 203.303 112.395 203.648 112.395C204.13 112.395 204.622 112.583 205.123 112.961L204.635 114.592C204.277 114.338 203.928 114.211 203.59 114.211C203.284 114.211 203.004 114.318 202.75 114.533C202.496 114.748 202.317 115.048 202.213 115.432C202.031 116.102 201.939 116.815 201.939 117.57V123H200.504Z" fill="white"/>
<rect x="61" y="56" width="11" height="11" fill="black"/>
<rect x="149" y="56" width="11" height="11" fill="black"/>
<rect x="72" y="56" width="11" height="11" fill="black"/>
<rect x="160" y="56" width="12" height="11" fill="black"/>
<rect x="83" y="56" width="11" height="11" fill="black"/>
<rect x="172" y="56" width="11" height="11" fill="black"/>
<rect x="83" y="45" width="11" height="11" fill="white"/>
<rect x="172" y="45" width="11" height="11" fill="white"/>
<rect x="72" y="45" width="11" height="11" fill="black"/>
<rect x="160" y="45" width="12" height="11" fill="black"/>
<rect x="61" y="45" width="11" height="11" fill="black"/>
<rect x="149" y="45" width="11" height="11" fill="black"/>
<rect x="49" y="45" width="12" height="11" fill="black"/>
<rect x="138" y="45" width="11" height="11" fill="black"/>
<rect x="38" y="34" width="11" height="11" fill="black"/>
<rect x="127" y="34" width="11" height="11" fill="black"/>
<rect x="49" y="34" width="12" height="11" fill="black"/>
<rect x="138" y="34" width="11" height="11" fill="black"/>
<rect x="61" y="34" width="11" height="11" fill="black"/>
<rect x="149" y="34" width="11" height="11" fill="black"/>
<rect x="72" y="34" width="11" height="11" fill="black"/>
<rect x="160" y="34" width="12" height="11" fill="black"/>
<rect x="83" y="34" width="11" height="11" fill="black"/>
<rect x="172" y="34" width="11" height="11" fill="black"/>
<rect x="94" y="34" width="11" height="11" fill="white"/>
<rect x="183" y="34" width="11" height="11" fill="white"/>
<rect x="105" y="34" width="11" height="11" fill="black"/>
<rect x="194" y="34" width="11" height="11" fill="black"/>
<rect x="116" y="23" width="11" height="11" fill="black"/>
<rect x="27" y="23" width="11" height="11" fill="black"/>
<rect x="16" y="11" width="11" height="12" fill="black"/>
<rect x="5" width="11" height="11" fill="black"/>
<rect x="127" y="23" width="11" height="11" fill="black"/>
<rect x="38" y="23" width="11" height="11" fill="black"/>
<rect x="138" y="23" width="11" height="11" fill="black"/>
<rect x="49" y="23" width="12" height="11" fill="black"/>
<rect x="149" y="23" width="11" height="11" fill="black"/>
<rect x="61" y="23" width="11" height="11" fill="black"/>
<rect x="160" y="23" width="12" height="11" fill="black"/>
<rect x="72" y="23" width="11" height="11" fill="black"/>
<rect x="172" y="23" width="11" height="11" fill="black"/>
<rect x="83" y="23" width="11" height="11" fill="black"/>
<rect x="183" y="23" width="11" height="11" fill="black"/>
<rect x="94" y="23" width="11" height="11" fill="black"/>
<rect x="194" y="23" width="11" height="11" fill="black"/>
<rect x="194" y="11" width="11" height="12" fill="black"/>
<rect x="183" width="11" height="11" fill="black"/>
<rect x="105" y="23" width="11" height="11" fill="black"/>
<rect x="205" y="23" width="11" height="11" fill="black"/>
<rect x="94" y="45" width="11" height="11" fill="black"/>
<rect x="183" y="45" width="11" height="11" fill="black"/>
</svg>
