<svg width="228" height="184" viewBox="0 0 228 184" fill="none" xmlns="http://www.w3.org/2000/svg">
<path d="M7.125 157V150.936L2.60352 142.684H4.49805L6.80273 147C7.25846 147.853 7.65885 148.66 8.00391 149.422C8.34896 148.673 8.77539 147.83 9.2832 146.893L11.5586 142.684H13.3652L8.67773 150.936V157H7.125ZM12.5059 151.814C12.5059 150.024 12.8802 148.673 13.6289 147.762C14.3841 146.85 15.3379 146.395 16.4902 146.395C17.623 146.395 18.5703 146.85 19.332 147.762C20.0938 148.673 20.4746 149.988 20.4746 151.707C20.4746 153.569 20.1003 154.956 19.3516 155.867C18.6029 156.779 17.6491 157.234 16.4902 157.234C15.3509 157.234 14.4004 156.779 13.6387 155.867C12.8835 154.949 12.5059 153.598 12.5059 151.814ZM13.9805 151.814C13.9805 153.156 14.2246 154.155 14.7129 154.812C15.2012 155.464 15.8066 155.789 16.5293 155.789C17.2064 155.789 17.7858 155.46 18.2676 154.803C18.7559 154.139 19 153.143 19 151.814C19 150.48 18.7559 149.487 18.2676 148.836C17.7793 148.178 17.1738 147.85 16.4512 147.85C15.7676 147.85 15.1849 148.178 14.7031 148.836C14.2214 149.493 13.9805 150.486 13.9805 151.814ZM27.7402 157V155.477C27.4082 156.062 27.0176 156.502 26.5684 156.795C26.1191 157.088 25.6113 157.234 25.0449 157.234C24.3743 157.234 23.8014 157.055 23.3262 156.697C22.8509 156.333 22.5319 155.874 22.3691 155.32C22.2129 154.767 22.1348 154.012 22.1348 153.055V146.629H23.5703V152.381C23.5703 153.449 23.6224 154.165 23.7266 154.529C23.8372 154.887 24.0358 155.177 24.3223 155.398C24.6152 155.613 24.9473 155.721 25.3184 155.721C26.0085 155.721 26.5749 155.438 27.0176 154.871C27.3952 154.383 27.584 153.488 27.584 152.186V146.629H29.0293V157H27.7402ZM31.2852 157V146.629H32.584V148.201C32.916 147.472 33.2188 146.99 33.4922 146.756C33.7721 146.515 34.0846 146.395 34.4297 146.395C34.9115 146.395 35.403 146.583 35.9043 146.961L35.416 148.592C35.0579 148.338 34.7096 148.211 34.3711 148.211C34.0651 148.211 33.7852 148.318 33.5312 148.533C33.2773 148.748 33.0983 149.048 32.9941 149.432C32.8118 150.102 32.7207 150.815 32.7207 151.57V157H31.2852ZM42.6523 157H41.3145V142.684H42.75V147.791C43.056 147.322 43.401 146.974 43.7852 146.746C44.1758 146.512 44.6087 146.395 45.084 146.395C45.748 146.395 46.3503 146.593 46.8906 146.99C47.4375 147.387 47.8737 147.99 48.1992 148.797C48.5247 149.604 48.6875 150.584 48.6875 151.736C48.6875 153.494 48.3197 154.852 47.584 155.809C46.8483 156.759 45.9889 157.234 45.0059 157.234C44.5111 157.234 44.0651 157.107 43.668 156.854C43.2773 156.593 42.9388 156.209 42.6523 155.701V157ZM42.6328 151.736C42.6328 152.811 42.7305 153.615 42.9258 154.148C43.1211 154.682 43.3978 155.089 43.7559 155.369C44.1139 155.649 44.5111 155.789 44.9473 155.789C45.5397 155.789 46.0638 155.457 46.5195 154.793C46.9818 154.122 47.2129 153.123 47.2129 151.795C47.2129 150.434 46.9915 149.435 46.5488 148.797C46.1061 148.159 45.5625 147.84 44.918 147.84C44.3255 147.84 43.7949 148.175 43.3262 148.846C42.8639 149.51 42.6328 150.473 42.6328 151.736ZM50.4453 144.705V142.684H51.8809V144.705H50.4453ZM50.4453 157V146.629H51.8809V157H50.4453ZM59.6152 157V155.691C59.3548 156.193 59.0195 156.577 58.6094 156.844C58.1992 157.104 57.7565 157.234 57.2812 157.234C56.2786 157.234 55.4095 156.762 54.6738 155.818C53.9447 154.868 53.5801 153.533 53.5801 151.814C53.5801 150.636 53.7428 149.637 54.0684 148.816C54.3939 147.996 54.8268 147.387 55.3672 146.99C55.9141 146.593 56.5195 146.395 57.1836 146.395C57.6589 146.395 58.0983 146.521 58.502 146.775C58.9121 147.023 59.2507 147.371 59.5176 147.82V142.684H60.9629V157H59.6152ZM55.0547 151.824C55.0547 153.165 55.2858 154.161 55.748 154.812C56.2168 155.464 56.7604 155.789 57.3789 155.789C57.9909 155.789 58.5215 155.477 58.9707 154.852C59.4199 154.227 59.6445 153.283 59.6445 152.02C59.6445 150.568 59.4199 149.51 58.9707 148.846C58.5215 148.175 57.9551 147.84 57.2715 147.84C56.666 147.84 56.1452 148.162 55.709 148.807C55.2728 149.445 55.0547 150.451 55.0547 151.824ZM67.7891 144.705V142.684H69.2246V144.705H67.7891ZM67.7891 157V146.629H69.2246V157H67.7891ZM70.8945 153.904L72.3203 153.631C72.4049 154.36 72.6361 154.904 73.0137 155.262C73.3913 155.613 73.8926 155.789 74.5176 155.789C75.1426 155.789 75.6243 155.636 75.9629 155.33C76.3079 155.018 76.4805 154.624 76.4805 154.148C76.4805 153.738 76.334 153.419 76.041 153.191C75.8392 153.035 75.3509 152.84 74.5762 152.605C73.4564 152.26 72.7077 151.967 72.3301 151.727C71.9525 151.486 71.6595 151.163 71.4512 150.76C71.2428 150.356 71.1387 149.897 71.1387 149.383C71.1387 148.497 71.4219 147.778 71.9883 147.225C72.5547 146.671 73.3392 146.395 74.3418 146.395C74.9733 146.395 75.5267 146.508 76.002 146.736C76.4837 146.964 76.8516 147.27 77.1055 147.654C77.3594 148.038 77.5352 148.589 77.6328 149.305L76.2266 149.539C76.0964 148.406 75.4811 147.84 74.3809 147.84C73.7559 147.84 73.2904 147.967 72.9844 148.221C72.6784 148.468 72.5254 148.787 72.5254 149.178C72.5254 149.562 72.6719 149.865 72.9648 150.086C73.1406 150.216 73.6615 150.424 74.5273 150.711C75.7188 151.095 76.4902 151.401 76.8418 151.629C77.1934 151.85 77.4668 152.156 77.6621 152.547C77.8574 152.931 77.9551 153.39 77.9551 153.924C77.9551 154.913 77.6393 155.714 77.0078 156.326C76.3828 156.938 75.5267 157.244 74.4395 157.244C72.4017 157.244 71.2201 156.131 70.8945 153.904ZM85.543 157H84.2051V142.684H85.6406V147.791C85.9466 147.322 86.2917 146.974 86.6758 146.746C87.0664 146.512 87.4993 146.395 87.9746 146.395C88.6387 146.395 89.2409 146.593 89.7812 146.99C90.3281 147.387 90.7643 147.99 91.0898 148.797C91.4154 149.604 91.5781 150.584 91.5781 151.736C91.5781 153.494 91.2103 154.852 90.4746 155.809C89.7389 156.759 88.8796 157.234 87.8965 157.234C87.4017 157.234 86.9557 157.107 86.5586 156.854C86.168 156.593 85.8294 156.209 85.543 155.701V157ZM85.5234 151.736C85.5234 152.811 85.6211 153.615 85.8164 154.148C86.0117 154.682 86.2884 155.089 86.6465 155.369C87.0046 155.649 87.4017 155.789 87.8379 155.789C88.4303 155.789 88.9544 155.457 89.4102 154.793C89.8724 154.122 90.1035 153.123 90.1035 151.795C90.1035 150.434 89.8822 149.435 89.4395 148.797C88.9967 148.159 88.4531 147.84 87.8086 147.84C87.2161 147.84 86.6855 148.175 86.2168 148.846C85.7546 149.51 85.5234 150.473 85.5234 151.736ZM99.1562 153.66L100.641 153.885C100.393 154.992 99.944 155.828 99.293 156.395C98.6484 156.954 97.8477 157.234 96.8906 157.234C95.6862 157.234 94.7096 156.779 93.9609 155.867C93.2188 154.949 92.8477 153.628 92.8477 151.902C92.8477 150.112 93.222 148.748 93.9707 147.811C94.7259 146.867 95.6797 146.395 96.832 146.395C97.9323 146.395 98.8503 146.857 99.5859 147.781C100.322 148.706 100.689 150.044 100.689 151.795L100.68 152.264H94.332C94.3906 153.429 94.6608 154.308 95.1426 154.9C95.6243 155.493 96.2103 155.789 96.9004 155.789C97.9811 155.789 98.7331 155.079 99.1562 153.66ZM94.4199 150.818H99.166C99.1009 149.92 98.9089 149.249 98.5898 148.807C98.1276 148.162 97.5384 147.84 96.8223 147.84C96.1777 147.84 95.6276 148.11 95.1719 148.65C94.7161 149.184 94.4655 149.907 94.4199 150.818ZM102.457 144.705V142.684H103.893V144.705H102.457ZM102.457 157V146.629H103.893V157H102.457ZM106.109 157V146.629H107.408V148.104C107.721 147.531 108.102 147.104 108.551 146.824C109.007 146.538 109.527 146.395 110.113 146.395C110.569 146.395 110.989 146.486 111.373 146.668C111.764 146.844 112.076 147.078 112.311 147.371C112.551 147.658 112.73 148.032 112.848 148.494C112.965 148.956 113.023 149.666 113.023 150.623V157H111.578V150.691C111.578 149.93 111.513 149.373 111.383 149.021C111.253 148.67 111.048 148.4 110.768 148.211C110.494 148.016 110.175 147.918 109.811 147.918C109.12 147.918 108.57 148.175 108.16 148.689C107.75 149.204 107.545 150.086 107.545 151.336V157H106.109ZM114.957 157.859L116.363 158.113C116.428 158.667 116.624 159.077 116.949 159.344C117.275 159.617 117.727 159.754 118.307 159.754C118.938 159.754 119.439 159.601 119.811 159.295C120.188 158.995 120.445 158.546 120.582 157.947C120.667 157.583 120.709 156.814 120.709 155.643C120.396 156.092 120.045 156.43 119.654 156.658C119.264 156.886 118.831 157 118.355 157C117.34 157 116.497 156.57 115.826 155.711C115.058 154.721 114.674 153.396 114.674 151.736C114.674 150.623 114.843 149.65 115.182 148.816C115.52 147.983 115.963 147.371 116.51 146.98C117.063 146.59 117.682 146.395 118.365 146.395C118.867 146.395 119.322 146.518 119.732 146.766C120.149 147.013 120.517 147.384 120.836 147.879V146.629H122.164V155.594C122.164 157.189 122.034 158.325 121.773 159.002C121.513 159.686 121.087 160.223 120.494 160.613C119.902 161.01 119.189 161.209 118.355 161.209C117.255 161.209 116.409 160.913 115.816 160.32C115.224 159.728 114.938 158.908 114.957 157.859ZM116.158 151.629C116.158 152.99 116.383 153.982 116.832 154.607C117.281 155.232 117.831 155.545 118.482 155.545C119.133 155.545 119.687 155.239 120.143 154.627C120.598 154.015 120.826 153.042 120.826 151.707C120.826 150.405 120.592 149.438 120.123 148.807C119.654 148.169 119.085 147.85 118.414 147.85C117.815 147.85 117.288 148.169 116.832 148.807C116.383 149.438 116.158 150.379 116.158 151.629ZM128.922 160.975V146.629H130.24V147.977C130.566 147.417 130.927 147.013 131.324 146.766C131.721 146.518 132.177 146.395 132.691 146.395C133.362 146.395 133.967 146.593 134.508 146.99C135.048 147.387 135.481 147.993 135.807 148.807C136.139 149.614 136.305 150.587 136.305 151.727C136.305 153.491 135.934 154.852 135.191 155.809C134.456 156.759 133.59 157.234 132.594 157.234C132.151 157.234 131.738 157.12 131.354 156.893C130.969 156.665 130.637 156.342 130.357 155.926V160.975H128.922ZM130.221 151.873C130.221 153.214 130.445 154.204 130.895 154.842C131.344 155.473 131.887 155.789 132.525 155.789C133.137 155.789 133.674 155.46 134.137 154.803C134.599 154.145 134.83 153.13 134.83 151.756C134.83 150.402 134.605 149.399 134.156 148.748C133.707 148.097 133.16 147.771 132.516 147.771C131.936 147.771 131.409 148.123 130.934 148.826C130.458 149.523 130.221 150.538 130.221 151.873ZM138.043 157V146.629H139.342V148.201C139.674 147.472 139.977 146.99 140.25 146.756C140.53 146.515 140.842 146.395 141.188 146.395C141.669 146.395 142.161 146.583 142.662 146.961L142.174 148.592C141.816 148.338 141.467 148.211 141.129 148.211C140.823 148.211 140.543 148.318 140.289 148.533C140.035 148.748 139.856 149.048 139.752 149.432C139.57 150.102 139.479 150.815 139.479 151.57V157H138.043ZM142.975 151.814C142.975 150.024 143.349 148.673 144.098 147.762C144.853 146.85 145.807 146.395 146.959 146.395C148.092 146.395 149.039 146.85 149.801 147.762C150.562 148.673 150.943 149.988 150.943 151.707C150.943 153.569 150.569 154.956 149.82 155.867C149.072 156.779 148.118 157.234 146.959 157.234C145.82 157.234 144.869 156.779 144.107 155.867C143.352 154.949 142.975 153.598 142.975 151.814ZM144.449 151.814C144.449 153.156 144.693 154.155 145.182 154.812C145.67 155.464 146.275 155.789 146.998 155.789C147.675 155.789 148.255 155.46 148.736 154.803C149.225 154.139 149.469 153.143 149.469 151.814C149.469 150.48 149.225 149.487 148.736 148.836C148.248 148.178 147.643 147.85 146.92 147.85C146.236 147.85 145.654 148.178 145.172 148.836C144.69 149.493 144.449 150.486 144.449 151.814ZM158.209 153.201L159.625 153.426C159.462 154.663 159.052 155.607 158.395 156.258C157.743 156.909 156.959 157.234 156.041 157.234C154.928 157.234 154.01 156.779 153.287 155.867C152.571 154.949 152.213 153.595 152.213 151.805C152.213 150.001 152.574 148.65 153.297 147.752C154.026 146.847 154.96 146.395 156.1 146.395C156.979 146.395 157.717 146.668 158.316 147.215C158.922 147.762 159.309 148.582 159.479 149.676L158.082 149.939C157.945 149.236 157.708 148.712 157.369 148.367C157.031 148.016 156.624 147.84 156.148 147.84C155.439 147.84 154.85 148.156 154.381 148.787C153.919 149.412 153.688 150.408 153.688 151.775C153.688 153.188 153.909 154.21 154.352 154.842C154.801 155.473 155.374 155.789 156.07 155.789C156.617 155.789 157.083 155.581 157.467 155.164C157.857 154.741 158.105 154.087 158.209 153.201ZM166.656 153.66L168.141 153.885C167.893 154.992 167.444 155.828 166.793 156.395C166.148 156.954 165.348 157.234 164.391 157.234C163.186 157.234 162.21 156.779 161.461 155.867C160.719 154.949 160.348 153.628 160.348 151.902C160.348 150.112 160.722 148.748 161.471 147.811C162.226 146.867 163.18 146.395 164.332 146.395C165.432 146.395 166.35 146.857 167.086 147.781C167.822 148.706 168.189 150.044 168.189 151.795L168.18 152.264H161.832C161.891 153.429 162.161 154.308 162.643 154.9C163.124 155.493 163.71 155.789 164.4 155.789C165.481 155.789 166.233 155.079 166.656 153.66ZM161.92 150.818H166.666C166.601 149.92 166.409 149.249 166.09 148.807C165.628 148.162 165.038 147.84 164.322 147.84C163.678 147.84 163.128 148.11 162.672 148.65C162.216 149.184 161.965 149.907 161.92 150.818ZM169.41 153.904L170.836 153.631C170.921 154.36 171.152 154.904 171.529 155.262C171.907 155.613 172.408 155.789 173.033 155.789C173.658 155.789 174.14 155.636 174.479 155.33C174.824 155.018 174.996 154.624 174.996 154.148C174.996 153.738 174.85 153.419 174.557 153.191C174.355 153.035 173.867 152.84 173.092 152.605C171.972 152.26 171.223 151.967 170.846 151.727C170.468 151.486 170.175 151.163 169.967 150.76C169.758 150.356 169.654 149.897 169.654 149.383C169.654 148.497 169.938 147.778 170.504 147.225C171.07 146.671 171.855 146.395 172.857 146.395C173.489 146.395 174.042 146.508 174.518 146.736C174.999 146.964 175.367 147.27 175.621 147.654C175.875 148.038 176.051 148.589 176.148 149.305L174.742 149.539C174.612 148.406 173.997 147.84 172.896 147.84C172.271 147.84 171.806 147.967 171.5 148.221C171.194 148.468 171.041 148.787 171.041 149.178C171.041 149.562 171.188 149.865 171.48 150.086C171.656 150.216 172.177 150.424 173.043 150.711C174.234 151.095 175.006 151.401 175.357 151.629C175.709 151.85 175.982 152.156 176.178 152.547C176.373 152.931 176.471 153.39 176.471 153.924C176.471 154.913 176.155 155.714 175.523 156.326C174.898 156.938 174.042 157.244 172.955 157.244C170.917 157.244 169.736 156.131 169.41 153.904ZM177.613 153.904L179.039 153.631C179.124 154.36 179.355 154.904 179.732 155.262C180.11 155.613 180.611 155.789 181.236 155.789C181.861 155.789 182.343 155.636 182.682 155.33C183.027 155.018 183.199 154.624 183.199 154.148C183.199 153.738 183.053 153.419 182.76 153.191C182.558 153.035 182.07 152.84 181.295 152.605C180.175 152.26 179.426 151.967 179.049 151.727C178.671 151.486 178.378 151.163 178.17 150.76C177.962 150.356 177.857 149.897 177.857 149.383C177.857 148.497 178.141 147.778 178.707 147.225C179.273 146.671 180.058 146.395 181.061 146.395C181.692 146.395 182.245 146.508 182.721 146.736C183.202 146.964 183.57 147.27 183.824 147.654C184.078 148.038 184.254 148.589 184.352 149.305L182.945 149.539C182.815 148.406 182.2 147.84 181.1 147.84C180.475 147.84 180.009 147.967 179.703 148.221C179.397 148.468 179.244 148.787 179.244 149.178C179.244 149.562 179.391 149.865 179.684 150.086C179.859 150.216 180.38 150.424 181.246 150.711C182.438 151.095 183.209 151.401 183.561 151.629C183.912 151.85 184.186 152.156 184.381 152.547C184.576 152.931 184.674 153.39 184.674 153.924C184.674 154.913 184.358 155.714 183.727 156.326C183.102 156.938 182.245 157.244 181.158 157.244C179.12 157.244 177.939 156.131 177.613 153.904ZM192.184 153.66L193.668 153.885C193.421 154.992 192.971 155.828 192.32 156.395C191.676 156.954 190.875 157.234 189.918 157.234C188.714 157.234 187.737 156.779 186.988 155.867C186.246 154.949 185.875 153.628 185.875 151.902C185.875 150.112 186.249 148.748 186.998 147.811C187.753 146.867 188.707 146.395 189.859 146.395C190.96 146.395 191.878 146.857 192.613 147.781C193.349 148.706 193.717 150.044 193.717 151.795L193.707 152.264H187.359C187.418 153.429 187.688 154.308 188.17 154.9C188.652 155.493 189.238 155.789 189.928 155.789C191.008 155.789 191.76 155.079 192.184 153.66ZM187.447 150.818H192.193C192.128 149.92 191.936 149.249 191.617 148.807C191.155 148.162 190.566 147.84 189.85 147.84C189.205 147.84 188.655 148.11 188.199 148.65C187.743 149.184 187.493 149.907 187.447 150.818ZM201.002 157V155.691C200.742 156.193 200.406 156.577 199.996 156.844C199.586 157.104 199.143 157.234 198.668 157.234C197.665 157.234 196.796 156.762 196.061 155.818C195.331 154.868 194.967 153.533 194.967 151.814C194.967 150.636 195.13 149.637 195.455 148.816C195.781 147.996 196.214 147.387 196.754 146.99C197.301 146.593 197.906 146.395 198.57 146.395C199.046 146.395 199.485 146.521 199.889 146.775C200.299 147.023 200.637 147.371 200.904 147.82V142.684H202.35V157H201.002ZM196.441 151.824C196.441 153.165 196.673 154.161 197.135 154.812C197.604 155.464 198.147 155.789 198.766 155.789C199.378 155.789 199.908 155.477 200.357 154.852C200.807 154.227 201.031 153.283 201.031 152.02C201.031 150.568 200.807 149.51 200.357 148.846C199.908 148.175 199.342 147.84 198.658 147.84C198.053 147.84 197.532 148.162 197.096 148.807C196.66 149.445 196.441 150.451 196.441 151.824ZM210.504 157H209.166V142.684H210.602V147.791C210.908 147.322 211.253 146.974 211.637 146.746C212.027 146.512 212.46 146.395 212.936 146.395C213.6 146.395 214.202 146.593 214.742 146.99C215.289 147.387 215.725 147.99 216.051 148.797C216.376 149.604 216.539 150.584 216.539 151.736C216.539 153.494 216.171 154.852 215.436 155.809C214.7 156.759 213.84 157.234 212.857 157.234C212.363 157.234 211.917 157.107 211.52 156.854C211.129 156.593 210.79 156.209 210.504 155.701V157ZM210.484 151.736C210.484 152.811 210.582 153.615 210.777 154.148C210.973 154.682 211.249 155.089 211.607 155.369C211.965 155.649 212.363 155.789 212.799 155.789C213.391 155.789 213.915 155.457 214.371 154.793C214.833 154.122 215.064 153.123 215.064 151.795C215.064 150.434 214.843 149.435 214.4 148.797C213.958 148.159 213.414 147.84 212.77 147.84C212.177 147.84 211.646 148.175 211.178 148.846C210.715 149.51 210.484 150.473 210.484 151.736ZM218.258 160.994L218.102 159.344C218.421 159.448 218.694 159.5 218.922 159.5C219.228 159.5 219.479 159.438 219.674 159.314C219.876 159.191 220.042 158.999 220.172 158.738C220.217 158.647 220.406 158.074 220.738 157.02L217.506 146.629H219.059L220.836 152.635C221.057 153.383 221.262 154.184 221.451 155.037C221.614 154.23 221.809 153.442 222.037 152.674L223.854 146.629H225.299L222.066 157.176C221.643 158.543 221.308 159.454 221.061 159.91C220.82 160.372 220.543 160.704 220.23 160.906C219.924 161.108 219.576 161.209 219.186 161.209C218.912 161.209 218.603 161.137 218.258 160.994ZM63.5312 178.428L63.7266 179.98C63.3294 180.085 62.9714 180.137 62.6523 180.137C62.151 180.137 61.7474 180.039 61.4414 179.844C61.1354 179.642 60.9238 179.368 60.8066 179.023C60.696 178.678 60.6406 177.992 60.6406 176.963V170.996H59.5859V169.629H60.6406V167.061L62.0762 166.006V169.629H63.5312V170.996H62.0762V177.061C62.0762 177.62 62.1185 177.982 62.2031 178.145C62.3268 178.379 62.5579 178.496 62.8965 178.496C63.0592 178.496 63.2708 178.473 63.5312 178.428ZM64.8887 180V165.684H66.3242V170.82C66.6628 170.345 67.0436 169.99 67.4668 169.756C67.8965 169.515 68.3685 169.395 68.8828 169.395C69.7878 169.395 70.5007 169.684 71.0215 170.264C71.5488 170.837 71.8125 171.891 71.8125 173.428V180H70.377V173.428C70.377 172.529 70.2174 171.885 69.8984 171.494C69.5794 171.104 69.14 170.908 68.5801 170.908C67.9551 170.908 67.4212 171.159 66.9785 171.66C66.5423 172.161 66.3242 173.05 66.3242 174.326V180H64.8887ZM79.8301 176.66L81.3145 176.885C81.0671 177.992 80.6178 178.828 79.9668 179.395C79.3223 179.954 78.5215 180.234 77.5645 180.234C76.36 180.234 75.3835 179.779 74.6348 178.867C73.8926 177.949 73.5215 176.628 73.5215 174.902C73.5215 173.112 73.8958 171.748 74.6445 170.811C75.3997 169.867 76.3535 169.395 77.5059 169.395C78.6061 169.395 79.5241 169.857 80.2598 170.781C80.9954 171.706 81.3633 173.044 81.3633 174.795L81.3535 175.264H75.0059C75.0645 176.429 75.3346 177.308 75.8164 177.9C76.2982 178.493 76.8841 178.789 77.5742 178.789C78.6549 178.789 79.4069 178.079 79.8301 176.66ZM75.0938 173.818H79.8398C79.7747 172.92 79.5827 172.249 79.2637 171.807C78.8014 171.162 78.2122 170.84 77.4961 170.84C76.8516 170.84 76.3014 171.11 75.8457 171.65C75.39 172.184 75.1393 172.907 75.0938 173.818ZM89.0293 180H87.6914V165.684H89.127V170.791C89.4329 170.322 89.778 169.974 90.1621 169.746C90.5527 169.512 90.9857 169.395 91.4609 169.395C92.125 169.395 92.7272 169.593 93.2676 169.99C93.8145 170.387 94.2507 170.99 94.5762 171.797C94.9017 172.604 95.0645 173.584 95.0645 174.736C95.0645 176.494 94.6966 177.852 93.9609 178.809C93.2253 179.759 92.3659 180.234 91.3828 180.234C90.888 180.234 90.4421 180.107 90.0449 179.854C89.6543 179.593 89.3158 179.209 89.0293 178.701V180ZM89.0098 174.736C89.0098 175.811 89.1074 176.615 89.3027 177.148C89.498 177.682 89.7747 178.089 90.1328 178.369C90.4909 178.649 90.888 178.789 91.3242 178.789C91.9167 178.789 92.4408 178.457 92.8965 177.793C93.3587 177.122 93.5898 176.123 93.5898 174.795C93.5898 173.434 93.3685 172.435 92.9258 171.797C92.4831 171.159 91.9395 170.84 91.2949 170.84C90.7025 170.84 90.1719 171.175 89.7031 171.846C89.2409 172.51 89.0098 173.473 89.0098 174.736ZM96.7832 180V165.684H98.2188V180H96.7832ZM99.9375 174.814C99.9375 173.024 100.312 171.673 101.061 170.762C101.816 169.85 102.77 169.395 103.922 169.395C105.055 169.395 106.002 169.85 106.764 170.762C107.525 171.673 107.906 172.988 107.906 174.707C107.906 176.569 107.532 177.956 106.783 178.867C106.035 179.779 105.081 180.234 103.922 180.234C102.783 180.234 101.832 179.779 101.07 178.867C100.315 177.949 99.9375 176.598 99.9375 174.814ZM101.412 174.814C101.412 176.156 101.656 177.155 102.145 177.812C102.633 178.464 103.238 178.789 103.961 178.789C104.638 178.789 105.217 178.46 105.699 177.803C106.188 177.139 106.432 176.143 106.432 174.814C106.432 173.48 106.188 172.487 105.699 171.836C105.211 171.178 104.605 170.85 103.883 170.85C103.199 170.85 102.617 171.178 102.135 171.836C101.653 172.493 101.412 173.486 101.412 174.814ZM115.172 176.201L116.588 176.426C116.425 177.663 116.015 178.607 115.357 179.258C114.706 179.909 113.922 180.234 113.004 180.234C111.891 180.234 110.973 179.779 110.25 178.867C109.534 177.949 109.176 176.595 109.176 174.805C109.176 173.001 109.537 171.65 110.26 170.752C110.989 169.847 111.923 169.395 113.062 169.395C113.941 169.395 114.68 169.668 115.279 170.215C115.885 170.762 116.272 171.582 116.441 172.676L115.045 172.939C114.908 172.236 114.671 171.712 114.332 171.367C113.993 171.016 113.587 170.84 113.111 170.84C112.402 170.84 111.812 171.156 111.344 171.787C110.882 172.412 110.65 173.408 110.65 174.775C110.65 176.188 110.872 177.21 111.314 177.842C111.764 178.473 112.337 178.789 113.033 178.789C113.58 178.789 114.046 178.581 114.43 178.164C114.82 177.741 115.068 177.087 115.172 176.201ZM117.838 180V165.684H119.273V173.848L122.691 169.629H124.557L121.305 173.477L124.879 180H123.111L120.289 174.697L119.273 175.889V180H117.838ZM131.578 176.201L132.994 176.426C132.831 177.663 132.421 178.607 131.764 179.258C131.113 179.909 130.328 180.234 129.41 180.234C128.297 180.234 127.379 179.779 126.656 178.867C125.94 177.949 125.582 176.595 125.582 174.805C125.582 173.001 125.943 171.65 126.666 170.752C127.395 169.847 128.329 169.395 129.469 169.395C130.348 169.395 131.087 169.668 131.686 170.215C132.291 170.762 132.678 171.582 132.848 172.676L131.451 172.939C131.314 172.236 131.077 171.712 130.738 171.367C130.4 171.016 129.993 170.84 129.518 170.84C128.808 170.84 128.219 171.156 127.75 171.787C127.288 172.412 127.057 173.408 127.057 174.775C127.057 176.188 127.278 177.21 127.721 177.842C128.17 178.473 128.743 178.789 129.439 178.789C129.986 178.789 130.452 178.581 130.836 178.164C131.227 177.741 131.474 177.087 131.578 176.201ZM134.205 180V165.684H135.641V170.82C135.979 170.345 136.36 169.99 136.783 169.756C137.213 169.515 137.685 169.395 138.199 169.395C139.104 169.395 139.817 169.684 140.338 170.264C140.865 170.837 141.129 171.891 141.129 173.428V180H139.693V173.428C139.693 172.529 139.534 171.885 139.215 171.494C138.896 171.104 138.456 170.908 137.896 170.908C137.271 170.908 136.738 171.159 136.295 171.66C135.859 172.161 135.641 173.05 135.641 174.326V180H134.205ZM148.873 178.721C148.391 179.222 147.89 179.6 147.369 179.854C146.848 180.107 146.308 180.234 145.748 180.234C144.863 180.234 144.156 179.967 143.629 179.434C143.102 178.9 142.838 178.18 142.838 177.275C142.838 176.676 142.962 176.146 143.209 175.684C143.456 175.221 143.795 174.86 144.225 174.6C144.654 174.339 145.305 174.147 146.178 174.023C147.35 173.854 148.209 173.652 148.756 173.418L148.766 172.969C148.766 172.259 148.639 171.761 148.385 171.475C148.027 171.058 147.477 170.85 146.734 170.85C146.064 170.85 145.562 170.99 145.23 171.27C144.898 171.543 144.654 172.061 144.498 172.822L143.082 172.588C143.284 171.475 143.691 170.664 144.303 170.156C144.921 169.648 145.803 169.395 146.949 169.395C147.841 169.395 148.541 169.564 149.049 169.902C149.557 170.234 149.876 170.648 150.006 171.143C150.143 171.637 150.211 172.36 150.211 173.311V175.654C150.211 177.295 150.24 178.33 150.299 178.76C150.364 179.183 150.488 179.596 150.67 180H149.166C149.016 179.642 148.919 179.215 148.873 178.721ZM148.756 174.795C148.229 175.055 147.444 175.277 146.402 175.459C145.797 175.563 145.374 175.684 145.133 175.82C144.892 175.951 144.703 176.139 144.566 176.387C144.436 176.628 144.371 176.908 144.371 177.227C144.371 177.721 144.524 178.118 144.83 178.418C145.136 178.711 145.559 178.857 146.1 178.857C146.614 178.857 147.079 178.724 147.496 178.457C147.919 178.19 148.235 177.835 148.443 177.393C148.652 176.943 148.756 176.292 148.756 175.439V174.795ZM152.447 167.705V165.684H153.883V167.705H152.447ZM152.447 180V169.629H153.883V180H152.447ZM156.1 180V169.629H157.398V171.104C157.711 170.531 158.092 170.104 158.541 169.824C158.997 169.538 159.518 169.395 160.104 169.395C160.559 169.395 160.979 169.486 161.363 169.668C161.754 169.844 162.066 170.078 162.301 170.371C162.542 170.658 162.721 171.032 162.838 171.494C162.955 171.956 163.014 172.666 163.014 173.623V180H161.568V173.691C161.568 172.93 161.503 172.373 161.373 172.021C161.243 171.67 161.038 171.4 160.758 171.211C160.484 171.016 160.165 170.918 159.801 170.918C159.111 170.918 158.561 171.175 158.15 171.689C157.74 172.204 157.535 173.086 157.535 174.336V180H156.1ZM165.68 180V177.998H167.32V180H165.68Z" fill="white"/>
<rect x="61" y="58.3335" width="11.6667" height="11.6667" fill="black"/>
<rect x="61" y="46.6665" width="11.6667" height="11.6667" fill="black"/>
<rect x="61" y="35" width="11.6667" height="11.6667" fill="black"/>
<rect x="72.666" y="23.3335" width="11.6667" height="11.6667" fill="black"/>
<rect x="84.334" y="11.6665" width="11.6667" height="11.6667" fill="black"/>
<rect x="96" width="11.6667" height="11.6667" fill="black"/>
<rect x="107.666" width="11.6667" height="11.6667" fill="black"/>
<rect x="107.666" y="23.3335" width="11.6667" height="11.6667" fill="white"/>
<rect x="107.666" y="35" width="11.6667" height="11.6667" fill="white"/>
<rect x="107.666" y="46.6665" width="11.6667" height="11.6667" fill="white"/>
<rect x="119.334" y="46.6665" width="11.6667" height="11.6667" fill="white"/>
<rect x="119.334" width="11.6667" height="11.6667" fill="black"/>
<rect x="131" y="11.6665" width="11.6667" height="11.6667" fill="black"/>
<rect x="142.666" y="23.3335" width="11.6667" height="11.6667" fill="black"/>
<rect x="154.334" y="35" width="11.6667" height="11.6667" fill="black"/>
<rect x="154.334" y="46.6665" width="11.6667" height="11.6667" fill="black"/>
<rect x="154.334" y="58.3335" width="11.6667" height="11.6667" fill="black"/>
<rect x="142.666" y="70" width="11.6667" height="11.6667" fill="black"/>
<rect x="131" y="81.6665" width="11.6667" height="11.6667" fill="black"/>
<rect x="119.334" y="93.3335" width="11.6667" height="11.6667" fill="black"/>
<rect x="107.666" y="93.3335" width="11.6667" height="11.6667" fill="black"/>
<rect x="96" y="93.3335" width="11.6667" height="11.6667" fill="black"/>
<rect x="84.334" y="81.6665" width="11.6667" height="11.6667" fill="black"/>
<rect x="72.666" y="70" width="11.6667" height="11.6667" fill="black"/>
</svg>
