<svg width="228" height="164" viewBox="0 0 228 164" fill="none" xmlns="http://www.w3.org/2000/svg">
<rect x="83" width="15.4167" height="15.3333" fill="black"/>
<rect x="129" width="15.4167" height="15.3333" fill="black"/>
<rect x="84" y="52" width="15.4167" height="15.3333" fill="black"/>
<rect x="99" y="47" width="15.4167" height="15.3333" fill="black"/>
<rect x="114" y="43" width="15.4167" height="15.3333" fill="black"/>
<rect x="129" y="39" width="15.4167" height="15.3333" fill="black"/>
<path d="M14.8496 114V107.936L10.3281 99.6836H12.2227L14.5273 104C14.9831 104.853 15.3835 105.66 15.7285 106.422C16.0736 105.673 16.5 104.83 17.0078 103.893L19.2832 99.6836H21.0898L16.4023 107.936V114H14.8496ZM20.2305 108.814C20.2305 107.024 20.6048 105.673 21.3535 104.762C22.1087 103.85 23.0625 103.395 24.2148 103.395C25.3477 103.395 26.2949 103.85 27.0566 104.762C27.8184 105.673 28.1992 106.988 28.1992 108.707C28.1992 110.569 27.8249 111.956 27.0762 112.867C26.3275 113.779 25.3737 114.234 24.2148 114.234C23.0755 114.234 22.125 113.779 21.3633 112.867C20.6081 111.949 20.2305 110.598 20.2305 108.814ZM21.7051 108.814C21.7051 110.156 21.9492 111.155 22.4375 111.812C22.9258 112.464 23.5312 112.789 24.2539 112.789C24.931 112.789 25.5104 112.46 25.9922 111.803C26.4805 111.139 26.7246 110.143 26.7246 108.814C26.7246 107.48 26.4805 106.487 25.9922 105.836C25.5039 105.178 24.8984 104.85 24.1758 104.85C23.4922 104.85 22.9095 105.178 22.4277 105.836C21.946 106.493 21.7051 107.486 21.7051 108.814ZM35.4648 114V112.477C35.1328 113.062 34.7422 113.502 34.293 113.795C33.8438 114.088 33.3359 114.234 32.7695 114.234C32.099 114.234 31.526 114.055 31.0508 113.697C30.5755 113.333 30.2565 112.874 30.0938 112.32C29.9375 111.767 29.8594 111.012 29.8594 110.055V103.629H31.2949V109.381C31.2949 110.449 31.347 111.165 31.4512 111.529C31.5618 111.887 31.7604 112.177 32.0469 112.398C32.3398 112.613 32.6719 112.721 33.043 112.721C33.7331 112.721 34.2995 112.438 34.7422 111.871C35.1198 111.383 35.3086 110.488 35.3086 109.186V103.629H36.7539V114H35.4648ZM38.9121 101.734V99.6836H40.4648V101.295C40.4648 102.219 40.3542 102.903 40.1328 103.346C39.9115 103.788 39.5794 104.13 39.1367 104.371L38.7852 103.688C39.3451 103.401 39.638 102.75 39.6641 101.734H38.9121ZM45.0449 114L41.8125 103.629H43.3359L45.1621 109.84C45.3704 110.543 45.5527 111.24 45.709 111.93C45.8327 111.383 46.0085 110.725 46.2363 109.957L48.1309 103.629H49.6152L46.3926 114H45.0449ZM56.6855 110.66L58.1699 110.885C57.9225 111.992 57.4733 112.828 56.8223 113.395C56.1777 113.954 55.377 114.234 54.4199 114.234C53.2155 114.234 52.2389 113.779 51.4902 112.867C50.748 111.949 50.377 110.628 50.377 108.902C50.377 107.112 50.7513 105.748 51.5 104.811C52.2552 103.867 53.209 103.395 54.3613 103.395C55.4616 103.395 56.3796 103.857 57.1152 104.781C57.8509 105.706 58.2188 107.044 58.2188 108.795L58.209 109.264H51.8613C51.9199 110.429 52.1901 111.308 52.6719 111.9C53.1536 112.493 53.7396 112.789 54.4297 112.789C55.5104 112.789 56.2624 112.079 56.6855 110.66ZM51.9492 107.818H56.6953C56.6302 106.92 56.4382 106.249 56.1191 105.807C55.6569 105.162 55.0677 104.84 54.3516 104.84C53.707 104.84 53.1569 105.11 52.7012 105.65C52.2454 106.184 51.9948 106.907 51.9492 107.818ZM65.8848 114H64.5469V99.6836H65.9824V104.791C66.2884 104.322 66.6335 103.974 67.0176 103.746C67.4082 103.512 67.8411 103.395 68.3164 103.395C68.9805 103.395 69.5827 103.593 70.123 103.99C70.6699 104.387 71.1061 104.99 71.4316 105.797C71.7572 106.604 71.9199 107.584 71.9199 108.736C71.9199 110.494 71.5521 111.852 70.8164 112.809C70.0807 113.759 69.2214 114.234 68.2383 114.234C67.7435 114.234 67.2975 114.107 66.9004 113.854C66.5098 113.593 66.1712 113.209 65.8848 112.701V114ZM65.8652 108.736C65.8652 109.811 65.9629 110.615 66.1582 111.148C66.3535 111.682 66.6302 112.089 66.9883 112.369C67.3464 112.649 67.7435 112.789 68.1797 112.789C68.7721 112.789 69.2962 112.457 69.752 111.793C70.2142 111.122 70.4453 110.123 70.4453 108.795C70.4453 107.434 70.224 106.435 69.7812 105.797C69.3385 105.159 68.7949 104.84 68.1504 104.84C67.5579 104.84 67.0273 105.175 66.5586 105.846C66.0964 106.51 65.8652 107.473 65.8652 108.736ZM79.498 110.66L80.9824 110.885C80.735 111.992 80.2858 112.828 79.6348 113.395C78.9902 113.954 78.1895 114.234 77.2324 114.234C76.028 114.234 75.0514 113.779 74.3027 112.867C73.5605 111.949 73.1895 110.628 73.1895 108.902C73.1895 107.112 73.5638 105.748 74.3125 104.811C75.0677 103.867 76.0215 103.395 77.1738 103.395C78.2741 103.395 79.1921 103.857 79.9277 104.781C80.6634 105.706 81.0312 107.044 81.0312 108.795L81.0215 109.264H74.6738C74.7324 110.429 75.0026 111.308 75.4844 111.9C75.9661 112.493 76.5521 112.789 77.2422 112.789C78.3229 112.789 79.0749 112.079 79.498 110.66ZM74.7617 107.818H79.5078C79.4427 106.92 79.2507 106.249 78.9316 105.807C78.4694 105.162 77.8802 104.84 77.1641 104.84C76.5195 104.84 75.9694 105.11 75.5137 105.65C75.0579 106.184 74.8073 106.907 74.7617 107.818ZM88.6191 110.66L90.1035 110.885C89.8561 111.992 89.4069 112.828 88.7559 113.395C88.1113 113.954 87.3105 114.234 86.3535 114.234C85.1491 114.234 84.1725 113.779 83.4238 112.867C82.6816 111.949 82.3105 110.628 82.3105 108.902C82.3105 107.112 82.6849 105.748 83.4336 104.811C84.1888 103.867 85.1426 103.395 86.2949 103.395C87.3952 103.395 88.3132 103.857 89.0488 104.781C89.7845 105.706 90.1523 107.044 90.1523 108.795L90.1426 109.264H83.7949C83.8535 110.429 84.1237 111.308 84.6055 111.9C85.0872 112.493 85.6732 112.789 86.3633 112.789C87.444 112.789 88.196 112.079 88.6191 110.66ZM83.8828 107.818H88.6289C88.5638 106.92 88.3717 106.249 88.0527 105.807C87.5905 105.162 87.0013 104.84 86.2852 104.84C85.6406 104.84 85.0905 105.11 84.6348 105.65C84.179 106.184 83.9284 106.907 83.8828 107.818ZM91.9199 114V103.629H93.2188V105.104C93.5312 104.531 93.9121 104.104 94.3613 103.824C94.8171 103.538 95.3379 103.395 95.9238 103.395C96.3796 103.395 96.7995 103.486 97.1836 103.668C97.5742 103.844 97.8867 104.078 98.1211 104.371C98.362 104.658 98.541 105.032 98.6582 105.494C98.7754 105.956 98.834 106.666 98.834 107.623V114H97.3887V107.691C97.3887 106.93 97.3236 106.373 97.1934 106.021C97.0632 105.67 96.8581 105.4 96.5781 105.211C96.3047 105.016 95.9857 104.918 95.6211 104.918C94.931 104.918 94.3809 105.175 93.9707 105.689C93.5605 106.204 93.3555 107.086 93.3555 108.336V114H91.9199ZM105.074 108.814C105.074 107.024 105.449 105.673 106.197 104.762C106.952 103.85 107.906 103.395 109.059 103.395C110.191 103.395 111.139 103.85 111.9 104.762C112.662 105.673 113.043 106.988 113.043 108.707C113.043 110.569 112.669 111.956 111.92 112.867C111.171 113.779 110.217 114.234 109.059 114.234C107.919 114.234 106.969 113.779 106.207 112.867C105.452 111.949 105.074 110.598 105.074 108.814ZM106.549 108.814C106.549 110.156 106.793 111.155 107.281 111.812C107.77 112.464 108.375 112.789 109.098 112.789C109.775 112.789 110.354 112.46 110.836 111.803C111.324 111.139 111.568 110.143 111.568 108.814C111.568 107.48 111.324 106.487 110.836 105.836C110.348 105.178 109.742 104.85 109.02 104.85C108.336 104.85 107.753 105.178 107.271 105.836C106.79 106.493 106.549 107.486 106.549 108.814ZM120.309 114V112.477C119.977 113.062 119.586 113.502 119.137 113.795C118.688 114.088 118.18 114.234 117.613 114.234C116.943 114.234 116.37 114.055 115.895 113.697C115.419 113.333 115.1 112.874 114.938 112.32C114.781 111.767 114.703 111.012 114.703 110.055V103.629H116.139V109.381C116.139 110.449 116.191 111.165 116.295 111.529C116.406 111.887 116.604 112.177 116.891 112.398C117.184 112.613 117.516 112.721 117.887 112.721C118.577 112.721 119.143 112.438 119.586 111.871C119.964 111.383 120.152 110.488 120.152 109.186V103.629H121.598V114H120.309ZM127.066 112.428L127.262 113.98C126.865 114.085 126.507 114.137 126.188 114.137C125.686 114.137 125.283 114.039 124.977 113.844C124.671 113.642 124.459 113.368 124.342 113.023C124.231 112.678 124.176 111.992 124.176 110.963V104.996H123.121V103.629H124.176V101.061L125.611 100.006V103.629H127.066V104.996H125.611V111.061C125.611 111.62 125.654 111.982 125.738 112.145C125.862 112.379 126.093 112.496 126.432 112.496C126.594 112.496 126.806 112.473 127.066 112.428ZM129.752 114H128.414V99.6836H129.85V104.791C130.156 104.322 130.501 103.974 130.885 103.746C131.275 103.512 131.708 103.395 132.184 103.395C132.848 103.395 133.45 103.593 133.99 103.99C134.537 104.387 134.973 104.99 135.299 105.797C135.624 106.604 135.787 107.584 135.787 108.736C135.787 110.494 135.419 111.852 134.684 112.809C133.948 113.759 133.089 114.234 132.105 114.234C131.611 114.234 131.165 114.107 130.768 113.854C130.377 113.593 130.038 113.209 129.752 112.701V114ZM129.732 108.736C129.732 109.811 129.83 110.615 130.025 111.148C130.221 111.682 130.497 112.089 130.855 112.369C131.214 112.649 131.611 112.789 132.047 112.789C132.639 112.789 133.163 112.457 133.619 111.793C134.081 111.122 134.312 110.123 134.312 108.795C134.312 107.434 134.091 106.435 133.648 105.797C133.206 105.159 132.662 104.84 132.018 104.84C131.425 104.84 130.895 105.175 130.426 105.846C129.964 106.51 129.732 107.473 129.732 108.736ZM137.545 101.705V99.6836H138.98V101.705H137.545ZM137.545 114V103.629H138.98V114H137.545ZM146.715 114V112.691C146.454 113.193 146.119 113.577 145.709 113.844C145.299 114.104 144.856 114.234 144.381 114.234C143.378 114.234 142.509 113.762 141.773 112.818C141.044 111.868 140.68 110.533 140.68 108.814C140.68 107.636 140.842 106.637 141.168 105.816C141.493 104.996 141.926 104.387 142.467 103.99C143.014 103.593 143.619 103.395 144.283 103.395C144.758 103.395 145.198 103.521 145.602 103.775C146.012 104.023 146.35 104.371 146.617 104.82V99.6836H148.062V114H146.715ZM142.154 108.824C142.154 110.165 142.385 111.161 142.848 111.812C143.316 112.464 143.86 112.789 144.479 112.789C145.09 112.789 145.621 112.477 146.07 111.852C146.52 111.227 146.744 110.283 146.744 109.02C146.744 107.568 146.52 106.51 146.07 105.846C145.621 105.175 145.055 104.84 144.371 104.84C143.766 104.84 143.245 105.162 142.809 105.807C142.372 106.445 142.154 107.451 142.154 108.824ZM150.777 114V111.998H152.418V114H150.777ZM162.682 114V107.936L158.16 99.6836H160.055L162.359 104C162.815 104.853 163.215 105.66 163.561 106.422C163.906 105.673 164.332 104.83 164.84 103.893L167.115 99.6836H168.922L164.234 107.936V114H162.682ZM168.062 108.814C168.062 107.024 168.437 105.673 169.186 104.762C169.941 103.85 170.895 103.395 172.047 103.395C173.18 103.395 174.127 103.85 174.889 104.762C175.65 105.673 176.031 106.988 176.031 108.707C176.031 110.569 175.657 111.956 174.908 112.867C174.16 113.779 173.206 114.234 172.047 114.234C170.908 114.234 169.957 113.779 169.195 112.867C168.44 111.949 168.062 110.598 168.062 108.814ZM169.537 108.814C169.537 110.156 169.781 111.155 170.27 111.812C170.758 112.464 171.363 112.789 172.086 112.789C172.763 112.789 173.342 112.46 173.824 111.803C174.312 111.139 174.557 110.143 174.557 108.814C174.557 107.48 174.312 106.487 173.824 105.836C173.336 105.178 172.73 104.85 172.008 104.85C171.324 104.85 170.742 105.178 170.26 105.836C169.778 106.493 169.537 107.486 169.537 108.814ZM183.297 114V112.477C182.965 113.062 182.574 113.502 182.125 113.795C181.676 114.088 181.168 114.234 180.602 114.234C179.931 114.234 179.358 114.055 178.883 113.697C178.408 113.333 178.089 112.874 177.926 112.32C177.77 111.767 177.691 111.012 177.691 110.055V103.629H179.127V109.381C179.127 110.449 179.179 111.165 179.283 111.529C179.394 111.887 179.592 112.177 179.879 112.398C180.172 112.613 180.504 112.721 180.875 112.721C181.565 112.721 182.132 112.438 182.574 111.871C182.952 111.383 183.141 110.488 183.141 109.186V103.629H184.586V114H183.297ZM186.842 114V103.629H188.141V105.201C188.473 104.472 188.775 103.99 189.049 103.756C189.329 103.515 189.641 103.395 189.986 103.395C190.468 103.395 190.96 103.583 191.461 103.961L190.973 105.592C190.615 105.338 190.266 105.211 189.928 105.211C189.622 105.211 189.342 105.318 189.088 105.533C188.834 105.748 188.655 106.048 188.551 106.432C188.368 107.102 188.277 107.815 188.277 108.57V114H186.842ZM198.209 114H196.871V99.6836H198.307V104.791C198.613 104.322 198.958 103.974 199.342 103.746C199.732 103.512 200.165 103.395 200.641 103.395C201.305 103.395 201.907 103.593 202.447 103.99C202.994 104.387 203.43 104.99 203.756 105.797C204.081 106.604 204.244 107.584 204.244 108.736C204.244 110.494 203.876 111.852 203.141 112.809C202.405 113.759 201.546 114.234 200.562 114.234C200.068 114.234 199.622 114.107 199.225 113.854C198.834 113.593 198.495 113.209 198.209 112.701V114ZM198.189 108.736C198.189 109.811 198.287 110.615 198.482 111.148C198.678 111.682 198.954 112.089 199.312 112.369C199.671 112.649 200.068 112.789 200.504 112.789C201.096 112.789 201.62 112.457 202.076 111.793C202.538 111.122 202.77 110.123 202.77 108.795C202.77 107.434 202.548 106.435 202.105 105.797C201.663 105.159 201.119 104.84 200.475 104.84C199.882 104.84 199.352 105.175 198.883 105.846C198.421 106.51 198.189 107.473 198.189 108.736ZM206.002 101.705V99.6836H207.438V101.705H206.002ZM206.002 114V103.629H207.438V114H206.002ZM215.172 114V112.691C214.911 113.193 214.576 113.577 214.166 113.844C213.756 114.104 213.313 114.234 212.838 114.234C211.835 114.234 210.966 113.762 210.23 112.818C209.501 111.868 209.137 110.533 209.137 108.814C209.137 107.636 209.299 106.637 209.625 105.816C209.951 104.996 210.383 104.387 210.924 103.99C211.471 103.593 212.076 103.395 212.74 103.395C213.215 103.395 213.655 103.521 214.059 103.775C214.469 104.023 214.807 104.371 215.074 104.82V99.6836H216.52V114H215.172ZM210.611 108.824C210.611 110.165 210.842 111.161 211.305 111.812C211.773 112.464 212.317 112.789 212.936 112.789C213.548 112.789 214.078 112.477 214.527 111.852C214.977 111.227 215.201 110.283 215.201 109.02C215.201 107.568 214.977 106.51 214.527 105.846C214.078 105.175 213.512 104.84 212.828 104.84C212.223 104.84 211.702 105.162 211.266 105.807C210.829 106.445 210.611 107.451 210.611 108.824ZM16.5293 137V122.684H17.9648V127.82C18.3034 127.345 18.6842 126.99 19.1074 126.756C19.5371 126.515 20.0091 126.395 20.5234 126.395C21.4284 126.395 22.1413 126.684 22.6621 127.264C23.1895 127.837 23.4531 128.891 23.4531 130.428V137H22.0176V130.428C22.0176 129.529 21.8581 128.885 21.5391 128.494C21.2201 128.104 20.7806 127.908 20.2207 127.908C19.5957 127.908 19.0618 128.159 18.6191 128.66C18.1829 129.161 17.9648 130.05 17.9648 131.326V137H16.5293ZM31.1973 135.721C30.7155 136.222 30.2142 136.6 29.6934 136.854C29.1725 137.107 28.6322 137.234 28.0723 137.234C27.1868 137.234 26.4805 136.967 25.9531 136.434C25.4258 135.9 25.1621 135.18 25.1621 134.275C25.1621 133.676 25.2858 133.146 25.5332 132.684C25.7806 132.221 26.1191 131.86 26.5488 131.6C26.9785 131.339 27.6296 131.147 28.502 131.023C29.6738 130.854 30.5332 130.652 31.0801 130.418L31.0898 129.969C31.0898 129.259 30.9629 128.761 30.709 128.475C30.3509 128.058 29.8008 127.85 29.0586 127.85C28.388 127.85 27.8867 127.99 27.5547 128.27C27.2227 128.543 26.9785 129.061 26.8223 129.822L25.4062 129.588C25.6081 128.475 26.015 127.664 26.627 127.156C27.2454 126.648 28.1276 126.395 29.2734 126.395C30.1654 126.395 30.8652 126.564 31.373 126.902C31.8809 127.234 32.1999 127.648 32.3301 128.143C32.4668 128.637 32.5352 129.36 32.5352 130.311V132.654C32.5352 134.295 32.5645 135.33 32.623 135.76C32.6882 136.183 32.8118 136.596 32.9941 137H31.4902C31.3405 136.642 31.2428 136.215 31.1973 135.721ZM31.0801 131.795C30.5527 132.055 29.7682 132.277 28.7266 132.459C28.1211 132.563 27.6979 132.684 27.457 132.82C27.2161 132.951 27.0273 133.139 26.8906 133.387C26.7604 133.628 26.6953 133.908 26.6953 134.227C26.6953 134.721 26.8483 135.118 27.1543 135.418C27.4603 135.711 27.8835 135.857 28.4238 135.857C28.9382 135.857 29.4036 135.724 29.8203 135.457C30.2435 135.19 30.5592 134.835 30.7676 134.393C30.9759 133.943 31.0801 133.292 31.0801 132.439V131.795ZM34.2246 133.904L35.6504 133.631C35.735 134.36 35.9661 134.904 36.3438 135.262C36.7214 135.613 37.2227 135.789 37.8477 135.789C38.4727 135.789 38.9544 135.636 39.293 135.33C39.638 135.018 39.8105 134.624 39.8105 134.148C39.8105 133.738 39.6641 133.419 39.3711 133.191C39.1693 133.035 38.681 132.84 37.9062 132.605C36.7865 132.26 36.0378 131.967 35.6602 131.727C35.2826 131.486 34.9896 131.163 34.7812 130.76C34.5729 130.356 34.4688 129.897 34.4688 129.383C34.4688 128.497 34.752 127.778 35.3184 127.225C35.8848 126.671 36.6693 126.395 37.6719 126.395C38.3034 126.395 38.8568 126.508 39.332 126.736C39.8138 126.964 40.1816 127.27 40.4355 127.654C40.6895 128.038 40.8652 128.589 40.9629 129.305L39.5566 129.539C39.4264 128.406 38.8112 127.84 37.7109 127.84C37.0859 127.84 36.6204 127.967 36.3145 128.221C36.0085 128.468 35.8555 128.787 35.8555 129.178C35.8555 129.562 36.002 129.865 36.2949 130.086C36.4707 130.216 36.9915 130.424 37.8574 130.711C39.0488 131.095 39.8203 131.401 40.1719 131.629C40.5234 131.85 40.7969 132.156 40.9922 132.547C41.1875 132.931 41.2852 133.39 41.2852 133.924C41.2852 134.913 40.9694 135.714 40.3379 136.326C39.7129 136.938 38.8568 137.244 37.7695 137.244C35.7318 137.244 34.5501 136.131 34.2246 133.904ZM48.873 137H47.5352V122.684H48.9707V127.791C49.2767 127.322 49.6217 126.974 50.0059 126.746C50.3965 126.512 50.8294 126.395 51.3047 126.395C51.9688 126.395 52.571 126.593 53.1113 126.99C53.6582 127.387 54.0944 127.99 54.4199 128.797C54.7454 129.604 54.9082 130.584 54.9082 131.736C54.9082 133.494 54.5404 134.852 53.8047 135.809C53.069 136.759 52.2096 137.234 51.2266 137.234C50.7318 137.234 50.2858 137.107 49.8887 136.854C49.498 136.593 49.1595 136.209 48.873 135.701V137ZM48.8535 131.736C48.8535 132.811 48.9512 133.615 49.1465 134.148C49.3418 134.682 49.6185 135.089 49.9766 135.369C50.3346 135.649 50.7318 135.789 51.168 135.789C51.7604 135.789 52.2845 135.457 52.7402 134.793C53.2025 134.122 53.4336 133.123 53.4336 131.795C53.4336 130.434 53.2122 129.435 52.7695 128.797C52.3268 128.159 51.7832 127.84 51.1387 127.84C50.5462 127.84 50.0156 128.175 49.5469 128.846C49.0846 129.51 48.8535 130.473 48.8535 131.736ZM62.4863 133.66L63.9707 133.885C63.7233 134.992 63.2741 135.828 62.623 136.395C61.9785 136.954 61.1777 137.234 60.2207 137.234C59.0163 137.234 58.0397 136.779 57.291 135.867C56.5488 134.949 56.1777 133.628 56.1777 131.902C56.1777 130.112 56.5521 128.748 57.3008 127.811C58.056 126.867 59.0098 126.395 60.1621 126.395C61.2624 126.395 62.1803 126.857 62.916 127.781C63.6517 128.706 64.0195 130.044 64.0195 131.795L64.0098 132.264H57.6621C57.7207 133.429 57.9909 134.308 58.4727 134.9C58.9544 135.493 59.5404 135.789 60.2305 135.789C61.3112 135.789 62.0632 135.079 62.4863 133.66ZM57.75 130.818H62.4961C62.431 129.92 62.2389 129.249 61.9199 128.807C61.4577 128.162 60.8685 127.84 60.1523 127.84C59.5078 127.84 58.9577 128.11 58.502 128.65C58.0462 129.184 57.7956 129.907 57.75 130.818ZM71.6074 133.66L73.0918 133.885C72.8444 134.992 72.3952 135.828 71.7441 136.395C71.0996 136.954 70.2988 137.234 69.3418 137.234C68.1374 137.234 67.1608 136.779 66.4121 135.867C65.6699 134.949 65.2988 133.628 65.2988 131.902C65.2988 130.112 65.6732 128.748 66.4219 127.811C67.1771 126.867 68.1309 126.395 69.2832 126.395C70.3835 126.395 71.3014 126.857 72.0371 127.781C72.7728 128.706 73.1406 130.044 73.1406 131.795L73.1309 132.264H66.7832C66.8418 133.429 67.112 134.308 67.5938 134.9C68.0755 135.493 68.6615 135.789 69.3516 135.789C70.4323 135.789 71.1842 135.079 71.6074 133.66ZM66.8711 130.818H71.6172C71.5521 129.92 71.36 129.249 71.041 128.807C70.5788 128.162 69.9896 127.84 69.2734 127.84C68.6289 127.84 68.0788 128.11 67.623 128.65C67.1673 129.184 66.9167 129.907 66.8711 130.818ZM74.9082 137V126.629H76.207V128.104C76.5195 127.531 76.9004 127.104 77.3496 126.824C77.8053 126.538 78.3262 126.395 78.9121 126.395C79.3678 126.395 79.7878 126.486 80.1719 126.668C80.5625 126.844 80.875 127.078 81.1094 127.371C81.3503 127.658 81.5293 128.032 81.6465 128.494C81.7637 128.956 81.8223 129.666 81.8223 130.623V137H80.377V130.691C80.377 129.93 80.3118 129.373 80.1816 129.021C80.0514 128.67 79.8464 128.4 79.5664 128.211C79.293 128.016 78.974 127.918 78.6094 127.918C77.9193 127.918 77.3691 128.175 76.959 128.689C76.5488 129.204 76.3438 130.086 76.3438 131.336V137H74.9082ZM88.0527 133.904L89.4785 133.631C89.5632 134.36 89.7943 134.904 90.1719 135.262C90.5495 135.613 91.0508 135.789 91.6758 135.789C92.3008 135.789 92.7826 135.636 93.1211 135.33C93.4661 135.018 93.6387 134.624 93.6387 134.148C93.6387 133.738 93.4922 133.419 93.1992 133.191C92.9974 133.035 92.5091 132.84 91.7344 132.605C90.6146 132.26 89.8659 131.967 89.4883 131.727C89.1107 131.486 88.8177 131.163 88.6094 130.76C88.401 130.356 88.2969 129.897 88.2969 129.383C88.2969 128.497 88.5801 127.778 89.1465 127.225C89.7129 126.671 90.4974 126.395 91.5 126.395C92.1315 126.395 92.6849 126.508 93.1602 126.736C93.6419 126.964 94.0098 127.27 94.2637 127.654C94.5176 128.038 94.6934 128.589 94.791 129.305L93.3848 129.539C93.2546 128.406 92.6393 127.84 91.5391 127.84C90.9141 127.84 90.4486 127.967 90.1426 128.221C89.8366 128.468 89.6836 128.787 89.6836 129.178C89.6836 129.562 89.8301 129.865 90.123 130.086C90.2988 130.216 90.8197 130.424 91.6855 130.711C92.877 131.095 93.6484 131.401 94 131.629C94.3516 131.85 94.625 132.156 94.8203 132.547C95.0156 132.931 95.1133 133.39 95.1133 133.924C95.1133 134.913 94.7975 135.714 94.166 136.326C93.541 136.938 92.6849 137.244 91.5977 137.244C89.5599 137.244 88.3783 136.131 88.0527 133.904ZM102.623 133.66L104.107 133.885C103.86 134.992 103.411 135.828 102.76 136.395C102.115 136.954 101.314 137.234 100.357 137.234C99.153 137.234 98.1764 136.779 97.4277 135.867C96.6855 134.949 96.3145 133.628 96.3145 131.902C96.3145 130.112 96.6888 128.748 97.4375 127.811C98.1927 126.867 99.1465 126.395 100.299 126.395C101.399 126.395 102.317 126.857 103.053 127.781C103.788 128.706 104.156 130.044 104.156 131.795L104.146 132.264H97.7988C97.8574 133.429 98.1276 134.308 98.6094 134.9C99.0911 135.493 99.6771 135.789 100.367 135.789C101.448 135.789 102.2 135.079 102.623 133.66ZM97.8867 130.818H102.633C102.568 129.92 102.376 129.249 102.057 128.807C101.594 128.162 101.005 127.84 100.289 127.84C99.6445 127.84 99.0944 128.11 98.6387 128.65C98.1829 129.184 97.9323 129.907 97.8867 130.818ZM105.924 137V126.629H107.223V128.104C107.535 127.531 107.916 127.104 108.365 126.824C108.821 126.538 109.342 126.395 109.928 126.395C110.383 126.395 110.803 126.486 111.188 126.668C111.578 126.844 111.891 127.078 112.125 127.371C112.366 127.658 112.545 128.032 112.662 128.494C112.779 128.956 112.838 129.666 112.838 130.623V137H111.393V130.691C111.393 129.93 111.327 129.373 111.197 129.021C111.067 128.67 110.862 128.4 110.582 128.211C110.309 128.016 109.99 127.918 109.625 127.918C108.935 127.918 108.385 128.175 107.975 128.689C107.564 129.204 107.359 130.086 107.359 131.336V137H105.924ZM118.258 135.428L118.453 136.98C118.056 137.085 117.698 137.137 117.379 137.137C116.878 137.137 116.474 137.039 116.168 136.844C115.862 136.642 115.65 136.368 115.533 136.023C115.423 135.678 115.367 134.992 115.367 133.963V127.996H114.312V126.629H115.367V124.061L116.803 123.006V126.629H118.258V127.996H116.803V134.061C116.803 134.62 116.845 134.982 116.93 135.145C117.053 135.379 117.285 135.496 117.623 135.496C117.786 135.496 117.997 135.473 118.258 135.428ZM125.514 137H124.176V122.684H125.611V127.791C125.917 127.322 126.262 126.974 126.646 126.746C127.037 126.512 127.47 126.395 127.945 126.395C128.609 126.395 129.212 126.593 129.752 126.99C130.299 127.387 130.735 127.99 131.061 128.797C131.386 129.604 131.549 130.584 131.549 131.736C131.549 133.494 131.181 134.852 130.445 135.809C129.71 136.759 128.85 137.234 127.867 137.234C127.372 137.234 126.926 137.107 126.529 136.854C126.139 136.593 125.8 136.209 125.514 135.701V137ZM125.494 131.736C125.494 132.811 125.592 133.615 125.787 134.148C125.982 134.682 126.259 135.089 126.617 135.369C126.975 135.649 127.372 135.789 127.809 135.789C128.401 135.789 128.925 135.457 129.381 134.793C129.843 134.122 130.074 133.123 130.074 131.795C130.074 130.434 129.853 129.435 129.41 128.797C128.967 128.159 128.424 127.84 127.779 127.84C127.187 127.84 126.656 128.175 126.188 128.846C125.725 129.51 125.494 130.473 125.494 131.736ZM138.854 135.721C138.372 136.222 137.87 136.6 137.35 136.854C136.829 137.107 136.288 137.234 135.729 137.234C134.843 137.234 134.137 136.967 133.609 136.434C133.082 135.9 132.818 135.18 132.818 134.275C132.818 133.676 132.942 133.146 133.189 132.684C133.437 132.221 133.775 131.86 134.205 131.6C134.635 131.339 135.286 131.147 136.158 131.023C137.33 130.854 138.189 130.652 138.736 130.418L138.746 129.969C138.746 129.259 138.619 128.761 138.365 128.475C138.007 128.058 137.457 127.85 136.715 127.85C136.044 127.85 135.543 127.99 135.211 128.27C134.879 128.543 134.635 129.061 134.479 129.822L133.062 129.588C133.264 128.475 133.671 127.664 134.283 127.156C134.902 126.648 135.784 126.395 136.93 126.395C137.822 126.395 138.521 126.564 139.029 126.902C139.537 127.234 139.856 127.648 139.986 128.143C140.123 128.637 140.191 129.36 140.191 130.311V132.654C140.191 134.295 140.221 135.33 140.279 135.76C140.344 136.183 140.468 136.596 140.65 137H139.146C138.997 136.642 138.899 136.215 138.854 135.721ZM138.736 131.795C138.209 132.055 137.424 132.277 136.383 132.459C135.777 132.563 135.354 132.684 135.113 132.82C134.872 132.951 134.684 133.139 134.547 133.387C134.417 133.628 134.352 133.908 134.352 134.227C134.352 134.721 134.505 135.118 134.811 135.418C135.117 135.711 135.54 135.857 136.08 135.857C136.594 135.857 137.06 135.724 137.477 135.457C137.9 135.19 138.215 134.835 138.424 134.393C138.632 133.943 138.736 133.292 138.736 132.439V131.795ZM148.004 133.201L149.42 133.426C149.257 134.663 148.847 135.607 148.189 136.258C147.538 136.909 146.754 137.234 145.836 137.234C144.723 137.234 143.805 136.779 143.082 135.867C142.366 134.949 142.008 133.595 142.008 131.805C142.008 130.001 142.369 128.65 143.092 127.752C143.821 126.847 144.755 126.395 145.895 126.395C146.773 126.395 147.512 126.668 148.111 127.215C148.717 127.762 149.104 128.582 149.273 129.676L147.877 129.939C147.74 129.236 147.503 128.712 147.164 128.367C146.826 128.016 146.419 127.84 145.943 127.84C145.234 127.84 144.645 128.156 144.176 128.787C143.714 129.412 143.482 130.408 143.482 131.775C143.482 133.188 143.704 134.21 144.146 134.842C144.596 135.473 145.169 135.789 145.865 135.789C146.412 135.789 146.878 135.581 147.262 135.164C147.652 134.741 147.9 134.087 148.004 133.201ZM150.67 137V122.684H152.105V130.848L155.523 126.629H157.389L154.137 130.477L157.711 137H155.943L153.121 131.697L152.105 132.889V137H150.67ZM166.617 135.428L166.812 136.98C166.415 137.085 166.057 137.137 165.738 137.137C165.237 137.137 164.833 137.039 164.527 136.844C164.221 136.642 164.01 136.368 163.893 136.023C163.782 135.678 163.727 134.992 163.727 133.963V127.996H162.672V126.629H163.727V124.061L165.162 123.006V126.629H166.617V127.996H165.162V134.061C165.162 134.62 165.204 134.982 165.289 135.145C165.413 135.379 165.644 135.496 165.982 135.496C166.145 135.496 166.357 135.473 166.617 135.428ZM167.438 131.814C167.438 130.024 167.812 128.673 168.561 127.762C169.316 126.85 170.27 126.395 171.422 126.395C172.555 126.395 173.502 126.85 174.264 127.762C175.025 128.673 175.406 129.988 175.406 131.707C175.406 133.569 175.032 134.956 174.283 135.867C173.535 136.779 172.581 137.234 171.422 137.234C170.283 137.234 169.332 136.779 168.57 135.867C167.815 134.949 167.438 133.598 167.438 131.814ZM168.912 131.814C168.912 133.156 169.156 134.155 169.645 134.812C170.133 135.464 170.738 135.789 171.461 135.789C172.138 135.789 172.717 135.46 173.199 134.803C173.688 134.139 173.932 133.143 173.932 131.814C173.932 130.48 173.688 129.487 173.199 128.836C172.711 128.178 172.105 127.85 171.383 127.85C170.699 127.85 170.117 128.178 169.635 128.836C169.153 129.493 168.912 130.486 168.912 131.814ZM181.627 140.994L181.471 139.344C181.79 139.448 182.063 139.5 182.291 139.5C182.597 139.5 182.848 139.438 183.043 139.314C183.245 139.191 183.411 138.999 183.541 138.738C183.587 138.647 183.775 138.074 184.107 137.02L180.875 126.629H182.428L184.205 132.635C184.426 133.383 184.632 134.184 184.82 135.037C184.983 134.23 185.178 133.442 185.406 132.674L187.223 126.629H188.668L185.436 137.176C185.012 138.543 184.677 139.454 184.43 139.91C184.189 140.372 183.912 140.704 183.6 140.906C183.294 141.108 182.945 141.209 182.555 141.209C182.281 141.209 181.972 141.137 181.627 140.994ZM189.332 131.814C189.332 130.024 189.706 128.673 190.455 127.762C191.21 126.85 192.164 126.395 193.316 126.395C194.449 126.395 195.396 126.85 196.158 127.762C196.92 128.673 197.301 129.988 197.301 131.707C197.301 133.569 196.926 134.956 196.178 135.867C195.429 136.779 194.475 137.234 193.316 137.234C192.177 137.234 191.227 136.779 190.465 135.867C189.71 134.949 189.332 133.598 189.332 131.814ZM190.807 131.814C190.807 133.156 191.051 134.155 191.539 134.812C192.027 135.464 192.633 135.789 193.355 135.789C194.033 135.789 194.612 135.46 195.094 134.803C195.582 134.139 195.826 133.143 195.826 131.814C195.826 130.48 195.582 129.487 195.094 128.836C194.605 128.178 194 127.85 193.277 127.85C192.594 127.85 192.011 128.178 191.529 128.836C191.048 129.493 190.807 130.486 190.807 131.814ZM204.566 137V135.477C204.234 136.062 203.844 136.502 203.395 136.795C202.945 137.088 202.438 137.234 201.871 137.234C201.201 137.234 200.628 137.055 200.152 136.697C199.677 136.333 199.358 135.874 199.195 135.32C199.039 134.767 198.961 134.012 198.961 133.055V126.629H200.396V132.381C200.396 133.449 200.449 134.165 200.553 134.529C200.663 134.887 200.862 135.177 201.148 135.398C201.441 135.613 201.773 135.721 202.145 135.721C202.835 135.721 203.401 135.438 203.844 134.871C204.221 134.383 204.41 133.488 204.41 132.186V126.629H205.855V137H204.566ZM208.111 137V126.629H209.41V128.201C209.742 127.472 210.045 126.99 210.318 126.756C210.598 126.515 210.911 126.395 211.256 126.395C211.738 126.395 212.229 126.583 212.73 126.961L212.242 128.592C211.884 128.338 211.536 128.211 211.197 128.211C210.891 128.211 210.611 128.318 210.357 128.533C210.104 128.748 209.924 129.048 209.82 129.432C209.638 130.102 209.547 130.815 209.547 131.57V137H208.111ZM93.3555 160L90.7578 149.629H92.252L93.5996 155.615L94.0977 157.842L94.5469 155.703L95.8945 149.629H97.3789L98.6484 155.645L99.0781 157.627L99.5664 155.625L101.021 149.629H102.428L99.7617 160H98.2676L96.9102 153.789L96.5879 152.021L94.8691 160H93.3555ZM109.176 158.721C108.694 159.222 108.193 159.6 107.672 159.854C107.151 160.107 106.611 160.234 106.051 160.234C105.165 160.234 104.459 159.967 103.932 159.434C103.404 158.9 103.141 158.18 103.141 157.275C103.141 156.676 103.264 156.146 103.512 155.684C103.759 155.221 104.098 154.86 104.527 154.6C104.957 154.339 105.608 154.147 106.48 154.023C107.652 153.854 108.512 153.652 109.059 153.418L109.068 152.969C109.068 152.259 108.941 151.761 108.688 151.475C108.329 151.058 107.779 150.85 107.037 150.85C106.367 150.85 105.865 150.99 105.533 151.27C105.201 151.543 104.957 152.061 104.801 152.822L103.385 152.588C103.587 151.475 103.993 150.664 104.605 150.156C105.224 149.648 106.106 149.395 107.252 149.395C108.144 149.395 108.844 149.564 109.352 149.902C109.859 150.234 110.178 150.648 110.309 151.143C110.445 151.637 110.514 152.36 110.514 153.311V155.654C110.514 157.295 110.543 158.33 110.602 158.76C110.667 159.183 110.79 159.596 110.973 160H109.469C109.319 159.642 109.221 159.215 109.176 158.721ZM109.059 154.795C108.531 155.055 107.747 155.277 106.705 155.459C106.1 155.563 105.676 155.684 105.436 155.82C105.195 155.951 105.006 156.139 104.869 156.387C104.739 156.628 104.674 156.908 104.674 157.227C104.674 157.721 104.827 158.118 105.133 158.418C105.439 158.711 105.862 158.857 106.402 158.857C106.917 158.857 107.382 158.724 107.799 158.457C108.222 158.19 108.538 157.835 108.746 157.393C108.954 156.943 109.059 156.292 109.059 155.439V154.795ZM112.711 160V145.684H114.146V160H112.711ZM116.363 160V145.684H117.799V160H116.363ZM125.875 156.66L127.359 156.885C127.112 157.992 126.663 158.828 126.012 159.395C125.367 159.954 124.566 160.234 123.609 160.234C122.405 160.234 121.428 159.779 120.68 158.867C119.938 157.949 119.566 156.628 119.566 154.902C119.566 153.112 119.941 151.748 120.689 150.811C121.445 149.867 122.398 149.395 123.551 149.395C124.651 149.395 125.569 149.857 126.305 150.781C127.04 151.706 127.408 153.044 127.408 154.795L127.398 155.264H121.051C121.109 156.429 121.38 157.308 121.861 157.9C122.343 158.493 122.929 158.789 123.619 158.789C124.7 158.789 125.452 158.079 125.875 156.66ZM121.139 153.818H125.885C125.82 152.92 125.628 152.249 125.309 151.807C124.846 151.162 124.257 150.84 123.541 150.84C122.896 150.84 122.346 151.11 121.891 151.65C121.435 152.184 121.184 152.907 121.139 153.818ZM132.389 158.428L132.584 159.98C132.187 160.085 131.829 160.137 131.51 160.137C131.008 160.137 130.605 160.039 130.299 159.844C129.993 159.642 129.781 159.368 129.664 159.023C129.553 158.678 129.498 157.992 129.498 156.963V150.996H128.443V149.629H129.498V147.061L130.934 146.006V149.629H132.389V150.996H130.934V157.061C130.934 157.62 130.976 157.982 131.061 158.145C131.184 158.379 131.415 158.496 131.754 158.496C131.917 158.496 132.128 158.473 132.389 158.428ZM134.205 160V157.998H135.846V160H134.205Z" fill="white"/>
</svg>
