<svg width="105" height="105" viewBox="0 0 105 105" fill="none" xmlns="http://www.w3.org/2000/svg">
<rect y="58.334" width="11.6667" height="11.6667" fill="black"/>
<rect y="46.666" width="11.6667" height="11.6667" fill="black"/>
<rect y="35" width="11.6667" height="11.6667" fill="black"/>
<rect x="11.667" y="23.334" width="11.6667" height="11.6667" fill="black"/>
<rect x="23.333" y="11.666" width="11.6667" height="11.6667" fill="black"/>
<rect x="35" width="11.6667" height="11.6667" fill="black"/>
<rect x="46.667" width="11.6667" height="11.6667" fill="black"/>
<rect x="46.667" y="23.334" width="11.6667" height="11.6667" fill="white"/>
<rect x="46.667" y="35" width="11.6667" height="11.6667" fill="white"/>
<rect x="46.667" y="46.666" width="11.6667" height="11.6667" fill="white"/>
<rect x="58.333" y="46.666" width="11.6667" height="11.6667" fill="white"/>
<rect x="58.333" width="11.6667" height="11.6667" fill="black"/>
<rect x="70" y="11.666" width="11.6667" height="11.6667" fill="black"/>
<rect x="81.667" y="23.334" width="11.6667" height="11.6667" fill="black"/>
<rect x="93.333" y="35" width="11.6667" height="11.6667" fill="black"/>
<rect x="93.333" y="46.666" width="11.6667" height="11.6667" fill="black"/>
<rect x="93.333" y="58.334" width="11.6667" height="11.6667" fill="black"/>
<rect x="81.667" y="70" width="11.6667" height="11.6667" fill="black"/>
<rect x="70" y="81.666" width="11.6667" height="11.6667" fill="black"/>
<rect x="58.333" y="93.334" width="11.6667" height="11.6667" fill="black"/>
<rect x="46.667" y="93.334" width="11.6667" height="11.6667" fill="black"/>
<rect x="35" y="93.334" width="11.6667" height="11.6667" fill="black"/>
<rect x="23.333" y="81.666" width="11.6667" height="11.6667" fill="black"/>
<rect x="11.667" y="70" width="11.6667" height="11.6667" fill="black"/>
</svg>
