<svg width="39" height="39" viewBox="0 0 39 39" fill="none" xmlns="http://www.w3.org/2000/svg">
<rect y="21.666" width="4.33333" height="4.33333" fill="black"/>
<rect y="17.334" width="4.33333" height="4.33333" fill="black"/>
<rect y="13" width="4.33333" height="4.33333" fill="black"/>
<rect x="4.33398" y="8.66602" width="4.33333" height="4.33333" fill="black"/>
<rect x="8.66602" y="4.33398" width="4.33333" height="4.33333" fill="black"/>
<rect x="13" width="4.33333" height="4.33333" fill="black"/>
<rect x="17.334" width="4.33333" height="4.33333" fill="black"/>
<rect x="17.334" y="8.66602" width="4.33333" height="4.33333" fill="black"/>
<rect x="17.334" y="13" width="4.33333" height="4.33333" fill="black"/>
<rect x="17.334" y="17.334" width="4.33333" height="4.33333" fill="black"/>
<rect x="21.666" y="17.334" width="4.33333" height="4.33333" fill="black"/>
<rect x="21.666" width="4.33333" height="4.33333" fill="black"/>
<rect x="26" y="4.33398" width="4.33333" height="4.33333" fill="black"/>
<rect x="30.334" y="8.66602" width="4.33333" height="4.33333" fill="black"/>
<rect x="34.666" y="13" width="4.33333" height="4.33333" fill="black"/>
<rect x="34.666" y="17.334" width="4.33333" height="4.33333" fill="black"/>
<rect x="34.666" y="21.666" width="4.33333" height="4.33333" fill="black"/>
<rect x="30.334" y="26" width="4.33333" height="4.33333" fill="black"/>
<rect x="26" y="30.334" width="4.33333" height="4.33333" fill="black"/>
<rect x="21.666" y="34.666" width="4.33333" height="4.33333" fill="black"/>
<rect x="17.334" y="34.666" width="4.33333" height="4.33333" fill="black"/>
<rect x="13" y="34.666" width="4.33333" height="4.33333" fill="black"/>
<rect x="8.66602" y="30.334" width="4.33333" height="4.33333" fill="black"/>
<rect x="4.33398" y="26" width="4.33333" height="4.33333" fill="black"/>
</svg>
