<svg width="325" height="340" viewBox="0 0 325 340" fill="none" xmlns="http://www.w3.org/2000/svg">
<rect x="140" y="104.667" width="15.4167" height="15.3333" fill="#DB0F0F"/>
<rect x="125" y="90" width="15.4167" height="15.3333" fill="#DB0F0F"/>
<rect x="110" y="75" width="15.4167" height="15.3333" fill="#DB0F0F"/>
<rect x="95" y="60" width="15.4167" height="15.3333" fill="#DB0F0F"/>
<rect x="95" y="45" width="15.4167" height="15.3333" fill="#DB0F0F"/>
<rect x="95" y="30" width="15.4167" height="15.3333" fill="#DB0F0F"/>
<rect x="110" y="15" width="15.4167" height="15.3333" fill="#DB0F0F"/>
<rect x="125" width="15.4167" height="15.3333" fill="#DB0F0F"/>
<rect x="140" y="15" width="15.4167" height="15.3333" fill="#DB0F0F"/>
<rect x="125" y="45" width="15.4167" height="15.3333" fill="#DB0F0F"/>
<rect x="140" y="60" width="15.4167" height="15.3333" fill="#DB0F0F"/>
<rect x="155" y="30" width="15.4167" height="15.3333" fill="#DB0F0F"/>
<rect x="155" y="120" width="15.4167" height="15.3333" fill="#DB0F0F"/>
<rect x="170" y="15" width="15.4167" height="15.3333" fill="#DB0F0F"/>
<rect x="185" width="15.4167" height="15.3333" fill="#DB0F0F"/>
<rect x="200" y="15" width="15.4167" height="15.3333" fill="#DB0F0F"/>
<rect x="215" y="30" width="15.4167" height="15.3333" fill="#DB0F0F"/>
<rect x="215" y="45" width="15.4167" height="15.3333" fill="#DB0F0F"/>
<rect x="215" y="60" width="15.4167" height="15.3333" fill="#DB0F0F"/>
<rect x="200" y="75" width="15.4167" height="15.3333" fill="#DB0F0F"/>
<rect x="185" y="90" width="15.4167" height="15.3333" fill="#DB0F0F"/>
<rect x="170" y="105" width="15.4167" height="15.3333" fill="#DB0F0F"/>
<path d="M166 83C172.314 75.1069 183.426 69.1486 193 66.5556C195.244 65.9479 212.204 61.779 211.333 68.1112C210.306 75.5797 203.109 81.9405 196.889 85.3334C196.121 85.752 190.289 87.0751 193.111 86C204.285 81.7434 214.267 93.1989 209.889 104.222C204.267 118.378 183.703 128.895 171 135.222C163.664 138.876 155.918 141.173 148 143" stroke="white" stroke-width="10" stroke-linecap="round"/>
<path d="M90.3125 214.961L91.8652 215.225C91.3704 216.904 90.6445 218.161 89.6875 218.994C88.737 219.827 87.6953 220.244 86.5625 220.244C85.1758 220.244 84.0527 219.727 83.1934 218.691C82.3405 217.656 81.9141 216.126 81.9141 214.102C81.9141 211.738 82.4512 209.74 83.5254 208.105C84.6908 206.328 86.1979 205.439 88.0469 205.439C89.2318 205.439 90.2214 205.833 91.0156 206.621C91.8164 207.409 92.2786 208.516 92.4023 209.941L90.9375 210.107C90.6315 208.05 89.6875 207.021 88.1055 207.021C86.7253 207.021 85.6087 207.728 84.7559 209.141C83.903 210.547 83.4766 212.214 83.4766 214.141C83.4766 215.638 83.7793 216.768 84.3848 217.529C84.9902 218.285 85.7552 218.662 86.6797 218.662C87.474 218.662 88.1706 218.376 88.7695 217.803C89.5052 217.1 90.0195 216.152 90.3125 214.961ZM93.7695 214.004C93.7695 211.38 94.4238 209.251 95.7324 207.617C96.8978 206.165 98.3171 205.439 99.9902 205.439C101.396 205.439 102.572 206.006 103.516 207.139C104.466 208.271 104.941 209.847 104.941 211.865C104.941 213.486 104.632 214.958 104.014 216.279C103.395 217.594 102.614 218.584 101.67 219.248C100.726 219.912 99.7331 220.244 98.6914 220.244C97.7865 220.244 96.9694 220.003 96.2402 219.521C95.5176 219.04 94.9251 218.311 94.4629 217.334C94.0007 216.357 93.7695 215.247 93.7695 214.004ZM95.3125 214.102C95.3125 215.488 95.6576 216.595 96.3477 217.422C97.0378 218.249 97.8548 218.662 98.7988 218.662C99.515 218.662 100.218 218.398 100.908 217.871C101.605 217.344 102.191 216.517 102.666 215.391C103.141 214.258 103.379 213.024 103.379 211.689C103.379 210.244 103.04 209.108 102.363 208.281C101.693 207.448 100.879 207.031 99.9219 207.031C98.8151 207.031 97.819 207.575 96.9336 208.662C95.8529 209.997 95.3125 211.81 95.3125 214.102ZM105.762 220L108.213 205.684H110.137L111.328 214.961C111.484 216.191 111.585 217.36 111.631 218.467C111.963 217.497 112.507 216.191 113.262 214.551L117.383 205.684H119.346L116.895 220H115.352L116.572 213.037C116.859 211.423 117.266 209.619 117.793 207.627C117.454 208.558 117.035 209.561 116.533 210.635L112.168 220H110.654L109.473 210.82C109.368 210.013 109.29 209.033 109.238 207.881C109.115 209.098 108.988 210.094 108.857 210.869L107.285 220H105.762ZM119.434 220L121.885 205.684H123.809L125 214.961C125.156 216.191 125.257 217.36 125.303 218.467C125.635 217.497 126.178 216.191 126.934 214.551L131.055 205.684H133.018L130.566 220H129.023L130.244 213.037C130.531 211.423 130.938 209.619 131.465 207.627C131.126 208.558 130.706 209.561 130.205 210.635L125.84 220H124.326L123.145 210.82C123.04 210.013 122.962 209.033 122.91 207.881C122.786 209.098 122.66 210.094 122.529 210.869L120.957 220H119.434ZM133.32 220L135.771 205.684H137.344L134.893 220H133.32ZM138.115 215.371L139.648 215.195L139.639 215.674C139.639 216.312 139.769 216.878 140.029 217.373C140.225 217.751 140.553 218.06 141.016 218.301C141.484 218.535 142.041 218.652 142.686 218.652C143.577 218.652 144.284 218.418 144.805 217.949C145.326 217.474 145.586 216.885 145.586 216.182C145.586 215.687 145.439 215.257 145.146 214.893C144.847 214.535 144.134 214.059 143.008 213.467C142.135 213.005 141.543 212.656 141.23 212.422C140.664 211.999 140.244 211.533 139.971 211.025C139.704 210.511 139.57 209.925 139.57 209.268C139.57 208.122 139.935 207.197 140.664 206.494C141.4 205.791 142.406 205.439 143.682 205.439C144.561 205.439 145.312 205.605 145.938 205.938C146.562 206.27 147.057 206.755 147.422 207.393C147.793 208.031 147.979 208.714 147.979 209.443L147.969 209.746L146.445 209.893L146.455 209.57C146.455 209.108 146.338 208.678 146.104 208.281C145.876 207.884 145.547 207.578 145.117 207.363C144.688 207.142 144.193 207.031 143.633 207.031C142.832 207.031 142.207 207.227 141.758 207.617C141.315 208.008 141.094 208.522 141.094 209.16C141.094 209.74 141.263 210.186 141.602 210.498C141.94 210.811 142.773 211.325 144.102 212.041C145.072 212.568 145.729 212.998 146.074 213.33C146.426 213.656 146.696 214.049 146.885 214.512C147.08 214.967 147.178 215.482 147.178 216.055C147.178 217.253 146.758 218.252 145.918 219.053C145.078 219.847 143.978 220.244 142.617 220.244C141.146 220.244 140.029 219.854 139.268 219.072C138.506 218.285 138.122 217.051 138.115 215.371ZM149.053 215.371L150.586 215.195L150.576 215.674C150.576 216.312 150.706 216.878 150.967 217.373C151.162 217.751 151.491 218.06 151.953 218.301C152.422 218.535 152.979 218.652 153.623 218.652C154.515 218.652 155.221 218.418 155.742 217.949C156.263 217.474 156.523 216.885 156.523 216.182C156.523 215.687 156.377 215.257 156.084 214.893C155.785 214.535 155.072 214.059 153.945 213.467C153.073 213.005 152.48 212.656 152.168 212.422C151.602 211.999 151.182 211.533 150.908 211.025C150.641 210.511 150.508 209.925 150.508 209.268C150.508 208.122 150.872 207.197 151.602 206.494C152.337 205.791 153.343 205.439 154.619 205.439C155.498 205.439 156.25 205.605 156.875 205.938C157.5 206.27 157.995 206.755 158.359 207.393C158.73 208.031 158.916 208.714 158.916 209.443L158.906 209.746L157.383 209.893L157.393 209.57C157.393 209.108 157.275 208.678 157.041 208.281C156.813 207.884 156.484 207.578 156.055 207.363C155.625 207.142 155.13 207.031 154.57 207.031C153.77 207.031 153.145 207.227 152.695 207.617C152.253 208.008 152.031 208.522 152.031 209.16C152.031 209.74 152.201 210.186 152.539 210.498C152.878 210.811 153.711 211.325 155.039 212.041C156.009 212.568 156.667 212.998 157.012 213.33C157.363 213.656 157.633 214.049 157.822 214.512C158.018 214.967 158.115 215.482 158.115 216.055C158.115 217.253 157.695 218.252 156.855 219.053C156.016 219.847 154.915 220.244 153.555 220.244C152.083 220.244 150.967 219.854 150.205 219.072C149.443 218.285 149.059 217.051 149.053 215.371ZM159.766 220L162.217 205.684H163.789L161.338 220H159.766ZM164.902 214.004C164.902 211.38 165.557 209.251 166.865 207.617C168.031 206.165 169.45 205.439 171.123 205.439C172.529 205.439 173.704 206.006 174.648 207.139C175.599 208.271 176.074 209.847 176.074 211.865C176.074 213.486 175.765 214.958 175.146 216.279C174.528 217.594 173.747 218.584 172.803 219.248C171.859 219.912 170.866 220.244 169.824 220.244C168.919 220.244 168.102 220.003 167.373 219.521C166.65 219.04 166.058 218.311 165.596 217.334C165.133 216.357 164.902 215.247 164.902 214.004ZM166.445 214.102C166.445 215.488 166.79 216.595 167.48 217.422C168.171 218.249 168.988 218.662 169.932 218.662C170.648 218.662 171.351 218.398 172.041 217.871C172.738 217.344 173.324 216.517 173.799 215.391C174.274 214.258 174.512 213.024 174.512 211.689C174.512 210.244 174.173 209.108 173.496 208.281C172.826 207.448 172.012 207.031 171.055 207.031C169.948 207.031 168.952 207.575 168.066 208.662C166.986 209.997 166.445 211.81 166.445 214.102ZM176.963 220L179.414 205.684H180.947L182.92 211.055C183.506 212.637 183.965 213.962 184.297 215.029C184.531 215.765 184.785 216.699 185.059 217.832C185.208 216.602 185.391 215.358 185.605 214.102L187.051 205.684H188.574L186.123 220H184.57L181.65 211.729C181.136 210.257 180.732 208.971 180.439 207.871C180.368 208.802 180.215 209.945 179.98 211.299L178.486 220H176.963ZM188.945 220L191.396 205.684H192.969L190.518 220H188.945ZM193.369 220L195.82 205.684H197.354L199.326 211.055C199.912 212.637 200.371 213.962 200.703 215.029C200.938 215.765 201.191 216.699 201.465 217.832C201.615 216.602 201.797 215.358 202.012 214.102L203.457 205.684H204.98L202.529 220H200.977L198.057 211.729C197.542 210.257 197.139 208.971 196.846 207.871C196.774 208.802 196.621 209.945 196.387 211.299L194.893 220H193.369ZM211.133 214.355L211.406 212.734H216.553L215.557 218.564C214.88 219.085 214.124 219.495 213.291 219.795C212.464 220.094 211.667 220.244 210.898 220.244C209.238 220.244 208.008 219.681 207.207 218.555C206.406 217.422 206.006 215.993 206.006 214.268C206.006 212.529 206.322 210.957 206.953 209.551C207.585 208.138 208.372 207.1 209.316 206.436C210.26 205.771 211.305 205.439 212.451 205.439C213.812 205.439 214.915 205.911 215.762 206.855C216.361 207.526 216.768 208.532 216.982 209.873L215.439 210.078C215.27 209.062 214.919 208.301 214.385 207.793C213.857 207.285 213.193 207.031 212.393 207.031C211.572 207.031 210.798 207.301 210.068 207.842C209.346 208.382 208.753 209.215 208.291 210.342C207.829 211.468 207.598 212.786 207.598 214.297C207.598 215.781 207.897 216.882 208.496 217.598C209.095 218.307 209.893 218.662 210.889 218.662C211.904 218.662 213.001 218.252 214.18 217.432L214.707 214.355H211.133ZM222.656 216.25L224.072 216.035C224.176 217.057 224.414 217.78 224.785 218.203C225.156 218.626 225.632 218.838 226.211 218.838C226.895 218.838 227.503 218.535 228.037 217.93C228.577 217.324 228.848 216.605 228.848 215.771C228.848 215.023 228.646 214.427 228.242 213.984C227.839 213.542 227.321 213.32 226.689 213.32C226.611 213.32 226.458 213.333 226.23 213.359L226.475 211.885C226.611 211.911 226.745 211.924 226.875 211.924C227.656 211.924 228.281 211.689 228.75 211.221C229.219 210.745 229.453 210.127 229.453 209.365C229.453 208.688 229.264 208.132 228.887 207.695C228.509 207.259 228.076 207.041 227.588 207.041C227.067 207.041 226.595 207.269 226.172 207.725C225.755 208.174 225.488 208.825 225.371 209.678L223.945 209.326C224.186 208.115 224.645 207.197 225.322 206.572C226.006 205.941 226.787 205.625 227.666 205.625C228.584 205.625 229.352 205.967 229.971 206.65C230.589 207.334 230.898 208.223 230.898 209.316C230.898 210.065 230.736 210.723 230.41 211.289C230.091 211.849 229.606 212.314 228.955 212.686C229.411 213.018 229.753 213.424 229.98 213.906C230.208 214.382 230.322 214.928 230.322 215.547C230.322 216.855 229.919 217.965 229.111 218.877C228.304 219.788 227.373 220.244 226.318 220.244C225.309 220.244 224.466 219.896 223.789 219.199C223.112 218.503 222.734 217.52 222.656 216.25ZM231.826 220L232.168 217.998H233.809L233.467 220H231.826ZM236.611 215.303C236.611 213.499 236.901 211.758 237.48 210.078C238.06 208.392 238.76 207.184 239.58 206.455C240.199 205.902 240.863 205.625 241.572 205.625C242.451 205.625 243.197 206.025 243.809 206.826C244.421 207.62 244.727 208.796 244.727 210.352C244.727 211.888 244.531 213.408 244.141 214.912C243.646 216.82 242.949 218.245 242.051 219.189C241.38 219.893 240.612 220.244 239.746 220.244C238.887 220.244 238.148 219.831 237.529 219.004C236.917 218.171 236.611 216.937 236.611 215.303ZM238.018 215.752C238.018 216.82 238.187 217.601 238.525 218.096C238.87 218.59 239.303 218.838 239.824 218.838C240.365 218.838 240.85 218.561 241.279 218.008C241.995 217.096 242.52 215.781 242.852 214.062C243.184 212.344 243.35 210.97 243.35 209.941C243.35 208.906 243.184 208.164 242.852 207.715C242.526 207.266 242.1 207.041 241.572 207.041C240.999 207.041 240.492 207.314 240.049 207.861C239.424 208.643 238.929 209.915 238.564 211.68C238.2 213.438 238.018 214.795 238.018 215.752ZM12.793 266V251.684H17.2168C18.2585 251.684 19.0267 251.775 19.5215 251.957C20.1986 252.204 20.7389 252.663 21.1426 253.334C21.5462 254.005 21.748 254.828 21.748 255.805C21.748 257.094 21.4193 258.145 20.7617 258.959C20.1042 259.773 18.9681 260.18 17.3535 260.18H14.3457V266H12.793ZM14.3457 258.49H17.3828C18.3398 258.49 19.0397 258.275 19.4824 257.846C19.9251 257.41 20.1465 256.755 20.1465 255.883C20.1465 255.316 20.0358 254.831 19.8145 254.428C19.5996 254.024 19.3359 253.747 19.0234 253.598C18.7174 253.448 18.1608 253.373 17.3535 253.373H14.3457V258.49ZM22.5781 266L25.6836 260.609L22.8125 255.629H24.6094L25.918 258.061C26.1589 258.51 26.3574 258.897 26.5137 259.223C26.7546 258.78 26.9694 258.399 27.1582 258.08L28.5938 255.629H30.3125L27.373 260.512L30.5371 266H28.7695L27.0215 262.777L26.5625 261.908L24.3262 266H22.5781ZM31.6797 266V251.684H33.1152V266H31.6797ZM34.8242 262.904L36.25 262.631C36.3346 263.36 36.5658 263.904 36.9434 264.262C37.321 264.613 37.8223 264.789 38.4473 264.789C39.0723 264.789 39.554 264.636 39.8926 264.33C40.2376 264.018 40.4102 263.624 40.4102 263.148C40.4102 262.738 40.2637 262.419 39.9707 262.191C39.7689 262.035 39.2806 261.84 38.5059 261.605C37.3861 261.26 36.6374 260.967 36.2598 260.727C35.8822 260.486 35.5892 260.163 35.3809 259.76C35.1725 259.356 35.0684 258.897 35.0684 258.383C35.0684 257.497 35.3516 256.778 35.918 256.225C36.4844 255.671 37.2689 255.395 38.2715 255.395C38.903 255.395 39.4564 255.508 39.9316 255.736C40.4134 255.964 40.7812 256.27 41.0352 256.654C41.2891 257.038 41.4648 257.589 41.5625 258.305L40.1562 258.539C40.026 257.406 39.4108 256.84 38.3105 256.84C37.6855 256.84 37.2201 256.967 36.9141 257.221C36.6081 257.468 36.4551 257.787 36.4551 258.178C36.4551 258.562 36.6016 258.865 36.8945 259.086C37.0703 259.216 37.5911 259.424 38.457 259.711C39.6484 260.095 40.4199 260.401 40.7715 260.629C41.123 260.85 41.3965 261.156 41.5918 261.547C41.7871 261.931 41.8848 262.39 41.8848 262.924C41.8848 263.913 41.569 264.714 40.9375 265.326C40.3125 265.938 39.4564 266.244 38.3691 266.244C36.3314 266.244 35.1497 265.131 34.8242 262.904ZM48.1445 253.705V251.684H49.5801V253.705H48.1445ZM48.1445 266V255.629H49.5801V266H48.1445ZM51.25 262.904L52.6758 262.631C52.7604 263.36 52.9915 263.904 53.3691 264.262C53.7467 264.613 54.248 264.789 54.873 264.789C55.498 264.789 55.9798 264.636 56.3184 264.33C56.6634 264.018 56.8359 263.624 56.8359 263.148C56.8359 262.738 56.6895 262.419 56.3965 262.191C56.1947 262.035 55.7064 261.84 54.9316 261.605C53.8118 261.26 53.0632 260.967 52.6855 260.727C52.3079 260.486 52.015 260.163 51.8066 259.76C51.5983 259.356 51.4941 258.897 51.4941 258.383C51.4941 257.497 51.7773 256.778 52.3438 256.225C52.9102 255.671 53.6947 255.395 54.6973 255.395C55.3288 255.395 55.8822 255.508 56.3574 255.736C56.8392 255.964 57.207 256.27 57.4609 256.654C57.7148 257.038 57.8906 257.589 57.9883 258.305L56.582 258.539C56.4518 257.406 55.8366 256.84 54.7363 256.84C54.1113 256.84 53.6458 256.967 53.3398 257.221C53.0339 257.468 52.8809 257.787 52.8809 258.178C52.8809 258.562 53.0273 258.865 53.3203 259.086C53.4961 259.216 54.0169 259.424 54.8828 259.711C56.0742 260.095 56.8457 260.401 57.1973 260.629C57.5488 260.85 57.8223 261.156 58.0176 261.547C58.2129 261.931 58.3105 262.39 58.3105 262.924C58.3105 263.913 57.9948 264.714 57.3633 265.326C56.7383 265.938 55.8822 266.244 54.7949 266.244C52.7572 266.244 51.5755 265.131 51.25 262.904ZM70.1172 264.721C69.6354 265.222 69.1341 265.6 68.6133 265.854C68.0924 266.107 67.5521 266.234 66.9922 266.234C66.1068 266.234 65.4004 265.967 64.873 265.434C64.3457 264.9 64.082 264.18 64.082 263.275C64.082 262.676 64.2057 262.146 64.4531 261.684C64.7005 261.221 65.0391 260.86 65.4688 260.6C65.8984 260.339 66.5495 260.147 67.4219 260.023C68.5938 259.854 69.4531 259.652 70 259.418L70.0098 258.969C70.0098 258.259 69.8828 257.761 69.6289 257.475C69.2708 257.058 68.7207 256.85 67.9785 256.85C67.3079 256.85 66.8066 256.99 66.4746 257.27C66.1426 257.543 65.8984 258.061 65.7422 258.822L64.3262 258.588C64.528 257.475 64.9349 256.664 65.5469 256.156C66.1654 255.648 67.0475 255.395 68.1934 255.395C69.0853 255.395 69.7852 255.564 70.293 255.902C70.8008 256.234 71.1198 256.648 71.25 257.143C71.3867 257.637 71.4551 258.36 71.4551 259.311V261.654C71.4551 263.295 71.4844 264.33 71.543 264.76C71.6081 265.183 71.7318 265.596 71.9141 266H70.4102C70.2604 265.642 70.1628 265.215 70.1172 264.721ZM70 260.795C69.4727 261.055 68.6882 261.277 67.6465 261.459C67.041 261.563 66.6178 261.684 66.377 261.82C66.1361 261.951 65.9473 262.139 65.8105 262.387C65.6803 262.628 65.6152 262.908 65.6152 263.227C65.6152 263.721 65.7682 264.118 66.0742 264.418C66.3802 264.711 66.8034 264.857 67.3438 264.857C67.8581 264.857 68.3236 264.724 68.7402 264.457C69.1634 264.19 69.4792 263.835 69.6875 263.393C69.8958 262.943 70 262.292 70 261.439V260.795ZM79.5898 266H78.252V251.684H79.6875V256.791C79.9935 256.322 80.3385 255.974 80.7227 255.746C81.1133 255.512 81.5462 255.395 82.0215 255.395C82.6855 255.395 83.2878 255.593 83.8281 255.99C84.375 256.387 84.8112 256.99 85.1367 257.797C85.4622 258.604 85.625 259.584 85.625 260.736C85.625 262.494 85.2572 263.852 84.5215 264.809C83.7858 265.759 82.9264 266.234 81.9434 266.234C81.4486 266.234 81.0026 266.107 80.6055 265.854C80.2148 265.593 79.8763 265.209 79.5898 264.701V266ZM79.5703 260.736C79.5703 261.811 79.668 262.615 79.8633 263.148C80.0586 263.682 80.3353 264.089 80.6934 264.369C81.0514 264.649 81.4486 264.789 81.8848 264.789C82.4772 264.789 83.0013 264.457 83.457 263.793C83.9193 263.122 84.1504 262.123 84.1504 260.795C84.1504 259.434 83.929 258.435 83.4863 257.797C83.0436 257.159 82.5 256.84 81.8555 256.84C81.263 256.84 80.7324 257.175 80.2637 257.846C79.8014 258.51 79.5703 259.473 79.5703 260.736ZM87.3438 266V251.684H88.7793V266H87.3438ZM90.498 260.814C90.498 259.024 90.8724 257.673 91.6211 256.762C92.3763 255.85 93.3301 255.395 94.4824 255.395C95.6152 255.395 96.5625 255.85 97.3242 256.762C98.0859 257.673 98.4668 258.988 98.4668 260.707C98.4668 262.569 98.0924 263.956 97.3438 264.867C96.5951 265.779 95.6413 266.234 94.4824 266.234C93.3431 266.234 92.3926 265.779 91.6309 264.867C90.8757 263.949 90.498 262.598 90.498 260.814ZM91.9727 260.814C91.9727 262.156 92.2168 263.155 92.7051 263.812C93.1934 264.464 93.7988 264.789 94.5215 264.789C95.1986 264.789 95.778 264.46 96.2598 263.803C96.748 263.139 96.9922 262.143 96.9922 260.814C96.9922 259.48 96.748 258.487 96.2598 257.836C95.7715 257.178 95.166 256.85 94.4434 256.85C93.7598 256.85 93.1771 257.178 92.6953 257.836C92.2135 258.493 91.9727 259.486 91.9727 260.814ZM105.732 262.201L107.148 262.426C106.986 263.663 106.576 264.607 105.918 265.258C105.267 265.909 104.482 266.234 103.564 266.234C102.451 266.234 101.533 265.779 100.811 264.867C100.094 263.949 99.7363 262.595 99.7363 260.805C99.7363 259.001 100.098 257.65 100.82 256.752C101.549 255.847 102.484 255.395 103.623 255.395C104.502 255.395 105.241 255.668 105.84 256.215C106.445 256.762 106.833 257.582 107.002 258.676L105.605 258.939C105.469 258.236 105.231 257.712 104.893 257.367C104.554 257.016 104.147 256.84 103.672 256.84C102.962 256.84 102.373 257.156 101.904 257.787C101.442 258.412 101.211 259.408 101.211 260.775C101.211 262.188 101.432 263.21 101.875 263.842C102.324 264.473 102.897 264.789 103.594 264.789C104.141 264.789 104.606 264.581 104.99 264.164C105.381 263.741 105.628 263.087 105.732 262.201ZM108.398 266V251.684H109.834V259.848L113.252 255.629H115.117L111.865 259.477L115.439 266H113.672L110.85 260.697L109.834 261.889V266H108.398ZM122.139 262.201L123.555 262.426C123.392 263.663 122.982 264.607 122.324 265.258C121.673 265.909 120.889 266.234 119.971 266.234C118.857 266.234 117.939 265.779 117.217 264.867C116.501 263.949 116.143 262.595 116.143 260.805C116.143 259.001 116.504 257.65 117.227 256.752C117.956 255.847 118.89 255.395 120.029 255.395C120.908 255.395 121.647 255.668 122.246 256.215C122.852 256.762 123.239 257.582 123.408 258.676L122.012 258.939C121.875 258.236 121.637 257.712 121.299 257.367C120.96 257.016 120.553 256.84 120.078 256.84C119.368 256.84 118.779 257.156 118.311 257.787C117.848 258.412 117.617 259.408 117.617 260.775C117.617 262.188 117.839 263.21 118.281 263.842C118.73 264.473 119.303 264.789 120 264.789C120.547 264.789 121.012 264.581 121.396 264.164C121.787 263.741 122.035 263.087 122.139 262.201ZM124.766 266V251.684H126.201V256.82C126.54 256.345 126.921 255.99 127.344 255.756C127.773 255.515 128.245 255.395 128.76 255.395C129.665 255.395 130.378 255.684 130.898 256.264C131.426 256.837 131.689 257.891 131.689 259.428V266H130.254V259.428C130.254 258.529 130.094 257.885 129.775 257.494C129.456 257.104 129.017 256.908 128.457 256.908C127.832 256.908 127.298 257.159 126.855 257.66C126.419 258.161 126.201 259.05 126.201 260.326V266H124.766ZM139.434 264.721C138.952 265.222 138.451 265.6 137.93 265.854C137.409 266.107 136.868 266.234 136.309 266.234C135.423 266.234 134.717 265.967 134.189 265.434C133.662 264.9 133.398 264.18 133.398 263.275C133.398 262.676 133.522 262.146 133.77 261.684C134.017 261.221 134.355 260.86 134.785 260.6C135.215 260.339 135.866 260.147 136.738 260.023C137.91 259.854 138.77 259.652 139.316 259.418L139.326 258.969C139.326 258.259 139.199 257.761 138.945 257.475C138.587 257.058 138.037 256.85 137.295 256.85C136.624 256.85 136.123 256.99 135.791 257.27C135.459 257.543 135.215 258.061 135.059 258.822L133.643 258.588C133.844 257.475 134.251 256.664 134.863 256.156C135.482 255.648 136.364 255.395 137.51 255.395C138.402 255.395 139.102 255.564 139.609 255.902C140.117 256.234 140.436 256.648 140.566 257.143C140.703 257.637 140.771 258.36 140.771 259.311V261.654C140.771 263.295 140.801 264.33 140.859 264.76C140.924 265.183 141.048 265.596 141.23 266H139.727C139.577 265.642 139.479 265.215 139.434 264.721ZM139.316 260.795C138.789 261.055 138.005 261.277 136.963 261.459C136.357 261.563 135.934 261.684 135.693 261.82C135.452 261.951 135.264 262.139 135.127 262.387C134.997 262.628 134.932 262.908 134.932 263.227C134.932 263.721 135.085 264.118 135.391 264.418C135.697 264.711 136.12 264.857 136.66 264.857C137.174 264.857 137.64 264.724 138.057 264.457C138.48 264.19 138.796 263.835 139.004 263.393C139.212 262.943 139.316 262.292 139.316 261.439V260.795ZM143.008 253.705V251.684H144.443V253.705H143.008ZM143.008 266V255.629H144.443V266H143.008ZM146.66 266V255.629H147.959V257.104C148.271 256.531 148.652 256.104 149.102 255.824C149.557 255.538 150.078 255.395 150.664 255.395C151.12 255.395 151.54 255.486 151.924 255.668C152.314 255.844 152.627 256.078 152.861 256.371C153.102 256.658 153.281 257.032 153.398 257.494C153.516 257.956 153.574 258.666 153.574 259.623V266H152.129V259.691C152.129 258.93 152.064 258.373 151.934 258.021C151.803 257.67 151.598 257.4 151.318 257.211C151.045 257.016 150.726 256.918 150.361 256.918C149.671 256.918 149.121 257.175 148.711 257.689C148.301 258.204 148.096 259.086 148.096 260.336V266H146.66ZM165.928 262.201L167.344 262.426C167.181 263.663 166.771 264.607 166.113 265.258C165.462 265.909 164.678 266.234 163.76 266.234C162.646 266.234 161.729 265.779 161.006 264.867C160.29 263.949 159.932 262.595 159.932 260.805C159.932 259.001 160.293 257.65 161.016 256.752C161.745 255.847 162.679 255.395 163.818 255.395C164.697 255.395 165.436 255.668 166.035 256.215C166.641 256.762 167.028 257.582 167.197 258.676L165.801 258.939C165.664 258.236 165.426 257.712 165.088 257.367C164.749 257.016 164.342 256.84 163.867 256.84C163.158 256.84 162.568 257.156 162.1 257.787C161.637 258.412 161.406 259.408 161.406 260.775C161.406 262.188 161.628 263.21 162.07 263.842C162.52 264.473 163.092 264.789 163.789 264.789C164.336 264.789 164.801 264.581 165.186 264.164C165.576 263.741 165.824 263.087 165.928 262.201ZM168.018 260.814C168.018 259.024 168.392 257.673 169.141 256.762C169.896 255.85 170.85 255.395 172.002 255.395C173.135 255.395 174.082 255.85 174.844 256.762C175.605 257.673 175.986 258.988 175.986 260.707C175.986 262.569 175.612 263.956 174.863 264.867C174.115 265.779 173.161 266.234 172.002 266.234C170.863 266.234 169.912 265.779 169.15 264.867C168.395 263.949 168.018 262.598 168.018 260.814ZM169.492 260.814C169.492 262.156 169.736 263.155 170.225 263.812C170.713 264.464 171.318 264.789 172.041 264.789C172.718 264.789 173.298 264.46 173.779 263.803C174.268 263.139 174.512 262.143 174.512 260.814C174.512 259.48 174.268 258.487 173.779 257.836C173.291 257.178 172.686 256.85 171.963 256.85C171.279 256.85 170.697 257.178 170.215 257.836C169.733 258.493 169.492 259.486 169.492 260.814ZM177.637 266V251.684H179.072V266H177.637ZM181.289 266V251.684H182.725V266H181.289ZM190.527 264.721C190.046 265.222 189.544 265.6 189.023 265.854C188.503 266.107 187.962 266.234 187.402 266.234C186.517 266.234 185.811 265.967 185.283 265.434C184.756 264.9 184.492 264.18 184.492 263.275C184.492 262.676 184.616 262.146 184.863 261.684C185.111 261.221 185.449 260.86 185.879 260.6C186.309 260.339 186.96 260.147 187.832 260.023C189.004 259.854 189.863 259.652 190.41 259.418L190.42 258.969C190.42 258.259 190.293 257.761 190.039 257.475C189.681 257.058 189.131 256.85 188.389 256.85C187.718 256.85 187.217 256.99 186.885 257.27C186.553 257.543 186.309 258.061 186.152 258.822L184.736 258.588C184.938 257.475 185.345 256.664 185.957 256.156C186.576 255.648 187.458 255.395 188.604 255.395C189.495 255.395 190.195 255.564 190.703 255.902C191.211 256.234 191.53 256.648 191.66 257.143C191.797 257.637 191.865 258.36 191.865 259.311V261.654C191.865 263.295 191.895 264.33 191.953 264.76C192.018 265.183 192.142 265.596 192.324 266H190.82C190.671 265.642 190.573 265.215 190.527 264.721ZM190.41 260.795C189.883 261.055 189.098 261.277 188.057 261.459C187.451 261.563 187.028 261.684 186.787 261.82C186.546 261.951 186.357 262.139 186.221 262.387C186.09 262.628 186.025 262.908 186.025 263.227C186.025 263.721 186.178 264.118 186.484 264.418C186.79 264.711 187.214 264.857 187.754 264.857C188.268 264.857 188.734 264.724 189.15 264.457C189.574 264.19 189.889 263.835 190.098 263.393C190.306 262.943 190.41 262.292 190.41 261.439V260.795ZM195.43 266H194.092V251.684H195.527V256.791C195.833 256.322 196.178 255.974 196.562 255.746C196.953 255.512 197.386 255.395 197.861 255.395C198.525 255.395 199.128 255.593 199.668 255.99C200.215 256.387 200.651 256.99 200.977 257.797C201.302 258.604 201.465 259.584 201.465 260.736C201.465 262.494 201.097 263.852 200.361 264.809C199.626 265.759 198.766 266.234 197.783 266.234C197.288 266.234 196.842 266.107 196.445 265.854C196.055 265.593 195.716 265.209 195.43 264.701V266ZM195.41 260.736C195.41 261.811 195.508 262.615 195.703 263.148C195.898 263.682 196.175 264.089 196.533 264.369C196.891 264.649 197.288 264.789 197.725 264.789C198.317 264.789 198.841 264.457 199.297 263.793C199.759 263.122 199.99 262.123 199.99 260.795C199.99 259.434 199.769 258.435 199.326 257.797C198.883 257.159 198.34 256.84 197.695 256.84C197.103 256.84 196.572 257.175 196.104 257.846C195.641 258.51 195.41 259.473 195.41 260.736ZM202.686 260.814C202.686 259.024 203.06 257.673 203.809 256.762C204.564 255.85 205.518 255.395 206.67 255.395C207.803 255.395 208.75 255.85 209.512 256.762C210.273 257.673 210.654 258.988 210.654 260.707C210.654 262.569 210.28 263.956 209.531 264.867C208.783 265.779 207.829 266.234 206.67 266.234C205.531 266.234 204.58 265.779 203.818 264.867C203.063 263.949 202.686 262.598 202.686 260.814ZM204.16 260.814C204.16 262.156 204.404 263.155 204.893 263.812C205.381 264.464 205.986 264.789 206.709 264.789C207.386 264.789 207.965 264.46 208.447 263.803C208.936 263.139 209.18 262.143 209.18 260.814C209.18 259.48 208.936 258.487 208.447 257.836C207.959 257.178 207.354 256.85 206.631 256.85C205.947 256.85 205.365 257.178 204.883 257.836C204.401 258.493 204.16 259.486 204.16 260.814ZM212.344 266V255.629H213.643V257.201C213.975 256.472 214.277 255.99 214.551 255.756C214.831 255.515 215.143 255.395 215.488 255.395C215.97 255.395 216.462 255.583 216.963 255.961L216.475 257.592C216.117 257.338 215.768 257.211 215.43 257.211C215.124 257.211 214.844 257.318 214.59 257.533C214.336 257.748 214.157 258.048 214.053 258.432C213.87 259.102 213.779 259.815 213.779 260.57V266H212.344ZM223.359 264.721C222.878 265.222 222.376 265.6 221.855 265.854C221.335 266.107 220.794 266.234 220.234 266.234C219.349 266.234 218.643 265.967 218.115 265.434C217.588 264.9 217.324 264.18 217.324 263.275C217.324 262.676 217.448 262.146 217.695 261.684C217.943 261.221 218.281 260.86 218.711 260.6C219.141 260.339 219.792 260.147 220.664 260.023C221.836 259.854 222.695 259.652 223.242 259.418L223.252 258.969C223.252 258.259 223.125 257.761 222.871 257.475C222.513 257.058 221.963 256.85 221.221 256.85C220.55 256.85 220.049 256.99 219.717 257.27C219.385 257.543 219.141 258.061 218.984 258.822L217.568 258.588C217.77 257.475 218.177 256.664 218.789 256.156C219.408 255.648 220.29 255.395 221.436 255.395C222.327 255.395 223.027 255.564 223.535 255.902C224.043 256.234 224.362 256.648 224.492 257.143C224.629 257.637 224.697 258.36 224.697 259.311V261.654C224.697 263.295 224.727 264.33 224.785 264.76C224.85 265.183 224.974 265.596 225.156 266H223.652C223.503 265.642 223.405 265.215 223.359 264.721ZM223.242 260.795C222.715 261.055 221.93 261.277 220.889 261.459C220.283 261.563 219.86 261.684 219.619 261.82C219.378 261.951 219.189 262.139 219.053 262.387C218.923 262.628 218.857 262.908 218.857 263.227C218.857 263.721 219.01 264.118 219.316 264.418C219.622 264.711 220.046 264.857 220.586 264.857C221.1 264.857 221.566 264.724 221.982 264.457C222.406 264.19 222.721 263.835 222.93 263.393C223.138 262.943 223.242 262.292 223.242 261.439V260.795ZM230.146 264.428L230.342 265.98C229.945 266.085 229.587 266.137 229.268 266.137C228.766 266.137 228.363 266.039 228.057 265.844C227.751 265.642 227.539 265.368 227.422 265.023C227.311 264.678 227.256 263.992 227.256 262.963V256.996H226.201V255.629H227.256V253.061L228.691 252.006V255.629H230.146V256.996H228.691V263.061C228.691 263.62 228.734 263.982 228.818 264.145C228.942 264.379 229.173 264.496 229.512 264.496C229.674 264.496 229.886 264.473 230.146 264.428ZM231.504 253.705V251.684H232.939V253.705H231.504ZM231.504 266V255.629H232.939V266H231.504ZM237.539 266L234.307 255.629H235.83L237.656 261.84C237.865 262.543 238.047 263.24 238.203 263.93C238.327 263.383 238.503 262.725 238.73 261.957L240.625 255.629H242.109L238.887 266H237.539ZM249.18 262.66L250.664 262.885C250.417 263.992 249.967 264.828 249.316 265.395C248.672 265.954 247.871 266.234 246.914 266.234C245.71 266.234 244.733 265.779 243.984 264.867C243.242 263.949 242.871 262.628 242.871 260.902C242.871 259.112 243.245 257.748 243.994 256.811C244.749 255.867 245.703 255.395 246.855 255.395C247.956 255.395 248.874 255.857 249.609 256.781C250.345 257.706 250.713 259.044 250.713 260.795L250.703 261.264H244.355C244.414 262.429 244.684 263.308 245.166 263.9C245.648 264.493 246.234 264.789 246.924 264.789C248.005 264.789 248.757 264.079 249.18 262.66ZM244.443 259.818H249.189C249.124 258.92 248.932 258.249 248.613 257.807C248.151 257.162 247.562 256.84 246.846 256.84C246.201 256.84 245.651 257.11 245.195 257.65C244.74 258.184 244.489 258.907 244.443 259.818ZM257.051 269.975V255.629H258.369V256.977C258.695 256.417 259.056 256.013 259.453 255.766C259.85 255.518 260.306 255.395 260.82 255.395C261.491 255.395 262.096 255.593 262.637 255.99C263.177 256.387 263.61 256.993 263.936 257.807C264.268 258.614 264.434 259.587 264.434 260.727C264.434 262.491 264.062 263.852 263.32 264.809C262.585 265.759 261.719 266.234 260.723 266.234C260.28 266.234 259.867 266.12 259.482 265.893C259.098 265.665 258.766 265.342 258.486 264.926V269.975H257.051ZM258.35 260.873C258.35 262.214 258.574 263.204 259.023 263.842C259.473 264.473 260.016 264.789 260.654 264.789C261.266 264.789 261.803 264.46 262.266 263.803C262.728 263.145 262.959 262.13 262.959 260.756C262.959 259.402 262.734 258.399 262.285 257.748C261.836 257.097 261.289 256.771 260.645 256.771C260.065 256.771 259.538 257.123 259.062 257.826C258.587 258.523 258.35 259.538 258.35 260.873ZM266.172 253.705V251.684H267.607V253.705H266.172ZM266.172 266V255.629H267.607V266H266.172ZM268.887 266L271.992 260.609L269.121 255.629H270.918L272.227 258.061C272.467 258.51 272.666 258.897 272.822 259.223C273.063 258.78 273.278 258.399 273.467 258.08L274.902 255.629H276.621L273.682 260.512L276.846 266H275.078L273.33 262.777L272.871 261.908L270.635 266H268.887ZM283.848 262.66L285.332 262.885C285.085 263.992 284.635 264.828 283.984 265.395C283.34 265.954 282.539 266.234 281.582 266.234C280.378 266.234 279.401 265.779 278.652 264.867C277.91 263.949 277.539 262.628 277.539 260.902C277.539 259.112 277.913 257.748 278.662 256.811C279.417 255.867 280.371 255.395 281.523 255.395C282.624 255.395 283.542 255.857 284.277 256.781C285.013 257.706 285.381 259.044 285.381 260.795L285.371 261.264H279.023C279.082 262.429 279.352 263.308 279.834 263.9C280.316 264.493 280.902 264.789 281.592 264.789C282.673 264.789 283.424 264.079 283.848 262.66ZM279.111 259.818H283.857C283.792 258.92 283.6 258.249 283.281 257.807C282.819 257.162 282.23 256.84 281.514 256.84C280.869 256.84 280.319 257.11 279.863 257.65C279.408 258.184 279.157 258.907 279.111 259.818ZM287.109 266V251.684H288.545V266H287.109ZM300.918 264.721C300.436 265.222 299.935 265.6 299.414 265.854C298.893 266.107 298.353 266.234 297.793 266.234C296.908 266.234 296.201 265.967 295.674 265.434C295.146 264.9 294.883 264.18 294.883 263.275C294.883 262.676 295.007 262.146 295.254 261.684C295.501 261.221 295.84 260.86 296.27 260.6C296.699 260.339 297.35 260.147 298.223 260.023C299.395 259.854 300.254 259.652 300.801 259.418L300.811 258.969C300.811 258.259 300.684 257.761 300.43 257.475C300.072 257.058 299.521 256.85 298.779 256.85C298.109 256.85 297.607 256.99 297.275 257.27C296.943 257.543 296.699 258.061 296.543 258.822L295.127 258.588C295.329 257.475 295.736 256.664 296.348 256.156C296.966 255.648 297.848 255.395 298.994 255.395C299.886 255.395 300.586 255.564 301.094 255.902C301.602 256.234 301.921 256.648 302.051 257.143C302.188 257.637 302.256 258.36 302.256 259.311V261.654C302.256 263.295 302.285 264.33 302.344 264.76C302.409 265.183 302.533 265.596 302.715 266H301.211C301.061 265.642 300.964 265.215 300.918 264.721ZM300.801 260.795C300.273 261.055 299.489 261.277 298.447 261.459C297.842 261.563 297.419 261.684 297.178 261.82C296.937 261.951 296.748 262.139 296.611 262.387C296.481 262.628 296.416 262.908 296.416 263.227C296.416 263.721 296.569 264.118 296.875 264.418C297.181 264.711 297.604 264.857 298.145 264.857C298.659 264.857 299.124 264.724 299.541 264.457C299.964 264.19 300.28 263.835 300.488 263.393C300.697 262.943 300.801 262.292 300.801 261.439V260.795ZM304.492 266V255.629H305.791V257.201C306.123 256.472 306.426 255.99 306.699 255.756C306.979 255.515 307.292 255.395 307.637 255.395C308.118 255.395 308.61 255.583 309.111 255.961L308.623 257.592C308.265 257.338 307.917 257.211 307.578 257.211C307.272 257.211 306.992 257.318 306.738 257.533C306.484 257.748 306.305 258.048 306.201 258.432C306.019 259.102 305.928 259.815 305.928 260.57V266H304.492ZM313.174 264.428L313.369 265.98C312.972 266.085 312.614 266.137 312.295 266.137C311.794 266.137 311.39 266.039 311.084 265.844C310.778 265.642 310.566 265.368 310.449 265.023C310.339 264.678 310.283 263.992 310.283 262.963V256.996H309.229V255.629H310.283V253.061L311.719 252.006V255.629H313.174V256.996H311.719V263.061C311.719 263.62 311.761 263.982 311.846 264.145C311.969 264.379 312.201 264.496 312.539 264.496C312.702 264.496 312.913 264.473 313.174 264.428ZM22.959 285.66L24.4434 285.885C24.196 286.992 23.7467 287.828 23.0957 288.395C22.4512 288.954 21.6504 289.234 20.6934 289.234C19.4889 289.234 18.5124 288.779 17.7637 287.867C17.0215 286.949 16.6504 285.628 16.6504 283.902C16.6504 282.112 17.0247 280.748 17.7734 279.811C18.5286 278.867 19.4824 278.395 20.6348 278.395C21.735 278.395 22.653 278.857 23.3887 279.781C24.1243 280.706 24.4922 282.044 24.4922 283.795L24.4824 284.264H18.1348C18.1934 285.429 18.4635 286.308 18.9453 286.9C19.4271 287.493 20.013 287.789 20.7031 287.789C21.7839 287.789 22.5358 287.079 22.959 285.66ZM18.2227 282.818H22.9688C22.9036 281.92 22.7116 281.249 22.3926 280.807C21.9303 280.162 21.3411 279.84 20.625 279.84C19.9805 279.84 19.4303 280.11 18.9746 280.65C18.5189 281.184 18.2682 281.907 18.2227 282.818ZM25.3223 289L28.4277 283.609L25.5566 278.629H27.3535L28.6621 281.061C28.903 281.51 29.1016 281.897 29.2578 282.223C29.4987 281.78 29.7135 281.399 29.9023 281.08L31.3379 278.629H33.0566L30.1172 283.512L33.2812 289H31.5137L29.7656 285.777L29.3066 284.908L27.0703 289H25.3223ZM34.4629 292.975V278.629H35.7812V279.977C36.1068 279.417 36.4681 279.013 36.8652 278.766C37.2624 278.518 37.7181 278.395 38.2324 278.395C38.903 278.395 39.5085 278.593 40.0488 278.99C40.5892 279.387 41.0221 279.993 41.3477 280.807C41.6797 281.614 41.8457 282.587 41.8457 283.727C41.8457 285.491 41.4746 286.852 40.7324 287.809C39.9967 288.759 39.1309 289.234 38.1348 289.234C37.6921 289.234 37.2786 289.12 36.8945 288.893C36.5104 288.665 36.1784 288.342 35.8984 287.926V292.975H34.4629ZM35.7617 283.873C35.7617 285.214 35.9863 286.204 36.4355 286.842C36.8848 287.473 37.4284 287.789 38.0664 287.789C38.6784 287.789 39.2155 287.46 39.6777 286.803C40.14 286.145 40.3711 285.13 40.3711 283.756C40.3711 282.402 40.1465 281.399 39.6973 280.748C39.248 280.097 38.7012 279.771 38.0566 279.771C37.4772 279.771 36.9499 280.123 36.4746 280.826C35.9993 281.523 35.7617 282.538 35.7617 283.873ZM49.4043 285.66L50.8887 285.885C50.6413 286.992 50.1921 287.828 49.541 288.395C48.8965 288.954 48.0957 289.234 47.1387 289.234C45.9342 289.234 44.9577 288.779 44.209 287.867C43.4668 286.949 43.0957 285.628 43.0957 283.902C43.0957 282.112 43.4701 280.748 44.2188 279.811C44.974 278.867 45.9277 278.395 47.0801 278.395C48.1803 278.395 49.0983 278.857 49.834 279.781C50.5697 280.706 50.9375 282.044 50.9375 283.795L50.9277 284.264H44.5801C44.6387 285.429 44.9089 286.308 45.3906 286.9C45.8724 287.493 46.4583 287.789 47.1484 287.789C48.2292 287.789 48.9811 287.079 49.4043 285.66ZM44.668 282.818H49.4141C49.349 281.92 49.1569 281.249 48.8379 280.807C48.3757 280.162 47.7865 279.84 47.0703 279.84C46.4258 279.84 45.8757 280.11 45.4199 280.65C44.9642 281.184 44.7135 281.907 44.668 282.818ZM52.7051 289V278.629H54.0039V280.201C54.3359 279.472 54.6387 278.99 54.9121 278.756C55.1921 278.515 55.5046 278.395 55.8496 278.395C56.3314 278.395 56.8229 278.583 57.3242 278.961L56.8359 280.592C56.4779 280.338 56.1296 280.211 55.791 280.211C55.485 280.211 55.2051 280.318 54.9512 280.533C54.6973 280.748 54.5182 281.048 54.4141 281.432C54.2318 282.102 54.1406 282.815 54.1406 283.57V289H52.7051ZM58.1738 276.705V274.684H59.6094V276.705H58.1738ZM58.1738 289V278.629H59.6094V289H58.1738ZM61.8457 289V278.629H63.1348V280.084C63.4212 279.544 63.7891 279.127 64.2383 278.834C64.6875 278.541 65.179 278.395 65.7129 278.395C66.3118 278.395 66.8164 278.551 67.2266 278.863C67.6432 279.169 67.9395 279.618 68.1152 280.211C68.4538 279.605 68.8411 279.153 69.2773 278.854C69.7201 278.548 70.2083 278.395 70.7422 278.395C71.556 278.395 72.1973 278.671 72.666 279.225C73.1348 279.778 73.3691 280.663 73.3691 281.881V289H71.9336V282.467C71.9336 281.725 71.8783 281.201 71.7676 280.895C71.6634 280.582 71.4909 280.341 71.25 280.172C71.0091 280.003 70.7389 279.918 70.4395 279.918C69.821 279.918 69.3164 280.165 68.9258 280.66C68.5352 281.148 68.3398 281.92 68.3398 282.975V289H66.8945V282.262C66.8945 281.402 66.7611 280.797 66.4941 280.445C66.2337 280.094 65.8724 279.918 65.4102 279.918C64.7526 279.918 64.2318 280.185 63.8477 280.719C63.4701 281.246 63.2812 282.213 63.2812 283.619V289H61.8457ZM81.3184 285.66L82.8027 285.885C82.5553 286.992 82.1061 287.828 81.4551 288.395C80.8105 288.954 80.0098 289.234 79.0527 289.234C77.8483 289.234 76.8717 288.779 76.123 287.867C75.3809 286.949 75.0098 285.628 75.0098 283.902C75.0098 282.112 75.3841 280.748 76.1328 279.811C76.888 278.867 77.8418 278.395 78.9941 278.395C80.0944 278.395 81.0124 278.857 81.748 279.781C82.4837 280.706 82.8516 282.044 82.8516 283.795L82.8418 284.264H76.4941C76.5527 285.429 76.8229 286.308 77.3047 286.9C77.7865 287.493 78.3724 287.789 79.0625 287.789C80.1432 287.789 80.8952 287.079 81.3184 285.66ZM76.582 282.818H81.3281C81.263 281.92 81.071 281.249 80.752 280.807C80.2897 280.162 79.7005 279.84 78.9844 279.84C78.3398 279.84 77.7897 280.11 77.334 280.65C76.8783 281.184 76.6276 281.907 76.582 282.818ZM84.6191 289V278.629H85.918V280.104C86.2305 279.531 86.6113 279.104 87.0605 278.824C87.5163 278.538 88.0371 278.395 88.623 278.395C89.0788 278.395 89.4987 278.486 89.8828 278.668C90.2734 278.844 90.5859 279.078 90.8203 279.371C91.0612 279.658 91.2402 280.032 91.3574 280.494C91.4746 280.956 91.5332 281.666 91.5332 282.623V289H90.0879V282.691C90.0879 281.93 90.0228 281.373 89.8926 281.021C89.7624 280.67 89.5573 280.4 89.2773 280.211C89.0039 280.016 88.6849 279.918 88.3203 279.918C87.6302 279.918 87.0801 280.175 86.6699 280.689C86.2598 281.204 86.0547 282.086 86.0547 283.336V289H84.6191ZM96.9531 287.428L97.1484 288.98C96.7513 289.085 96.3932 289.137 96.0742 289.137C95.5729 289.137 95.1693 289.039 94.8633 288.844C94.5573 288.642 94.3457 288.368 94.2285 288.023C94.1178 287.678 94.0625 286.992 94.0625 285.963V279.996H93.0078V278.629H94.0625V276.061L95.498 275.006V278.629H96.9531V279.996H95.498V286.061C95.498 286.62 95.5404 286.982 95.625 287.145C95.7487 287.379 95.9798 287.496 96.3184 287.496C96.4811 287.496 96.6927 287.473 96.9531 287.428ZM98.7695 289V286.998H100.41V289H98.7695ZM105.479 289L109.99 274.684H111.66L116.465 289H114.688L113.32 284.664H108.418L107.129 289H105.479ZM108.867 283.121H112.842L111.621 279.156C111.243 277.939 110.967 276.949 110.791 276.188C110.641 277.105 110.43 278.017 110.156 278.922L108.867 283.121ZM116.943 285.904L118.369 285.631C118.454 286.36 118.685 286.904 119.062 287.262C119.44 287.613 119.941 287.789 120.566 287.789C121.191 287.789 121.673 287.636 122.012 287.33C122.357 287.018 122.529 286.624 122.529 286.148C122.529 285.738 122.383 285.419 122.09 285.191C121.888 285.035 121.4 284.84 120.625 284.605C119.505 284.26 118.757 283.967 118.379 283.727C118.001 283.486 117.708 283.163 117.5 282.76C117.292 282.356 117.188 281.897 117.188 281.383C117.188 280.497 117.471 279.778 118.037 279.225C118.604 278.671 119.388 278.395 120.391 278.395C121.022 278.395 121.576 278.508 122.051 278.736C122.533 278.964 122.9 279.27 123.154 279.654C123.408 280.038 123.584 280.589 123.682 281.305L122.275 281.539C122.145 280.406 121.53 279.84 120.43 279.84C119.805 279.84 119.339 279.967 119.033 280.221C118.727 280.468 118.574 280.787 118.574 281.178C118.574 281.562 118.721 281.865 119.014 282.086C119.189 282.216 119.71 282.424 120.576 282.711C121.768 283.095 122.539 283.401 122.891 283.629C123.242 283.85 123.516 284.156 123.711 284.547C123.906 284.931 124.004 285.39 124.004 285.924C124.004 286.913 123.688 287.714 123.057 288.326C122.432 288.938 121.576 289.244 120.488 289.244C118.451 289.244 117.269 288.131 116.943 285.904ZM125.732 289V274.684H127.168V282.848L130.586 278.629H132.451L129.199 282.477L132.773 289H131.006L128.184 283.697L127.168 284.889V289H125.732ZM144.043 289V287.477C143.711 288.062 143.32 288.502 142.871 288.795C142.422 289.088 141.914 289.234 141.348 289.234C140.677 289.234 140.104 289.055 139.629 288.697C139.154 288.333 138.835 287.874 138.672 287.32C138.516 286.767 138.438 286.012 138.438 285.055V278.629H139.873V284.381C139.873 285.449 139.925 286.165 140.029 286.529C140.14 286.887 140.339 287.177 140.625 287.398C140.918 287.613 141.25 287.721 141.621 287.721C142.311 287.721 142.878 287.438 143.32 286.871C143.698 286.383 143.887 285.488 143.887 284.186V278.629H145.332V289H144.043ZM147.041 285.904L148.467 285.631C148.551 286.36 148.783 286.904 149.16 287.262C149.538 287.613 150.039 287.789 150.664 287.789C151.289 287.789 151.771 287.636 152.109 287.33C152.454 287.018 152.627 286.624 152.627 286.148C152.627 285.738 152.48 285.419 152.188 285.191C151.986 285.035 151.497 284.84 150.723 284.605C149.603 284.26 148.854 283.967 148.477 283.727C148.099 283.486 147.806 283.163 147.598 282.76C147.389 282.356 147.285 281.897 147.285 281.383C147.285 280.497 147.568 279.778 148.135 279.225C148.701 278.671 149.486 278.395 150.488 278.395C151.12 278.395 151.673 278.508 152.148 278.736C152.63 278.964 152.998 279.27 153.252 279.654C153.506 280.038 153.682 280.589 153.779 281.305L152.373 281.539C152.243 280.406 151.628 279.84 150.527 279.84C149.902 279.84 149.437 279.967 149.131 280.221C148.825 280.468 148.672 280.787 148.672 281.178C148.672 281.562 148.818 281.865 149.111 282.086C149.287 282.216 149.808 282.424 150.674 282.711C151.865 283.095 152.637 283.401 152.988 283.629C153.34 283.85 153.613 284.156 153.809 284.547C154.004 284.931 154.102 285.39 154.102 285.924C154.102 286.913 153.786 287.714 153.154 288.326C152.529 288.938 151.673 289.244 150.586 289.244C148.548 289.244 147.367 288.131 147.041 285.904ZM163.574 287.428L163.77 288.98C163.372 289.085 163.014 289.137 162.695 289.137C162.194 289.137 161.79 289.039 161.484 288.844C161.178 288.642 160.967 288.368 160.85 288.023C160.739 287.678 160.684 286.992 160.684 285.963V279.996H159.629V278.629H160.684V276.061L162.119 275.006V278.629H163.574V279.996H162.119V286.061C162.119 286.62 162.161 286.982 162.246 287.145C162.37 287.379 162.601 287.496 162.939 287.496C163.102 287.496 163.314 287.473 163.574 287.428ZM164.395 283.814C164.395 282.024 164.769 280.673 165.518 279.762C166.273 278.85 167.227 278.395 168.379 278.395C169.512 278.395 170.459 278.85 171.221 279.762C171.982 280.673 172.363 281.988 172.363 283.707C172.363 285.569 171.989 286.956 171.24 287.867C170.492 288.779 169.538 289.234 168.379 289.234C167.24 289.234 166.289 288.779 165.527 287.867C164.772 286.949 164.395 285.598 164.395 283.814ZM165.869 283.814C165.869 285.156 166.113 286.155 166.602 286.812C167.09 287.464 167.695 287.789 168.418 287.789C169.095 287.789 169.674 287.46 170.156 286.803C170.645 286.139 170.889 285.143 170.889 283.814C170.889 282.48 170.645 281.487 170.156 280.836C169.668 280.178 169.062 279.85 168.34 279.85C167.656 279.85 167.074 280.178 166.592 280.836C166.11 281.493 165.869 282.486 165.869 283.814ZM184.141 289V287.691C183.88 288.193 183.545 288.577 183.135 288.844C182.725 289.104 182.282 289.234 181.807 289.234C180.804 289.234 179.935 288.762 179.199 287.818C178.47 286.868 178.105 285.533 178.105 283.814C178.105 282.636 178.268 281.637 178.594 280.816C178.919 279.996 179.352 279.387 179.893 278.99C180.439 278.593 181.045 278.395 181.709 278.395C182.184 278.395 182.624 278.521 183.027 278.775C183.438 279.023 183.776 279.371 184.043 279.82V274.684H185.488V289H184.141ZM179.58 283.824C179.58 285.165 179.811 286.161 180.273 286.812C180.742 287.464 181.286 287.789 181.904 287.789C182.516 287.789 183.047 287.477 183.496 286.852C183.945 286.227 184.17 285.283 184.17 284.02C184.17 282.568 183.945 281.51 183.496 280.846C183.047 280.175 182.48 279.84 181.797 279.84C181.191 279.84 180.671 280.162 180.234 280.807C179.798 281.445 179.58 282.451 179.58 283.824ZM187.744 289V278.629H189.043V280.201C189.375 279.472 189.678 278.99 189.951 278.756C190.231 278.515 190.544 278.395 190.889 278.395C191.37 278.395 191.862 278.583 192.363 278.961L191.875 280.592C191.517 280.338 191.169 280.211 190.83 280.211C190.524 280.211 190.244 280.318 189.99 280.533C189.736 280.748 189.557 281.048 189.453 281.432C189.271 282.102 189.18 282.815 189.18 283.57V289H187.744ZM198.76 287.721C198.278 288.222 197.777 288.6 197.256 288.854C196.735 289.107 196.195 289.234 195.635 289.234C194.749 289.234 194.043 288.967 193.516 288.434C192.988 287.9 192.725 287.18 192.725 286.275C192.725 285.676 192.848 285.146 193.096 284.684C193.343 284.221 193.682 283.86 194.111 283.6C194.541 283.339 195.192 283.147 196.064 283.023C197.236 282.854 198.096 282.652 198.643 282.418L198.652 281.969C198.652 281.259 198.525 280.761 198.271 280.475C197.913 280.058 197.363 279.85 196.621 279.85C195.951 279.85 195.449 279.99 195.117 280.27C194.785 280.543 194.541 281.061 194.385 281.822L192.969 281.588C193.171 280.475 193.577 279.664 194.189 279.156C194.808 278.648 195.69 278.395 196.836 278.395C197.728 278.395 198.428 278.564 198.936 278.902C199.443 279.234 199.762 279.648 199.893 280.143C200.029 280.637 200.098 281.36 200.098 282.311V284.654C200.098 286.295 200.127 287.33 200.186 287.76C200.251 288.183 200.374 288.596 200.557 289H199.053C198.903 288.642 198.805 288.215 198.76 287.721ZM198.643 283.795C198.115 284.055 197.331 284.277 196.289 284.459C195.684 284.563 195.26 284.684 195.02 284.82C194.779 284.951 194.59 285.139 194.453 285.387C194.323 285.628 194.258 285.908 194.258 286.227C194.258 286.721 194.411 287.118 194.717 287.418C195.023 287.711 195.446 287.857 195.986 287.857C196.501 287.857 196.966 287.724 197.383 287.457C197.806 287.19 198.122 286.835 198.33 286.393C198.538 285.943 198.643 285.292 198.643 284.439V283.795ZM203.896 289L201.299 278.629H202.793L204.141 284.615L204.639 286.842L205.088 284.703L206.436 278.629H207.92L209.189 284.645L209.619 286.627L210.107 284.625L211.562 278.629H212.969L210.303 289H208.809L207.451 282.789L207.129 281.021L205.41 289H203.896ZM224.287 287.721C223.805 288.222 223.304 288.6 222.783 288.854C222.262 289.107 221.722 289.234 221.162 289.234C220.277 289.234 219.57 288.967 219.043 288.434C218.516 287.9 218.252 287.18 218.252 286.275C218.252 285.676 218.376 285.146 218.623 284.684C218.87 284.221 219.209 283.86 219.639 283.6C220.068 283.339 220.719 283.147 221.592 283.023C222.764 282.854 223.623 282.652 224.17 282.418L224.18 281.969C224.18 281.259 224.053 280.761 223.799 280.475C223.441 280.058 222.891 279.85 222.148 279.85C221.478 279.85 220.977 279.99 220.645 280.27C220.312 280.543 220.068 281.061 219.912 281.822L218.496 281.588C218.698 280.475 219.105 279.664 219.717 279.156C220.335 278.648 221.217 278.395 222.363 278.395C223.255 278.395 223.955 278.564 224.463 278.902C224.971 279.234 225.29 279.648 225.42 280.143C225.557 280.637 225.625 281.36 225.625 282.311V284.654C225.625 286.295 225.654 287.33 225.713 287.76C225.778 288.183 225.902 288.596 226.084 289H224.58C224.43 288.642 224.333 288.215 224.287 287.721ZM224.17 283.795C223.643 284.055 222.858 284.277 221.816 284.459C221.211 284.563 220.788 284.684 220.547 284.82C220.306 284.951 220.117 285.139 219.98 285.387C219.85 285.628 219.785 285.908 219.785 286.227C219.785 286.721 219.938 287.118 220.244 287.418C220.55 287.711 220.973 287.857 221.514 287.857C222.028 287.857 222.493 287.724 222.91 287.457C223.333 287.19 223.649 286.835 223.857 286.393C224.066 285.943 224.17 285.292 224.17 284.439V283.795ZM235.645 287.428L235.84 288.98C235.443 289.085 235.085 289.137 234.766 289.137C234.264 289.137 233.861 289.039 233.555 288.844C233.249 288.642 233.037 288.368 232.92 288.023C232.809 287.678 232.754 286.992 232.754 285.963V279.996H231.699V278.629H232.754V276.061L234.189 275.006V278.629H235.645V279.996H234.189V286.061C234.189 286.62 234.232 286.982 234.316 287.145C234.44 287.379 234.671 287.496 235.01 287.496C235.173 287.496 235.384 287.473 235.645 287.428ZM237.002 289V274.684H238.438V279.82C238.776 279.345 239.157 278.99 239.58 278.756C240.01 278.515 240.482 278.395 240.996 278.395C241.901 278.395 242.614 278.684 243.135 279.264C243.662 279.837 243.926 280.891 243.926 282.428V289H242.49V282.428C242.49 281.529 242.331 280.885 242.012 280.494C241.693 280.104 241.253 279.908 240.693 279.908C240.068 279.908 239.535 280.159 239.092 280.66C238.656 281.161 238.438 282.05 238.438 283.326V289H237.002ZM251.943 285.66L253.428 285.885C253.18 286.992 252.731 287.828 252.08 288.395C251.436 288.954 250.635 289.234 249.678 289.234C248.473 289.234 247.497 288.779 246.748 287.867C246.006 286.949 245.635 285.628 245.635 283.902C245.635 282.112 246.009 280.748 246.758 279.811C247.513 278.867 248.467 278.395 249.619 278.395C250.719 278.395 251.637 278.857 252.373 279.781C253.109 280.706 253.477 282.044 253.477 283.795L253.467 284.264H247.119C247.178 285.429 247.448 286.308 247.93 286.9C248.411 287.493 248.997 287.789 249.688 287.789C250.768 287.789 251.52 287.079 251.943 285.66ZM247.207 282.818H251.953C251.888 281.92 251.696 281.249 251.377 280.807C250.915 280.162 250.326 279.84 249.609 279.84C248.965 279.84 248.415 280.11 247.959 280.65C247.503 281.184 247.253 281.907 247.207 282.818ZM255.264 289V278.629H256.553V280.084C256.839 279.544 257.207 279.127 257.656 278.834C258.105 278.541 258.597 278.395 259.131 278.395C259.73 278.395 260.234 278.551 260.645 278.863C261.061 279.169 261.357 279.618 261.533 280.211C261.872 279.605 262.259 279.153 262.695 278.854C263.138 278.548 263.626 278.395 264.16 278.395C264.974 278.395 265.615 278.671 266.084 279.225C266.553 279.778 266.787 280.663 266.787 281.881V289H265.352V282.467C265.352 281.725 265.296 281.201 265.186 280.895C265.081 280.582 264.909 280.341 264.668 280.172C264.427 280.003 264.157 279.918 263.857 279.918C263.239 279.918 262.734 280.165 262.344 280.66C261.953 281.148 261.758 281.92 261.758 282.975V289H260.312V282.262C260.312 281.402 260.179 280.797 259.912 280.445C259.652 280.094 259.29 279.918 258.828 279.918C258.171 279.918 257.65 280.185 257.266 280.719C256.888 281.246 256.699 282.213 256.699 283.619V289H255.264ZM274.736 285.66L276.221 285.885C275.973 286.992 275.524 287.828 274.873 288.395C274.229 288.954 273.428 289.234 272.471 289.234C271.266 289.234 270.29 288.779 269.541 287.867C268.799 286.949 268.428 285.628 268.428 283.902C268.428 282.112 268.802 280.748 269.551 279.811C270.306 278.867 271.26 278.395 272.412 278.395C273.512 278.395 274.43 278.857 275.166 279.781C275.902 280.706 276.27 282.044 276.27 283.795L276.26 284.264H269.912C269.971 285.429 270.241 286.308 270.723 286.9C271.204 287.493 271.79 287.789 272.48 287.789C273.561 287.789 274.313 287.079 274.736 285.66ZM270 282.818H274.746C274.681 281.92 274.489 281.249 274.17 280.807C273.708 280.162 273.118 279.84 272.402 279.84C271.758 279.84 271.208 280.11 270.752 280.65C270.296 281.184 270.046 281.907 270 282.818ZM288.154 287.721C287.673 288.222 287.171 288.6 286.65 288.854C286.13 289.107 285.589 289.234 285.029 289.234C284.144 289.234 283.438 288.967 282.91 288.434C282.383 287.9 282.119 287.18 282.119 286.275C282.119 285.676 282.243 285.146 282.49 284.684C282.738 284.221 283.076 283.86 283.506 283.6C283.936 283.339 284.587 283.147 285.459 283.023C286.631 282.854 287.49 282.652 288.037 282.418L288.047 281.969C288.047 281.259 287.92 280.761 287.666 280.475C287.308 280.058 286.758 279.85 286.016 279.85C285.345 279.85 284.844 279.99 284.512 280.27C284.18 280.543 283.936 281.061 283.779 281.822L282.363 281.588C282.565 280.475 282.972 279.664 283.584 279.156C284.202 278.648 285.085 278.395 286.23 278.395C287.122 278.395 287.822 278.564 288.33 278.902C288.838 279.234 289.157 279.648 289.287 280.143C289.424 280.637 289.492 281.36 289.492 282.311V284.654C289.492 286.295 289.521 287.33 289.58 287.76C289.645 288.183 289.769 288.596 289.951 289H288.447C288.298 288.642 288.2 288.215 288.154 287.721ZM288.037 283.795C287.51 284.055 286.725 284.277 285.684 284.459C285.078 284.563 284.655 284.684 284.414 284.82C284.173 284.951 283.984 285.139 283.848 285.387C283.717 285.628 283.652 285.908 283.652 286.227C283.652 286.721 283.805 287.118 284.111 287.418C284.417 287.711 284.84 287.857 285.381 287.857C285.895 287.857 286.361 287.724 286.777 287.457C287.201 287.19 287.516 286.835 287.725 286.393C287.933 285.943 288.037 285.292 288.037 284.439V283.795ZM291.729 289V278.629H293.027V280.104C293.34 279.531 293.721 279.104 294.17 278.824C294.626 278.538 295.146 278.395 295.732 278.395C296.188 278.395 296.608 278.486 296.992 278.668C297.383 278.844 297.695 279.078 297.93 279.371C298.171 279.658 298.35 280.032 298.467 280.494C298.584 280.956 298.643 281.666 298.643 282.623V289H297.197V282.691C297.197 281.93 297.132 281.373 297.002 281.021C296.872 280.67 296.667 280.4 296.387 280.211C296.113 280.016 295.794 279.918 295.43 279.918C294.74 279.918 294.189 280.175 293.779 280.689C293.369 281.204 293.164 282.086 293.164 283.336V289H291.729ZM306.367 289V287.691C306.107 288.193 305.771 288.577 305.361 288.844C304.951 289.104 304.508 289.234 304.033 289.234C303.031 289.234 302.161 288.762 301.426 287.818C300.697 286.868 300.332 285.533 300.332 283.814C300.332 282.636 300.495 281.637 300.82 280.816C301.146 279.996 301.579 279.387 302.119 278.99C302.666 278.593 303.271 278.395 303.936 278.395C304.411 278.395 304.85 278.521 305.254 278.775C305.664 279.023 306.003 279.371 306.27 279.82V274.684H307.715V289H306.367ZM301.807 283.824C301.807 285.165 302.038 286.161 302.5 286.812C302.969 287.464 303.512 287.789 304.131 287.789C304.743 287.789 305.273 287.477 305.723 286.852C306.172 286.227 306.396 285.283 306.396 284.02C306.396 282.568 306.172 281.51 305.723 280.846C305.273 280.175 304.707 279.84 304.023 279.84C303.418 279.84 302.897 280.162 302.461 280.807C302.025 281.445 301.807 282.451 301.807 283.824ZM13.2812 308.201L14.6973 308.426C14.5345 309.663 14.1243 310.607 13.4668 311.258C12.8158 311.909 12.0312 312.234 11.1133 312.234C10 312.234 9.08203 311.779 8.35938 310.867C7.64323 309.949 7.28516 308.595 7.28516 306.805C7.28516 305.001 7.64648 303.65 8.36914 302.752C9.09831 301.847 10.0326 301.395 11.1719 301.395C12.0508 301.395 12.7897 301.668 13.3887 302.215C13.9941 302.762 14.3815 303.582 14.5508 304.676L13.1543 304.939C13.0176 304.236 12.7799 303.712 12.4414 303.367C12.1029 303.016 11.696 302.84 11.2207 302.84C10.5111 302.84 9.92188 303.156 9.45312 303.787C8.99089 304.412 8.75977 305.408 8.75977 306.775C8.75977 308.188 8.98112 309.21 9.42383 309.842C9.87305 310.473 10.446 310.789 11.1426 310.789C11.6895 310.789 12.1549 310.581 12.5391 310.164C12.9297 309.741 13.1771 309.087 13.2812 308.201ZM15.3711 306.814C15.3711 305.024 15.7454 303.673 16.4941 302.762C17.2493 301.85 18.2031 301.395 19.3555 301.395C20.4883 301.395 21.4355 301.85 22.1973 302.762C22.959 303.673 23.3398 304.988 23.3398 306.707C23.3398 308.569 22.9655 309.956 22.2168 310.867C21.4681 311.779 20.5143 312.234 19.3555 312.234C18.2161 312.234 17.2656 311.779 16.5039 310.867C15.7487 309.949 15.3711 308.598 15.3711 306.814ZM16.8457 306.814C16.8457 308.156 17.0898 309.155 17.5781 309.812C18.0664 310.464 18.6719 310.789 19.3945 310.789C20.0716 310.789 20.651 310.46 21.1328 309.803C21.6211 309.139 21.8652 308.143 21.8652 306.814C21.8652 305.48 21.6211 304.487 21.1328 303.836C20.6445 303.178 20.0391 302.85 19.3164 302.85C18.6328 302.85 18.0501 303.178 17.5684 303.836C17.0866 304.493 16.8457 305.486 16.8457 306.814ZM24.9902 312V297.684H26.4258V312H24.9902ZM28.6426 312V297.684H30.0781V312H28.6426ZM38.1543 308.66L39.6387 308.885C39.3913 309.992 38.9421 310.828 38.291 311.395C37.6465 311.954 36.8457 312.234 35.8887 312.234C34.6842 312.234 33.7077 311.779 32.959 310.867C32.2168 309.949 31.8457 308.628 31.8457 306.902C31.8457 305.112 32.2201 303.748 32.9688 302.811C33.724 301.867 34.6777 301.395 35.8301 301.395C36.9303 301.395 37.8483 301.857 38.584 302.781C39.3197 303.706 39.6875 305.044 39.6875 306.795L39.6777 307.264H33.3301C33.3887 308.429 33.6589 309.308 34.1406 309.9C34.6224 310.493 35.2083 310.789 35.8984 310.789C36.9792 310.789 37.7311 310.079 38.1543 308.66ZM33.418 305.818H38.1641C38.099 304.92 37.9069 304.249 37.5879 303.807C37.1257 303.162 36.5365 302.84 35.8203 302.84C35.1758 302.84 34.6257 303.11 34.1699 303.65C33.7142 304.184 33.4635 304.907 33.418 305.818ZM47.0312 308.201L48.4473 308.426C48.2845 309.663 47.8743 310.607 47.2168 311.258C46.5658 311.909 45.7812 312.234 44.8633 312.234C43.75 312.234 42.832 311.779 42.1094 310.867C41.3932 309.949 41.0352 308.595 41.0352 306.805C41.0352 305.001 41.3965 303.65 42.1191 302.752C42.8483 301.847 43.7826 301.395 44.9219 301.395C45.8008 301.395 46.5397 301.668 47.1387 302.215C47.7441 302.762 48.1315 303.582 48.3008 304.676L46.9043 304.939C46.7676 304.236 46.5299 303.712 46.1914 303.367C45.8529 303.016 45.446 302.84 44.9707 302.84C44.2611 302.84 43.6719 303.156 43.2031 303.787C42.7409 304.412 42.5098 305.408 42.5098 306.775C42.5098 308.188 42.7311 309.21 43.1738 309.842C43.623 310.473 44.196 310.789 44.8926 310.789C45.4395 310.789 45.9049 310.581 46.2891 310.164C46.6797 309.741 46.9271 309.087 47.0312 308.201ZM52.8711 310.428L53.0664 311.98C52.6693 312.085 52.3112 312.137 51.9922 312.137C51.4909 312.137 51.0872 312.039 50.7812 311.844C50.4753 311.642 50.2637 311.368 50.1465 311.023C50.0358 310.678 49.9805 309.992 49.9805 308.963V302.996H48.9258V301.629H49.9805V299.061L51.416 298.006V301.629H52.8711V302.996H51.416V309.061C51.416 309.62 51.4583 309.982 51.543 310.145C51.6667 310.379 51.8978 310.496 52.2363 310.496C52.3991 310.496 52.6107 310.473 52.8711 310.428ZM62.0117 310.428L62.207 311.98C61.8099 312.085 61.4518 312.137 61.1328 312.137C60.6315 312.137 60.2279 312.039 59.9219 311.844C59.6159 311.642 59.4043 311.368 59.2871 311.023C59.1764 310.678 59.1211 309.992 59.1211 308.963V302.996H58.0664V301.629H59.1211V299.061L60.5566 298.006V301.629H62.0117V302.996H60.5566V309.061C60.5566 309.62 60.599 309.982 60.6836 310.145C60.8073 310.379 61.0384 310.496 61.377 310.496C61.5397 310.496 61.7513 310.473 62.0117 310.428ZM63.3691 312V297.684H64.8047V302.82C65.1432 302.345 65.5241 301.99 65.9473 301.756C66.377 301.515 66.849 301.395 67.3633 301.395C68.2682 301.395 68.9811 301.684 69.502 302.264C70.0293 302.837 70.293 303.891 70.293 305.428V312H68.8574V305.428C68.8574 304.529 68.6979 303.885 68.3789 303.494C68.0599 303.104 67.6204 302.908 67.0605 302.908C66.4355 302.908 65.9017 303.159 65.459 303.66C65.0228 304.161 64.8047 305.05 64.8047 306.326V312H63.3691ZM78.3105 308.66L79.7949 308.885C79.5475 309.992 79.0983 310.828 78.4473 311.395C77.8027 311.954 77.002 312.234 76.0449 312.234C74.8405 312.234 73.8639 311.779 73.1152 310.867C72.373 309.949 72.002 308.628 72.002 306.902C72.002 305.112 72.3763 303.748 73.125 302.811C73.8802 301.867 74.834 301.395 75.9863 301.395C77.0866 301.395 78.0046 301.857 78.7402 302.781C79.4759 303.706 79.8438 305.044 79.8438 306.795L79.834 307.264H73.4863C73.5449 308.429 73.8151 309.308 74.2969 309.9C74.7786 310.493 75.3646 310.789 76.0547 310.789C77.1354 310.789 77.8874 310.079 78.3105 308.66ZM73.5742 305.818H78.3203C78.2552 304.92 78.0632 304.249 77.7441 303.807C77.2819 303.162 76.6927 302.84 75.9766 302.84C75.332 302.84 74.7819 303.11 74.3262 303.65C73.8704 304.184 73.6198 304.907 73.5742 305.818ZM86.3477 312V297.684H87.9395L94.1113 308.924V297.684H95.5957V312H94.0039L87.8418 300.75V312H86.3477ZM98.3398 312V297.684H106.26V299.373H99.8926V303.807H105.4V305.496H99.8926V312H98.3398ZM111.26 312V299.373H107.393V297.684H116.699V299.373H112.812V312H111.26ZM121.797 306.814C121.797 305.024 122.171 303.673 122.92 302.762C123.675 301.85 124.629 301.395 125.781 301.395C126.914 301.395 127.861 301.85 128.623 302.762C129.385 303.673 129.766 304.988 129.766 306.707C129.766 308.569 129.391 309.956 128.643 310.867C127.894 311.779 126.94 312.234 125.781 312.234C124.642 312.234 123.691 311.779 122.93 310.867C122.174 309.949 121.797 308.598 121.797 306.814ZM123.271 306.814C123.271 308.156 123.516 309.155 124.004 309.812C124.492 310.464 125.098 310.789 125.82 310.789C126.497 310.789 127.077 310.46 127.559 309.803C128.047 309.139 128.291 308.143 128.291 306.814C128.291 305.48 128.047 304.487 127.559 303.836C127.07 303.178 126.465 302.85 125.742 302.85C125.059 302.85 124.476 303.178 123.994 303.836C123.512 304.493 123.271 305.486 123.271 306.814ZM131.865 312V302.996H130.586V301.629H131.865V300.525C131.865 299.712 131.95 299.103 132.119 298.699C132.288 298.289 132.546 297.977 132.891 297.762C133.242 297.547 133.682 297.439 134.209 297.439C134.619 297.439 135.068 297.498 135.557 297.615L135.342 299.148C135.042 299.083 134.759 299.051 134.492 299.051C134.062 299.051 133.753 299.165 133.564 299.393C133.382 299.614 133.291 300.04 133.291 300.672V301.629H134.951V302.996H133.291V312H131.865ZM143.809 310.428L144.004 311.98C143.607 312.085 143.249 312.137 142.93 312.137C142.428 312.137 142.025 312.039 141.719 311.844C141.413 311.642 141.201 311.368 141.084 311.023C140.973 310.678 140.918 309.992 140.918 308.963V302.996H139.863V301.629H140.918V299.061L142.354 298.006V301.629H143.809V302.996H142.354V309.061C142.354 309.62 142.396 309.982 142.48 310.145C142.604 310.379 142.835 310.496 143.174 310.496C143.337 310.496 143.548 310.473 143.809 310.428ZM145.166 312V297.684H146.602V302.82C146.94 302.345 147.321 301.99 147.744 301.756C148.174 301.515 148.646 301.395 149.16 301.395C150.065 301.395 150.778 301.684 151.299 302.264C151.826 302.837 152.09 303.891 152.09 305.428V312H150.654V305.428C150.654 304.529 150.495 303.885 150.176 303.494C149.857 303.104 149.417 302.908 148.857 302.908C148.232 302.908 147.699 303.159 147.256 303.66C146.82 304.161 146.602 305.05 146.602 306.326V312H145.166ZM160.107 308.66L161.592 308.885C161.344 309.992 160.895 310.828 160.244 311.395C159.6 311.954 158.799 312.234 157.842 312.234C156.637 312.234 155.661 311.779 154.912 310.867C154.17 309.949 153.799 308.628 153.799 306.902C153.799 305.112 154.173 303.748 154.922 302.811C155.677 301.867 156.631 301.395 157.783 301.395C158.883 301.395 159.801 301.857 160.537 302.781C161.273 303.706 161.641 305.044 161.641 306.795L161.631 307.264H155.283C155.342 308.429 155.612 309.308 156.094 309.9C156.576 310.493 157.161 310.789 157.852 310.789C158.932 310.789 159.684 310.079 160.107 308.66ZM155.371 305.818H160.117C160.052 304.92 159.86 304.249 159.541 303.807C159.079 303.162 158.49 302.84 157.773 302.84C157.129 302.84 156.579 303.11 156.123 303.65C155.667 304.184 155.417 304.907 155.371 305.818ZM173.525 310.721C173.044 311.222 172.542 311.6 172.021 311.854C171.501 312.107 170.96 312.234 170.4 312.234C169.515 312.234 168.809 311.967 168.281 311.434C167.754 310.9 167.49 310.18 167.49 309.275C167.49 308.676 167.614 308.146 167.861 307.684C168.109 307.221 168.447 306.86 168.877 306.6C169.307 306.339 169.958 306.147 170.83 306.023C172.002 305.854 172.861 305.652 173.408 305.418L173.418 304.969C173.418 304.259 173.291 303.761 173.037 303.475C172.679 303.058 172.129 302.85 171.387 302.85C170.716 302.85 170.215 302.99 169.883 303.27C169.551 303.543 169.307 304.061 169.15 304.822L167.734 304.588C167.936 303.475 168.343 302.664 168.955 302.156C169.574 301.648 170.456 301.395 171.602 301.395C172.493 301.395 173.193 301.564 173.701 301.902C174.209 302.234 174.528 302.648 174.658 303.143C174.795 303.637 174.863 304.36 174.863 305.311V307.654C174.863 309.295 174.893 310.33 174.951 310.76C175.016 311.183 175.14 311.596 175.322 312H173.818C173.669 311.642 173.571 311.215 173.525 310.721ZM173.408 306.795C172.881 307.055 172.096 307.277 171.055 307.459C170.449 307.563 170.026 307.684 169.785 307.82C169.544 307.951 169.355 308.139 169.219 308.387C169.089 308.628 169.023 308.908 169.023 309.227C169.023 309.721 169.176 310.118 169.482 310.418C169.788 310.711 170.212 310.857 170.752 310.857C171.266 310.857 171.732 310.724 172.148 310.457C172.572 310.19 172.887 309.835 173.096 309.393C173.304 308.943 173.408 308.292 173.408 307.439V306.795ZM177.1 312V301.629H178.398V303.201C178.73 302.472 179.033 301.99 179.307 301.756C179.587 301.515 179.899 301.395 180.244 301.395C180.726 301.395 181.217 301.583 181.719 301.961L181.23 303.592C180.872 303.338 180.524 303.211 180.186 303.211C179.88 303.211 179.6 303.318 179.346 303.533C179.092 303.748 178.913 304.048 178.809 304.432C178.626 305.102 178.535 305.815 178.535 306.57V312H177.1ZM185.781 310.428L185.977 311.98C185.579 312.085 185.221 312.137 184.902 312.137C184.401 312.137 183.997 312.039 183.691 311.844C183.385 311.642 183.174 311.368 183.057 311.023C182.946 310.678 182.891 309.992 182.891 308.963V302.996H181.836V301.629H182.891V299.061L184.326 298.006V301.629H185.781V302.996H184.326V309.061C184.326 309.62 184.368 309.982 184.453 310.145C184.577 310.379 184.808 310.496 185.146 310.496C185.309 310.496 185.521 310.473 185.781 310.428ZM188.701 312L186.104 301.629H187.598L188.945 307.615L189.443 309.842L189.893 307.703L191.24 301.629H192.725L193.994 307.645L194.424 309.627L194.912 307.625L196.367 301.629H197.773L195.107 312H193.613L192.256 305.789L191.934 304.021L190.215 312H188.701ZM198.438 306.814C198.438 305.024 198.812 303.673 199.561 302.762C200.316 301.85 201.27 301.395 202.422 301.395C203.555 301.395 204.502 301.85 205.264 302.762C206.025 303.673 206.406 304.988 206.406 306.707C206.406 308.569 206.032 309.956 205.283 310.867C204.535 311.779 203.581 312.234 202.422 312.234C201.283 312.234 200.332 311.779 199.57 310.867C198.815 309.949 198.438 308.598 198.438 306.814ZM199.912 306.814C199.912 308.156 200.156 309.155 200.645 309.812C201.133 310.464 201.738 310.789 202.461 310.789C203.138 310.789 203.717 310.46 204.199 309.803C204.688 309.139 204.932 308.143 204.932 306.814C204.932 305.48 204.688 304.487 204.199 303.836C203.711 303.178 203.105 302.85 202.383 302.85C201.699 302.85 201.117 303.178 200.635 303.836C200.153 304.493 199.912 305.486 199.912 306.814ZM208.096 312V301.629H209.395V303.201C209.727 302.472 210.029 301.99 210.303 301.756C210.583 301.515 210.895 301.395 211.24 301.395C211.722 301.395 212.214 301.583 212.715 301.961L212.227 303.592C211.868 303.338 211.52 303.211 211.182 303.211C210.876 303.211 210.596 303.318 210.342 303.533C210.088 303.748 209.909 304.048 209.805 304.432C209.622 305.102 209.531 305.815 209.531 306.57V312H208.096ZM213.604 312V297.684H215.039V305.848L218.457 301.629H220.322L217.07 305.477L220.645 312H218.877L216.055 306.697L215.039 307.889V312H213.604ZM229.551 310.428L229.746 311.98C229.349 312.085 228.991 312.137 228.672 312.137C228.171 312.137 227.767 312.039 227.461 311.844C227.155 311.642 226.943 311.368 226.826 311.023C226.715 310.678 226.66 309.992 226.66 308.963V302.996H225.605V301.629H226.66V299.061L228.096 298.006V301.629H229.551V302.996H228.096V309.061C228.096 309.62 228.138 309.982 228.223 310.145C228.346 310.379 228.577 310.496 228.916 310.496C229.079 310.496 229.29 310.473 229.551 310.428ZM230.908 312V297.684H232.344V302.82C232.682 302.345 233.063 301.99 233.486 301.756C233.916 301.515 234.388 301.395 234.902 301.395C235.807 301.395 236.52 301.684 237.041 302.264C237.568 302.837 237.832 303.891 237.832 305.428V312H236.396V305.428C236.396 304.529 236.237 303.885 235.918 303.494C235.599 303.104 235.16 302.908 234.6 302.908C233.975 302.908 233.441 303.159 232.998 303.66C232.562 304.161 232.344 305.05 232.344 306.326V312H230.908ZM245.576 310.721C245.094 311.222 244.593 311.6 244.072 311.854C243.551 312.107 243.011 312.234 242.451 312.234C241.566 312.234 240.859 311.967 240.332 311.434C239.805 310.9 239.541 310.18 239.541 309.275C239.541 308.676 239.665 308.146 239.912 307.684C240.16 307.221 240.498 306.86 240.928 306.6C241.357 306.339 242.008 306.147 242.881 306.023C244.053 305.854 244.912 305.652 245.459 305.418L245.469 304.969C245.469 304.259 245.342 303.761 245.088 303.475C244.73 303.058 244.18 302.85 243.438 302.85C242.767 302.85 242.266 302.99 241.934 303.27C241.602 303.543 241.357 304.061 241.201 304.822L239.785 304.588C239.987 303.475 240.394 302.664 241.006 302.156C241.624 301.648 242.507 301.395 243.652 301.395C244.544 301.395 245.244 301.564 245.752 301.902C246.26 302.234 246.579 302.648 246.709 303.143C246.846 303.637 246.914 304.36 246.914 305.311V307.654C246.914 309.295 246.943 310.33 247.002 310.76C247.067 311.183 247.191 311.596 247.373 312H245.869C245.719 311.642 245.622 311.215 245.576 310.721ZM245.459 306.795C244.932 307.055 244.147 307.277 243.105 307.459C242.5 307.563 242.077 307.684 241.836 307.82C241.595 307.951 241.406 308.139 241.27 308.387C241.139 308.628 241.074 308.908 241.074 309.227C241.074 309.721 241.227 310.118 241.533 310.418C241.839 310.711 242.262 310.857 242.803 310.857C243.317 310.857 243.783 310.724 244.199 310.457C244.622 310.19 244.938 309.835 245.146 309.393C245.355 308.943 245.459 308.292 245.459 307.439V306.795ZM252.363 310.428L252.559 311.98C252.161 312.085 251.803 312.137 251.484 312.137C250.983 312.137 250.579 312.039 250.273 311.844C249.967 311.642 249.756 311.368 249.639 311.023C249.528 310.678 249.473 309.992 249.473 308.963V302.996H248.418V301.629H249.473V299.061L250.908 298.006V301.629H252.363V302.996H250.908V309.061C250.908 309.62 250.951 309.982 251.035 310.145C251.159 310.379 251.39 310.496 251.729 310.496C251.891 310.496 252.103 310.473 252.363 310.428ZM257.754 306.814C257.754 305.024 258.128 303.673 258.877 302.762C259.632 301.85 260.586 301.395 261.738 301.395C262.871 301.395 263.818 301.85 264.58 302.762C265.342 303.673 265.723 304.988 265.723 306.707C265.723 308.569 265.348 309.956 264.6 310.867C263.851 311.779 262.897 312.234 261.738 312.234C260.599 312.234 259.648 311.779 258.887 310.867C258.132 309.949 257.754 308.598 257.754 306.814ZM259.229 306.814C259.229 308.156 259.473 309.155 259.961 309.812C260.449 310.464 261.055 310.789 261.777 310.789C262.454 310.789 263.034 310.46 263.516 309.803C264.004 309.139 264.248 308.143 264.248 306.814C264.248 305.48 264.004 304.487 263.516 303.836C263.027 303.178 262.422 302.85 261.699 302.85C261.016 302.85 260.433 303.178 259.951 303.836C259.469 304.493 259.229 305.486 259.229 306.814ZM272.988 312V310.477C272.656 311.062 272.266 311.502 271.816 311.795C271.367 312.088 270.859 312.234 270.293 312.234C269.622 312.234 269.049 312.055 268.574 311.697C268.099 311.333 267.78 310.874 267.617 310.32C267.461 309.767 267.383 309.012 267.383 308.055V301.629H268.818V307.381C268.818 308.449 268.87 309.165 268.975 309.529C269.085 309.887 269.284 310.177 269.57 310.398C269.863 310.613 270.195 310.721 270.566 310.721C271.257 310.721 271.823 310.438 272.266 309.871C272.643 309.383 272.832 308.488 272.832 307.186V301.629H274.277V312H272.988ZM276.533 312V301.629H277.832V303.201C278.164 302.472 278.467 301.99 278.74 301.756C279.02 301.515 279.333 301.395 279.678 301.395C280.16 301.395 280.651 301.583 281.152 301.961L280.664 303.592C280.306 303.338 279.958 303.211 279.619 303.211C279.313 303.211 279.033 303.318 278.779 303.533C278.525 303.748 278.346 304.048 278.242 304.432C278.06 305.102 277.969 305.815 277.969 306.57V312H276.533ZM290.791 312V308.572H285.703V306.961L291.064 297.684H292.236V306.961H293.828V308.572H292.236V312H290.791ZM290.791 306.961V300.506L287.119 306.961H290.791ZM295.293 304.939C295.293 302.537 295.615 300.717 296.26 299.48C296.911 298.243 297.868 297.625 299.131 297.625C300.251 297.625 301.133 298.126 301.777 299.129C302.559 300.34 302.949 302.277 302.949 304.939C302.949 307.329 302.627 309.145 301.982 310.389C301.338 311.626 300.381 312.244 299.111 312.244C297.992 312.244 297.074 311.697 296.357 310.604C295.648 309.51 295.293 307.622 295.293 304.939ZM296.768 304.939C296.768 307.264 296.989 308.823 297.432 309.617C297.881 310.405 298.454 310.799 299.15 310.799C299.808 310.799 300.358 310.398 300.801 309.598C301.243 308.797 301.465 307.244 301.465 304.939C301.465 302.609 301.24 301.049 300.791 300.262C300.348 299.474 299.772 299.08 299.062 299.08C298.411 299.08 297.865 299.48 297.422 300.281C296.986 301.082 296.768 302.635 296.768 304.939ZM304.414 304.939C304.414 302.537 304.736 300.717 305.381 299.48C306.032 298.243 306.989 297.625 308.252 297.625C309.372 297.625 310.254 298.126 310.898 299.129C311.68 300.34 312.07 302.277 312.07 304.939C312.07 307.329 311.748 309.145 311.104 310.389C310.459 311.626 309.502 312.244 308.232 312.244C307.113 312.244 306.195 311.697 305.479 310.604C304.769 309.51 304.414 307.622 304.414 304.939ZM305.889 304.939C305.889 307.264 306.11 308.823 306.553 309.617C307.002 310.405 307.575 310.799 308.271 310.799C308.929 310.799 309.479 310.398 309.922 309.598C310.365 308.797 310.586 307.244 310.586 304.939C310.586 302.609 310.361 301.049 309.912 300.262C309.469 299.474 308.893 299.08 308.184 299.08C307.533 299.08 306.986 299.48 306.543 300.281C306.107 301.082 305.889 302.635 305.889 304.939ZM313.398 307.703V305.936H317.822V307.703H313.398ZM37.7148 335V324.629H39.0039V326.084C39.2904 325.544 39.6582 325.127 40.1074 324.834C40.5566 324.541 41.0482 324.395 41.582 324.395C42.181 324.395 42.6855 324.551 43.0957 324.863C43.5124 325.169 43.8086 325.618 43.9844 326.211C44.3229 325.605 44.7103 325.153 45.1465 324.854C45.5892 324.548 46.0775 324.395 46.6113 324.395C47.4251 324.395 48.0664 324.671 48.5352 325.225C49.0039 325.778 49.2383 326.663 49.2383 327.881V335H47.8027V328.467C47.8027 327.725 47.7474 327.201 47.6367 326.895C47.5326 326.582 47.36 326.341 47.1191 326.172C46.8783 326.003 46.6081 325.918 46.3086 325.918C45.6901 325.918 45.1855 326.165 44.7949 326.66C44.4043 327.148 44.209 327.92 44.209 328.975V335H42.7637V328.262C42.7637 327.402 42.6302 326.797 42.3633 326.445C42.1029 326.094 41.7415 325.918 41.2793 325.918C40.6217 325.918 40.1009 326.185 39.7168 326.719C39.3392 327.246 39.1504 328.213 39.1504 329.619V335H37.7148ZM57.1875 331.66L58.6719 331.885C58.4245 332.992 57.9753 333.828 57.3242 334.395C56.6797 334.954 55.8789 335.234 54.9219 335.234C53.7174 335.234 52.7409 334.779 51.9922 333.867C51.25 332.949 50.8789 331.628 50.8789 329.902C50.8789 328.112 51.2533 326.748 52.002 325.811C52.7572 324.867 53.7109 324.395 54.8633 324.395C55.9635 324.395 56.8815 324.857 57.6172 325.781C58.3529 326.706 58.7207 328.044 58.7207 329.795L58.7109 330.264H52.3633C52.4219 331.429 52.6921 332.308 53.1738 332.9C53.6556 333.493 54.2415 333.789 54.9316 333.789C56.0124 333.789 56.7643 333.079 57.1875 331.66ZM52.4512 328.818H57.1973C57.1322 327.92 56.9401 327.249 56.6211 326.807C56.1589 326.162 55.5697 325.84 54.8535 325.84C54.209 325.84 53.6589 326.11 53.2031 326.65C52.7474 327.184 52.4967 327.907 52.4512 328.818ZM60.5078 335V324.629H61.7969V326.084C62.0833 325.544 62.4512 325.127 62.9004 324.834C63.3496 324.541 63.8411 324.395 64.375 324.395C64.974 324.395 65.4785 324.551 65.8887 324.863C66.3053 325.169 66.6016 325.618 66.7773 326.211C67.1159 325.605 67.5033 325.153 67.9395 324.854C68.3822 324.548 68.8704 324.395 69.4043 324.395C70.2181 324.395 70.8594 324.671 71.3281 325.225C71.7969 325.778 72.0312 326.663 72.0312 327.881V335H70.5957V328.467C70.5957 327.725 70.5404 327.201 70.4297 326.895C70.3255 326.582 70.153 326.341 69.9121 326.172C69.6712 326.003 69.401 325.918 69.1016 325.918C68.4831 325.918 67.9785 326.165 67.5879 326.66C67.1973 327.148 67.002 327.92 67.002 328.975V335H65.5566V328.262C65.5566 327.402 65.4232 326.797 65.1562 326.445C64.8958 326.094 64.5345 325.918 64.0723 325.918C63.4147 325.918 62.8939 326.185 62.5098 326.719C62.1322 327.246 61.9434 328.213 61.9434 329.619V335H60.5078ZM75.4883 335H74.1504V320.684H75.5859V325.791C75.8919 325.322 76.237 324.974 76.6211 324.746C77.0117 324.512 77.4447 324.395 77.9199 324.395C78.584 324.395 79.1862 324.593 79.7266 324.99C80.2734 325.387 80.7096 325.99 81.0352 326.797C81.3607 327.604 81.5234 328.584 81.5234 329.736C81.5234 331.494 81.1556 332.852 80.4199 333.809C79.6842 334.759 78.8249 335.234 77.8418 335.234C77.347 335.234 76.901 335.107 76.5039 334.854C76.1133 334.593 75.7747 334.209 75.4883 333.701V335ZM75.4688 329.736C75.4688 330.811 75.5664 331.615 75.7617 332.148C75.957 332.682 76.2337 333.089 76.5918 333.369C76.9499 333.649 77.347 333.789 77.7832 333.789C78.3757 333.789 78.8997 333.457 79.3555 332.793C79.8177 332.122 80.0488 331.123 80.0488 329.795C80.0488 328.434 79.8275 327.435 79.3848 326.797C78.9421 326.159 78.3984 325.84 77.7539 325.84C77.1615 325.84 76.6309 326.175 76.1621 326.846C75.6999 327.51 75.4688 328.473 75.4688 329.736ZM89.1016 331.66L90.5859 331.885C90.3385 332.992 89.8893 333.828 89.2383 334.395C88.5938 334.954 87.793 335.234 86.8359 335.234C85.6315 335.234 84.6549 334.779 83.9062 333.867C83.1641 332.949 82.793 331.628 82.793 329.902C82.793 328.112 83.1673 326.748 83.916 325.811C84.6712 324.867 85.625 324.395 86.7773 324.395C87.8776 324.395 88.7956 324.857 89.5312 325.781C90.2669 326.706 90.6348 328.044 90.6348 329.795L90.625 330.264H84.2773C84.3359 331.429 84.6061 332.308 85.0879 332.9C85.5697 333.493 86.1556 333.789 86.8457 333.789C87.9264 333.789 88.6784 333.079 89.1016 331.66ZM84.3652 328.818H89.1113C89.0462 327.92 88.8542 327.249 88.5352 326.807C88.0729 326.162 87.4837 325.84 86.7676 325.84C86.123 325.84 85.5729 326.11 85.1172 326.65C84.6615 327.184 84.4108 327.907 84.3652 328.818ZM92.4023 335V324.629H93.7012V326.201C94.0332 325.472 94.3359 324.99 94.6094 324.756C94.8893 324.515 95.2018 324.395 95.5469 324.395C96.0286 324.395 96.5202 324.583 97.0215 324.961L96.5332 326.592C96.1751 326.338 95.8268 326.211 95.4883 326.211C95.1823 326.211 94.9023 326.318 94.6484 326.533C94.3945 326.748 94.2155 327.048 94.1113 327.432C93.929 328.102 93.8379 328.815 93.8379 329.57V335H92.4023ZM108.018 331.201L109.434 331.426C109.271 332.663 108.861 333.607 108.203 334.258C107.552 334.909 106.768 335.234 105.85 335.234C104.736 335.234 103.818 334.779 103.096 333.867C102.38 332.949 102.021 331.595 102.021 329.805C102.021 328.001 102.383 326.65 103.105 325.752C103.835 324.847 104.769 324.395 105.908 324.395C106.787 324.395 107.526 324.668 108.125 325.215C108.73 325.762 109.118 326.582 109.287 327.676L107.891 327.939C107.754 327.236 107.516 326.712 107.178 326.367C106.839 326.016 106.432 325.84 105.957 325.84C105.247 325.84 104.658 326.156 104.189 326.787C103.727 327.412 103.496 328.408 103.496 329.775C103.496 331.188 103.717 332.21 104.16 332.842C104.609 333.473 105.182 333.789 105.879 333.789C106.426 333.789 106.891 333.581 107.275 333.164C107.666 332.741 107.913 332.087 108.018 331.201ZM110.107 329.814C110.107 328.024 110.482 326.673 111.23 325.762C111.986 324.85 112.939 324.395 114.092 324.395C115.225 324.395 116.172 324.85 116.934 325.762C117.695 326.673 118.076 327.988 118.076 329.707C118.076 331.569 117.702 332.956 116.953 333.867C116.204 334.779 115.251 335.234 114.092 335.234C112.952 335.234 112.002 334.779 111.24 333.867C110.485 332.949 110.107 331.598 110.107 329.814ZM111.582 329.814C111.582 331.156 111.826 332.155 112.314 332.812C112.803 333.464 113.408 333.789 114.131 333.789C114.808 333.789 115.387 333.46 115.869 332.803C116.357 332.139 116.602 331.143 116.602 329.814C116.602 328.48 116.357 327.487 115.869 326.836C115.381 326.178 114.775 325.85 114.053 325.85C113.369 325.85 112.786 326.178 112.305 326.836C111.823 327.493 111.582 328.486 111.582 329.814ZM119.785 335V324.629H121.074V326.084C121.361 325.544 121.729 325.127 122.178 324.834C122.627 324.541 123.118 324.395 123.652 324.395C124.251 324.395 124.756 324.551 125.166 324.863C125.583 325.169 125.879 325.618 126.055 326.211C126.393 325.605 126.781 325.153 127.217 324.854C127.66 324.548 128.148 324.395 128.682 324.395C129.495 324.395 130.137 324.671 130.605 325.225C131.074 325.778 131.309 326.663 131.309 327.881V335H129.873V328.467C129.873 327.725 129.818 327.201 129.707 326.895C129.603 326.582 129.43 326.341 129.189 326.172C128.949 326.003 128.678 325.918 128.379 325.918C127.76 325.918 127.256 326.165 126.865 326.66C126.475 327.148 126.279 327.92 126.279 328.975V335H124.834V328.262C124.834 327.402 124.701 326.797 124.434 326.445C124.173 326.094 123.812 325.918 123.35 325.918C122.692 325.918 122.171 326.185 121.787 326.719C121.41 327.246 121.221 328.213 121.221 329.619V335H119.785ZM133.457 335V324.629H134.746V326.084C135.033 325.544 135.4 325.127 135.85 324.834C136.299 324.541 136.79 324.395 137.324 324.395C137.923 324.395 138.428 324.551 138.838 324.863C139.255 325.169 139.551 325.618 139.727 326.211C140.065 325.605 140.452 325.153 140.889 324.854C141.331 324.548 141.82 324.395 142.354 324.395C143.167 324.395 143.809 324.671 144.277 325.225C144.746 325.778 144.98 326.663 144.98 327.881V335H143.545V328.467C143.545 327.725 143.49 327.201 143.379 326.895C143.275 326.582 143.102 326.341 142.861 326.172C142.62 326.003 142.35 325.918 142.051 325.918C141.432 325.918 140.928 326.165 140.537 326.66C140.146 327.148 139.951 327.92 139.951 328.975V335H138.506V328.262C138.506 327.402 138.372 326.797 138.105 326.445C137.845 326.094 137.484 325.918 137.021 325.918C136.364 325.918 135.843 326.185 135.459 326.719C135.081 327.246 134.893 328.213 134.893 329.619V335H133.457ZM152.686 335V333.477C152.354 334.062 151.963 334.502 151.514 334.795C151.064 335.088 150.557 335.234 149.99 335.234C149.32 335.234 148.747 335.055 148.271 334.697C147.796 334.333 147.477 333.874 147.314 333.32C147.158 332.767 147.08 332.012 147.08 331.055V324.629H148.516V330.381C148.516 331.449 148.568 332.165 148.672 332.529C148.783 332.887 148.981 333.177 149.268 333.398C149.561 333.613 149.893 333.721 150.264 333.721C150.954 333.721 151.52 333.438 151.963 332.871C152.34 332.383 152.529 331.488 152.529 330.186V324.629H153.975V335H152.686ZM156.23 335V324.629H157.529V326.104C157.842 325.531 158.223 325.104 158.672 324.824C159.128 324.538 159.648 324.395 160.234 324.395C160.69 324.395 161.11 324.486 161.494 324.668C161.885 324.844 162.197 325.078 162.432 325.371C162.673 325.658 162.852 326.032 162.969 326.494C163.086 326.956 163.145 327.666 163.145 328.623V335H161.699V328.691C161.699 327.93 161.634 327.373 161.504 327.021C161.374 326.67 161.169 326.4 160.889 326.211C160.615 326.016 160.296 325.918 159.932 325.918C159.242 325.918 158.691 326.175 158.281 326.689C157.871 327.204 157.666 328.086 157.666 329.336V335H156.23ZM165.352 322.705V320.684H166.787V322.705H165.352ZM165.352 335V324.629H166.787V335H165.352ZM172.217 333.428L172.412 334.98C172.015 335.085 171.657 335.137 171.338 335.137C170.837 335.137 170.433 335.039 170.127 334.844C169.821 334.642 169.609 334.368 169.492 334.023C169.382 333.678 169.326 332.992 169.326 331.963V325.996H168.271V324.629H169.326V322.061L170.762 321.006V324.629H172.217V325.996H170.762V332.061C170.762 332.62 170.804 332.982 170.889 333.145C171.012 333.379 171.243 333.496 171.582 333.496C171.745 333.496 171.956 333.473 172.217 333.428ZM173.535 338.994L173.379 337.344C173.698 337.448 173.971 337.5 174.199 337.5C174.505 337.5 174.756 337.438 174.951 337.314C175.153 337.191 175.319 336.999 175.449 336.738C175.495 336.647 175.684 336.074 176.016 335.02L172.783 324.629H174.336L176.113 330.635C176.335 331.383 176.54 332.184 176.729 333.037C176.891 332.23 177.087 331.442 177.314 330.674L179.131 324.629H180.576L177.344 335.176C176.921 336.543 176.585 337.454 176.338 337.91C176.097 338.372 175.82 338.704 175.508 338.906C175.202 339.108 174.854 339.209 174.463 339.209C174.189 339.209 173.88 339.137 173.535 338.994ZM191.865 335V333.691C191.605 334.193 191.27 334.577 190.859 334.844C190.449 335.104 190.007 335.234 189.531 335.234C188.529 335.234 187.66 334.762 186.924 333.818C186.195 332.868 185.83 331.533 185.83 329.814C185.83 328.636 185.993 327.637 186.318 326.816C186.644 325.996 187.077 325.387 187.617 324.99C188.164 324.593 188.77 324.395 189.434 324.395C189.909 324.395 190.348 324.521 190.752 324.775C191.162 325.023 191.501 325.371 191.768 325.82V320.684H193.213V335H191.865ZM187.305 329.824C187.305 331.165 187.536 332.161 187.998 332.812C188.467 333.464 189.01 333.789 189.629 333.789C190.241 333.789 190.771 333.477 191.221 332.852C191.67 332.227 191.895 331.283 191.895 330.02C191.895 328.568 191.67 327.51 191.221 326.846C190.771 326.175 190.205 325.84 189.521 325.84C188.916 325.84 188.395 326.162 187.959 326.807C187.523 327.445 187.305 328.451 187.305 329.824ZM195.469 335V324.629H196.768V326.201C197.1 325.472 197.402 324.99 197.676 324.756C197.956 324.515 198.268 324.395 198.613 324.395C199.095 324.395 199.587 324.583 200.088 324.961L199.6 326.592C199.242 326.338 198.893 326.211 198.555 326.211C198.249 326.211 197.969 326.318 197.715 326.533C197.461 326.748 197.282 327.048 197.178 327.432C196.995 328.102 196.904 328.815 196.904 329.57V335H195.469ZM206.484 333.721C206.003 334.222 205.501 334.6 204.98 334.854C204.46 335.107 203.919 335.234 203.359 335.234C202.474 335.234 201.768 334.967 201.24 334.434C200.713 333.9 200.449 333.18 200.449 332.275C200.449 331.676 200.573 331.146 200.82 330.684C201.068 330.221 201.406 329.86 201.836 329.6C202.266 329.339 202.917 329.147 203.789 329.023C204.961 328.854 205.82 328.652 206.367 328.418L206.377 327.969C206.377 327.259 206.25 326.761 205.996 326.475C205.638 326.058 205.088 325.85 204.346 325.85C203.675 325.85 203.174 325.99 202.842 326.27C202.51 326.543 202.266 327.061 202.109 327.822L200.693 327.588C200.895 326.475 201.302 325.664 201.914 325.156C202.533 324.648 203.415 324.395 204.561 324.395C205.452 324.395 206.152 324.564 206.66 324.902C207.168 325.234 207.487 325.648 207.617 326.143C207.754 326.637 207.822 327.36 207.822 328.311V330.654C207.822 332.295 207.852 333.33 207.91 333.76C207.975 334.183 208.099 334.596 208.281 335H206.777C206.628 334.642 206.53 334.215 206.484 333.721ZM206.367 329.795C205.84 330.055 205.055 330.277 204.014 330.459C203.408 330.563 202.985 330.684 202.744 330.82C202.503 330.951 202.314 331.139 202.178 331.387C202.048 331.628 201.982 331.908 201.982 332.227C201.982 332.721 202.135 333.118 202.441 333.418C202.747 333.711 203.171 333.857 203.711 333.857C204.225 333.857 204.691 333.724 205.107 333.457C205.531 333.19 205.846 332.835 206.055 332.393C206.263 331.943 206.367 331.292 206.367 330.439V329.795ZM211.621 335L209.023 324.629H210.518L211.865 330.615L212.363 332.842L212.812 330.703L214.16 324.629H215.645L216.914 330.645L217.344 332.627L217.832 330.625L219.287 324.629H220.693L218.027 335H216.533L215.176 328.789L214.854 327.021L213.135 335H211.621ZM221.348 331.904L222.773 331.631C222.858 332.36 223.089 332.904 223.467 333.262C223.844 333.613 224.346 333.789 224.971 333.789C225.596 333.789 226.077 333.636 226.416 333.33C226.761 333.018 226.934 332.624 226.934 332.148C226.934 331.738 226.787 331.419 226.494 331.191C226.292 331.035 225.804 330.84 225.029 330.605C223.91 330.26 223.161 329.967 222.783 329.727C222.406 329.486 222.113 329.163 221.904 328.76C221.696 328.356 221.592 327.897 221.592 327.383C221.592 326.497 221.875 325.778 222.441 325.225C223.008 324.671 223.792 324.395 224.795 324.395C225.426 324.395 225.98 324.508 226.455 324.736C226.937 324.964 227.305 325.27 227.559 325.654C227.812 326.038 227.988 326.589 228.086 327.305L226.68 327.539C226.549 326.406 225.934 325.84 224.834 325.84C224.209 325.84 223.743 325.967 223.438 326.221C223.132 326.468 222.979 326.787 222.979 327.178C222.979 327.562 223.125 327.865 223.418 328.086C223.594 328.216 224.115 328.424 224.98 328.711C226.172 329.095 226.943 329.401 227.295 329.629C227.646 329.85 227.92 330.156 228.115 330.547C228.311 330.931 228.408 331.39 228.408 331.924C228.408 332.913 228.092 333.714 227.461 334.326C226.836 334.938 225.98 335.244 224.893 335.244C222.855 335.244 221.673 334.131 221.348 331.904ZM235.078 335V325.996H233.799V324.629H235.078V323.525C235.078 322.712 235.163 322.103 235.332 321.699C235.501 321.289 235.758 320.977 236.104 320.762C236.455 320.547 236.895 320.439 237.422 320.439C237.832 320.439 238.281 320.498 238.77 320.615L238.555 322.148C238.255 322.083 237.972 322.051 237.705 322.051C237.275 322.051 236.966 322.165 236.777 322.393C236.595 322.614 236.504 323.04 236.504 323.672V324.629H238.164V325.996H236.504V335H235.078ZM238.701 329.814C238.701 328.024 239.076 326.673 239.824 325.762C240.579 324.85 241.533 324.395 242.686 324.395C243.818 324.395 244.766 324.85 245.527 325.762C246.289 326.673 246.67 327.988 246.67 329.707C246.67 331.569 246.296 332.956 245.547 333.867C244.798 334.779 243.844 335.234 242.686 335.234C241.546 335.234 240.596 334.779 239.834 333.867C239.079 332.949 238.701 331.598 238.701 329.814ZM240.176 329.814C240.176 331.156 240.42 332.155 240.908 332.812C241.396 333.464 242.002 333.789 242.725 333.789C243.402 333.789 243.981 333.46 244.463 332.803C244.951 332.139 245.195 331.143 245.195 329.814C245.195 328.48 244.951 327.487 244.463 326.836C243.975 326.178 243.369 325.85 242.646 325.85C241.963 325.85 241.38 326.178 240.898 326.836C240.417 327.493 240.176 328.486 240.176 329.814ZM248.359 335V324.629H249.658V326.201C249.99 325.472 250.293 324.99 250.566 324.756C250.846 324.515 251.159 324.395 251.504 324.395C251.986 324.395 252.477 324.583 252.979 324.961L252.49 326.592C252.132 326.338 251.784 326.211 251.445 326.211C251.139 326.211 250.859 326.318 250.605 326.533C250.352 326.748 250.173 327.048 250.068 327.432C249.886 328.102 249.795 328.815 249.795 329.57V335H248.359ZM258.359 338.994L258.203 337.344C258.522 337.448 258.796 337.5 259.023 337.5C259.329 337.5 259.58 337.438 259.775 337.314C259.977 337.191 260.143 336.999 260.273 336.738C260.319 336.647 260.508 336.074 260.84 335.02L257.607 324.629H259.16L260.938 330.635C261.159 331.383 261.364 332.184 261.553 333.037C261.715 332.23 261.911 331.442 262.139 330.674L263.955 324.629H265.4L262.168 335.176C261.745 336.543 261.41 337.454 261.162 337.91C260.921 338.372 260.645 338.704 260.332 338.906C260.026 339.108 259.678 339.209 259.287 339.209C259.014 339.209 258.704 339.137 258.359 338.994ZM266.064 329.814C266.064 328.024 266.439 326.673 267.188 325.762C267.943 324.85 268.896 324.395 270.049 324.395C271.182 324.395 272.129 324.85 272.891 325.762C273.652 326.673 274.033 327.988 274.033 329.707C274.033 331.569 273.659 332.956 272.91 333.867C272.161 334.779 271.208 335.234 270.049 335.234C268.91 335.234 267.959 334.779 267.197 333.867C266.442 332.949 266.064 331.598 266.064 329.814ZM267.539 329.814C267.539 331.156 267.783 332.155 268.271 332.812C268.76 333.464 269.365 333.789 270.088 333.789C270.765 333.789 271.344 333.46 271.826 332.803C272.314 332.139 272.559 331.143 272.559 329.814C272.559 328.48 272.314 327.487 271.826 326.836C271.338 326.178 270.732 325.85 270.01 325.85C269.326 325.85 268.743 326.178 268.262 326.836C267.78 327.493 267.539 328.486 267.539 329.814ZM281.299 335V333.477C280.967 334.062 280.576 334.502 280.127 334.795C279.678 335.088 279.17 335.234 278.604 335.234C277.933 335.234 277.36 335.055 276.885 334.697C276.41 334.333 276.09 333.874 275.928 333.32C275.771 332.767 275.693 332.012 275.693 331.055V324.629H277.129V330.381C277.129 331.449 277.181 332.165 277.285 332.529C277.396 332.887 277.594 333.177 277.881 333.398C278.174 333.613 278.506 333.721 278.877 333.721C279.567 333.721 280.133 333.438 280.576 332.871C280.954 332.383 281.143 331.488 281.143 330.186V324.629H282.588V335H281.299ZM285.303 335V332.998H286.943V335H285.303Z" fill="white"/>
</svg>
