<svg width="53" height="17" viewBox="0 0 53 17" fill="none" xmlns="http://www.w3.org/2000/svg">
<rect x="14.0664" y="14.0664" width="2.76303" height="2.76303" fill="black"/>
<rect x="36.1699" y="14.0664" width="2.76303" height="2.76303" fill="black"/>
<rect x="16.8301" y="14.0664" width="2.76303" height="2.76303" fill="black"/>
<rect x="38.9336" y="14.0664" width="3.01422" height="2.76303" fill="black"/>
<rect x="19.5918" y="14.0664" width="2.76303" height="2.76303" fill="black"/>
<rect x="41.9473" y="14.0664" width="2.76303" height="2.76303" fill="black"/>
<rect x="19.5918" y="11.3027" width="2.76303" height="2.76303" fill="white"/>
<rect x="41.9473" y="11.3027" width="2.76303" height="2.76303" fill="white"/>
<rect x="16.8301" y="11.3027" width="2.76303" height="2.76303" fill="black"/>
<rect x="38.9336" y="11.3027" width="3.01422" height="2.76303" fill="black"/>
<rect x="14.0664" y="11.3027" width="2.76303" height="2.76303" fill="black"/>
<rect x="36.1699" y="11.3027" width="2.76303" height="2.76303" fill="black"/>
<rect x="11.0527" y="11.3027" width="3.01422" height="2.76303" fill="black"/>
<rect x="33.4082" y="11.3027" width="2.76303" height="2.76303" fill="black"/>
<rect x="8.28906" y="8.54004" width="2.76303" height="2.76303" fill="black"/>
<rect x="30.6445" y="8.54004" width="2.76303" height="2.76303" fill="black"/>
<rect x="11.0527" y="8.54004" width="3.01422" height="2.76303" fill="black"/>
<rect x="33.4082" y="8.54004" width="2.76303" height="2.76303" fill="black"/>
<rect x="14.0664" y="8.54004" width="2.76303" height="2.76303" fill="black"/>
<rect x="36.1699" y="8.54004" width="2.76303" height="2.76303" fill="black"/>
<rect x="16.8301" y="8.54004" width="2.76303" height="2.76303" fill="black"/>
<rect x="38.9336" y="8.54004" width="3.01422" height="2.76303" fill="black"/>
<rect x="19.5918" y="8.54004" width="2.76303" height="2.76303" fill="black"/>
<rect x="41.9473" y="8.54004" width="2.76303" height="2.76303" fill="black"/>
<rect x="22.3555" y="8.54004" width="2.76303" height="2.76303" fill="white"/>
<rect x="44.7109" y="8.54004" width="2.76303" height="2.76303" fill="white"/>
<rect x="25.1191" y="8.54004" width="2.76303" height="2.76303" fill="black"/>
<rect x="47.4746" y="8.54004" width="2.76303" height="2.76303" fill="black"/>
<rect x="27.8809" y="5.77734" width="2.76303" height="2.76303" fill="black"/>
<rect x="5.52539" y="5.77734" width="2.76303" height="2.76303" fill="black"/>
<rect x="2.76367" y="2.7627" width="2.76303" height="3.01422" fill="black"/>
<rect width="2.76303" height="2.76303" fill="black"/>
<rect x="30.6445" y="5.77734" width="2.76303" height="2.76303" fill="black"/>
<rect x="8.28906" y="5.77734" width="2.76303" height="2.76303" fill="black"/>
<rect x="33.4082" y="5.77734" width="2.76303" height="2.76303" fill="black"/>
<rect x="11.0527" y="5.77734" width="3.01422" height="2.76303" fill="black"/>
<rect x="36.1699" y="5.77734" width="2.76303" height="2.76303" fill="black"/>
<rect x="14.0664" y="5.77734" width="2.76303" height="2.76303" fill="black"/>
<rect x="38.9336" y="5.77734" width="3.01422" height="2.76303" fill="black"/>
<rect x="16.8301" y="5.77734" width="2.76303" height="2.76303" fill="black"/>
<rect x="41.9473" y="5.77734" width="2.76303" height="2.76303" fill="black"/>
<rect x="19.5918" y="5.77734" width="2.76303" height="2.76303" fill="black"/>
<rect x="44.7109" y="5.77734" width="2.76303" height="2.76303" fill="black"/>
<rect x="22.3555" y="5.77734" width="2.76303" height="2.76303" fill="black"/>
<rect x="47.4746" y="5.77734" width="2.76303" height="2.76303" fill="black"/>
<rect x="47.4746" y="2.7627" width="2.76303" height="3.01422" fill="black"/>
<rect x="44.7109" width="2.76303" height="2.76303" fill="black"/>
<rect x="25.1191" y="5.77734" width="2.76303" height="2.76303" fill="black"/>
<rect x="50.2363" y="5.77734" width="2.76303" height="2.76303" fill="black"/>
<rect x="22.3555" y="11.3027" width="2.76303" height="2.76303" fill="black"/>
<rect x="44.7109" y="11.3027" width="2.76303" height="2.76303" fill="black"/>
</svg>
