<svg width="7309" height="4931" viewBox="0 0 7309 4931" fill="none" xmlns="http://www.w3.org/2000/svg">
<rect x="3355" y="325" width="50" height="50" fill="#FF80E3"/>
<rect x="3405" y="375" width="50" height="50" fill="#FF80E3"/>
<rect x="3405" y="325" width="50" height="50" fill="#FF80E3"/>
<rect x="3505" y="325" width="50" height="50" fill="#FF80E3"/>
<rect x="3555" y="375" width="50" height="50" fill="#FF80E3"/>
<rect x="3505" y="425" width="50" height="50" fill="#FF80E3"/>
<rect x="3605" y="425" width="50" height="50" fill="#FF80E3"/>
<rect x="3705" y="325" width="50" height="50" fill="#FF80E3"/>
<rect x="3705" y="375" width="50" height="50" fill="#FF80E3"/>
<rect x="3705" y="425" width="50" height="50" fill="#FF80E3"/>
<rect x="3755" y="425" width="50" height="50" fill="#FF80E3"/>
<rect x="3855" y="425" width="50" height="50" fill="#FFB6F8"/>
<rect x="3905" y="425" width="50" height="50" fill="#FFB6F8"/>
<rect x="3905" y="375" width="50" height="50" fill="#FFB6F8"/>
<rect x="3905" y="325" width="50" height="50" fill="#FF80E3"/>
<rect x="3855" y="375" width="50" height="50" fill="#FF80E3"/>
<rect x="3855" y="325" width="50" height="50" fill="#FF80E3"/>
<rect x="3605" y="325" width="50" height="50" fill="#FF80E3"/>
<rect x="3355" y="375" width="50" height="50" fill="#FF80E3"/>
<rect x="3355" y="425" width="50" height="50" fill="#FF80E3"/>
<line x1="3355.5" y1="-2.18557e-08" x2="3355.5" y2="4931" stroke="#A8A8A8"/>
<line x1="4905.5" y1="-2.18557e-08" x2="4905.5" y2="4931" stroke="#A8A8A8"/>
<line x1="6455.5" y1="-2.18557e-08" x2="6455.5" y2="4931" stroke="#A8A8A8"/>
<line x1="3055.5" y1="-2.18557e-08" x2="3055.5" y2="4931" stroke="#A8A8A8"/>
<line x1="2655.5" y1="-2.18557e-08" x2="2655.5" y2="4931" stroke="#A8A8A8"/>
<line x1="2255.5" y1="-2.18557e-08" x2="2255.5" y2="4931" stroke="#A8A8A8"/>
<line x1="1855.5" y1="-2.18557e-08" x2="1855.5" y2="4931" stroke="#A8A8A8"/>
<line x1="1455.5" y1="-2.18557e-08" x2="1455.5" y2="4931" stroke="#A8A8A8"/>
<line x1="1055.5" y1="-2.18557e-08" x2="1055.5" y2="4931" stroke="#A8A8A8"/>
<line x1="655.5" y1="-2.18557e-08" x2="655.5" y2="4931" stroke="#A8A8A8"/>
<line x1="255.5" y1="-2.18557e-08" x2="255.5" y2="4931" stroke="#A8A8A8"/>
<line x1="4605.5" y1="-2.18557e-08" x2="4605.5" y2="4931" stroke="#A8A8A8"/>
<line x1="6155.5" y1="-2.18557e-08" x2="6155.5" y2="4931" stroke="#A8A8A8"/>
<line x1="2905.5" y1="-2.18557e-08" x2="2905.5" y2="4931" stroke="#A8A8A8"/>
<line x1="2505.5" y1="-2.18557e-08" x2="2505.5" y2="4931" stroke="#A8A8A8"/>
<line x1="2105.5" y1="-2.18557e-08" x2="2105.5" y2="4931" stroke="#A8A8A8"/>
<line x1="1705.5" y1="-2.18557e-08" x2="1705.5" y2="4931" stroke="#A8A8A8"/>
<line x1="1305.5" y1="-2.18557e-08" x2="1305.5" y2="4931" stroke="#A8A8A8"/>
<line x1="905.5" y1="-2.18557e-08" x2="905.5" y2="4931" stroke="#A8A8A8"/>
<line x1="505.5" y1="-2.18557e-08" x2="505.5" y2="4931" stroke="#A8A8A8"/>
<line x1="105.5" y1="-2.18557e-08" x2="105.5" y2="4931" stroke="#A8A8A8"/>
<line x1="55.5" y1="-2.18557e-08" x2="55.5002" y2="4931" stroke="#A8A8A8"/>
<line x1="5.5" y1="-2.18557e-08" x2="5.50022" y2="4931" stroke="#A8A8A8"/>
<line x1="4455.5" y1="-2.18557e-08" x2="4455.5" y2="4931" stroke="#A8A8A8"/>
<line x1="6005.5" y1="-2.18557e-08" x2="6005.5" y2="4931" stroke="#A8A8A8"/>
<line x1="3405.5" y1="-2.18557e-08" x2="3405.5" y2="4931" stroke="#A8A8A8"/>
<line x1="4955.5" y1="-2.18557e-08" x2="4955.5" y2="4931" stroke="#A8A8A8"/>
<line x1="6505.5" y1="-2.18557e-08" x2="6505.5" y2="4931" stroke="#A8A8A8"/>
<line x1="3105.5" y1="-2.18557e-08" x2="3105.5" y2="4931" stroke="#A8A8A8"/>
<line x1="2705.5" y1="-2.18557e-08" x2="2705.5" y2="4931" stroke="#A8A8A8"/>
<line x1="2305.5" y1="-2.18557e-08" x2="2305.5" y2="4931" stroke="#A8A8A8"/>
<line x1="1905.5" y1="-2.18557e-08" x2="1905.5" y2="4931" stroke="#A8A8A8"/>
<line x1="1505.5" y1="-2.18557e-08" x2="1505.5" y2="4931" stroke="#A8A8A8"/>
<line x1="1105.5" y1="-2.18557e-08" x2="1105.5" y2="4931" stroke="#A8A8A8"/>
<line x1="705.5" y1="-2.18557e-08" x2="705.5" y2="4931" stroke="#A8A8A8"/>
<line x1="305.5" y1="-2.18557e-08" x2="305.5" y2="4931" stroke="#A8A8A8"/>
<line x1="4655.5" y1="-2.18557e-08" x2="4655.5" y2="4931" stroke="#A8A8A8"/>
<line x1="6205.5" y1="-2.18557e-08" x2="6205.5" y2="4931" stroke="#A8A8A8"/>
<line x1="2955.5" y1="-2.18557e-08" x2="2955.5" y2="4931" stroke="#A8A8A8"/>
<line x1="2555.5" y1="-2.18557e-08" x2="2555.5" y2="4931" stroke="#A8A8A8"/>
<line x1="2155.5" y1="-2.18557e-08" x2="2155.5" y2="4931" stroke="#A8A8A8"/>
<line x1="1755.5" y1="-2.18557e-08" x2="1755.5" y2="4931" stroke="#A8A8A8"/>
<line x1="1355.5" y1="-2.18557e-08" x2="1355.5" y2="4931" stroke="#A8A8A8"/>
<line x1="955.5" y1="-2.18557e-08" x2="955.5" y2="4931" stroke="#A8A8A8"/>
<line x1="555.5" y1="-2.18557e-08" x2="555.5" y2="4931" stroke="#A8A8A8"/>
<line x1="155.5" y1="-2.18557e-08" x2="155.5" y2="4931" stroke="#A8A8A8"/>
<line x1="4505.5" y1="-2.18557e-08" x2="4505.5" y2="4931" stroke="#A8A8A8"/>
<line x1="6055.5" y1="-2.18557e-08" x2="6055.5" y2="4931" stroke="#A8A8A8"/>
<line x1="3455.5" y1="-2.18557e-08" x2="3455.5" y2="4931" stroke="#A8A8A8"/>
<line x1="5005.5" y1="-2.18557e-08" x2="5005.5" y2="4931" stroke="#A8A8A8"/>
<line x1="6555.5" y1="-2.18557e-08" x2="6555.5" y2="4931" stroke="#A8A8A8"/>
<line x1="3155.5" y1="-2.18557e-08" x2="3155.5" y2="4931" stroke="#A8A8A8"/>
<line x1="2755.5" y1="-2.18557e-08" x2="2755.5" y2="4931" stroke="#A8A8A8"/>
<line x1="2355.5" y1="-2.18557e-08" x2="2355.5" y2="4931" stroke="#A8A8A8"/>
<line x1="1955.5" y1="-2.18557e-08" x2="1955.5" y2="4931" stroke="#A8A8A8"/>
<line x1="1555.5" y1="-2.18557e-08" x2="1555.5" y2="4931" stroke="#A8A8A8"/>
<line x1="1155.5" y1="-2.18557e-08" x2="1155.5" y2="4931" stroke="#A8A8A8"/>
<line x1="755.5" y1="-2.18557e-08" x2="755.5" y2="4931" stroke="#A8A8A8"/>
<line x1="355.5" y1="-2.18557e-08" x2="355.5" y2="4931" stroke="#A8A8A8"/>
<line x1="4705.5" y1="-2.18557e-08" x2="4705.5" y2="4931" stroke="#A8A8A8"/>
<line x1="6255.5" y1="-2.18557e-08" x2="6255.5" y2="4931" stroke="#A8A8A8"/>
<line x1="3005.5" y1="-2.18557e-08" x2="3005.5" y2="4931" stroke="#A8A8A8"/>
<line x1="2605.5" y1="-2.18557e-08" x2="2605.5" y2="4931" stroke="#A8A8A8"/>
<line x1="2205.5" y1="-2.18557e-08" x2="2205.5" y2="4931" stroke="#A8A8A8"/>
<line x1="1805.5" y1="-2.18557e-08" x2="1805.5" y2="4931" stroke="#A8A8A8"/>
<line x1="1405.5" y1="-2.18557e-08" x2="1405.5" y2="4931" stroke="#A8A8A8"/>
<line x1="1005.5" y1="-2.18557e-08" x2="1005.5" y2="4931" stroke="#A8A8A8"/>
<line x1="605.5" y1="-2.18557e-08" x2="605.5" y2="4931" stroke="#A8A8A8"/>
<line x1="205.5" y1="-2.18557e-08" x2="205.5" y2="4931" stroke="#A8A8A8"/>
<line x1="4555.5" y1="-2.18557e-08" x2="4555.5" y2="4931" stroke="#A8A8A8"/>
<line x1="6105.5" y1="-2.18557e-08" x2="6105.5" y2="4931" stroke="#A8A8A8"/>
<line x1="3505.5" y1="-2.18557e-08" x2="3505.5" y2="4931" stroke="#A8A8A8"/>
<line x1="5055.5" y1="-2.18557e-08" x2="5055.5" y2="4931" stroke="#A8A8A8"/>
<line x1="6605.5" y1="-2.18557e-08" x2="6605.5" y2="4931" stroke="#A8A8A8"/>
<line x1="3205.5" y1="-2.18557e-08" x2="3205.5" y2="4931" stroke="#A8A8A8"/>
<line x1="2805.5" y1="-2.18557e-08" x2="2805.5" y2="4931" stroke="#A8A8A8"/>
<line x1="2405.5" y1="-2.18557e-08" x2="2405.5" y2="4931" stroke="#A8A8A8"/>
<line x1="2005.5" y1="-2.18557e-08" x2="2005.5" y2="4931" stroke="#A8A8A8"/>
<line x1="1605.5" y1="-2.18557e-08" x2="1605.5" y2="4931" stroke="#A8A8A8"/>
<line x1="1205.5" y1="-2.18557e-08" x2="1205.5" y2="4931" stroke="#A8A8A8"/>
<line x1="805.5" y1="-2.18557e-08" x2="805.5" y2="4931" stroke="#A8A8A8"/>
<line x1="405.5" y1="-2.18557e-08" x2="405.5" y2="4931" stroke="#A8A8A8"/>
<line x1="4755.5" y1="-2.18557e-08" x2="4755.5" y2="4931" stroke="#A8A8A8"/>
<line x1="6305.5" y1="-2.18557e-08" x2="6305.5" y2="4931" stroke="#A8A8A8"/>
<line x1="3555.5" y1="-2.18557e-08" x2="3555.5" y2="4931" stroke="#A8A8A8"/>
<line x1="5105.5" y1="-2.18557e-08" x2="5105.5" y2="4931" stroke="#A8A8A8"/>
<line x1="6655.5" y1="-2.18557e-08" x2="6655.5" y2="4931" stroke="#A8A8A8"/>
<line x1="3255.5" y1="-2.18557e-08" x2="3255.5" y2="4931" stroke="#A8A8A8"/>
<line x1="2855.5" y1="-2.18557e-08" x2="2855.5" y2="4931" stroke="#A8A8A8"/>
<line x1="2455.5" y1="-2.18557e-08" x2="2455.5" y2="4931" stroke="#A8A8A8"/>
<line x1="2055.5" y1="-2.18557e-08" x2="2055.5" y2="4931" stroke="#A8A8A8"/>
<line x1="1655.5" y1="-2.18557e-08" x2="1655.5" y2="4931" stroke="#A8A8A8"/>
<line x1="1255.5" y1="-2.18557e-08" x2="1255.5" y2="4931" stroke="#A8A8A8"/>
<line x1="855.5" y1="-2.18557e-08" x2="855.5" y2="4931" stroke="#A8A8A8"/>
<line x1="455.5" y1="-2.18557e-08" x2="455.5" y2="4931" stroke="#A8A8A8"/>
<line x1="4805.5" y1="-2.18557e-08" x2="4805.5" y2="4931" stroke="#A8A8A8"/>
<line x1="6355.5" y1="-2.18557e-08" x2="6355.5" y2="4931" stroke="#A8A8A8"/>
<line x1="3605.5" y1="-2.18557e-08" x2="3605.5" y2="4931" stroke="#A8A8A8"/>
<line x1="5155.5" y1="-2.18557e-08" x2="5155.5" y2="4931" stroke="#A8A8A8"/>
<line x1="6705.5" y1="-2.18557e-08" x2="6705.5" y2="4931" stroke="#A8A8A8"/>
<line x1="3305.5" y1="-2.18557e-08" x2="3305.5" y2="4931" stroke="#A8A8A8"/>
<line x1="4855.5" y1="-2.18557e-08" x2="4855.5" y2="4931" stroke="#A8A8A8"/>
<line x1="6405.5" y1="-2.18557e-08" x2="6405.5" y2="4931" stroke="#A8A8A8"/>
<line x1="3655.5" y1="-2.18557e-08" x2="3655.5" y2="4931" stroke="#A8A8A8"/>
<line x1="5205.5" y1="-2.18557e-08" x2="5205.5" y2="4931" stroke="#A8A8A8"/>
<line x1="6755.5" y1="-2.18557e-08" x2="6755.5" y2="4931" stroke="#A8A8A8"/>
<line x1="3705.5" y1="-2.18557e-08" x2="3705.5" y2="4931" stroke="#A8A8A8"/>
<line x1="5255.5" y1="-2.18557e-08" x2="5255.5" y2="4931" stroke="#A8A8A8"/>
<line x1="6805.5" y1="-2.18557e-08" x2="6805.5" y2="4931" stroke="#A8A8A8"/>
<line x1="4005.5" y1="-2.18557e-08" x2="4005.5" y2="4931" stroke="#A8A8A8"/>
<line x1="5555.5" y1="-2.18557e-08" x2="5555.5" y2="4931" stroke="#A8A8A8"/>
<line x1="7105.5" y1="-2.18557e-08" x2="7105.5" y2="4931" stroke="#A8A8A8"/>
<line x1="3755.5" y1="-2.18557e-08" x2="3755.5" y2="4931" stroke="#A8A8A8"/>
<line x1="5305.5" y1="-2.18557e-08" x2="5305.5" y2="4931" stroke="#A8A8A8"/>
<line x1="6855.5" y1="-2.18557e-08" x2="6855.5" y2="4931" stroke="#A8A8A8"/>
<line x1="4055.5" y1="-2.18557e-08" x2="4055.5" y2="4931" stroke="#A8A8A8"/>
<line x1="5605.5" y1="-2.18557e-08" x2="5605.5" y2="4931" stroke="#A8A8A8"/>
<line x1="7155.5" y1="-2.18557e-08" x2="7155.5" y2="4931" stroke="#A8A8A8"/>
<line x1="3805.5" y1="-2.18557e-08" x2="3805.5" y2="4931" stroke="#A8A8A8"/>
<line x1="5355.5" y1="-2.18557e-08" x2="5355.5" y2="4931" stroke="#A8A8A8"/>
<line x1="6905.5" y1="-2.18557e-08" x2="6905.5" y2="4931" stroke="#A8A8A8"/>
<line x1="4105.5" y1="-2.18557e-08" x2="4105.5" y2="4931" stroke="#A8A8A8"/>
<line x1="5655.5" y1="-2.18557e-08" x2="5655.5" y2="4931" stroke="#A8A8A8"/>
<line x1="7205.5" y1="-2.18557e-08" x2="7205.5" y2="4931" stroke="#A8A8A8"/>
<line x1="3855.5" y1="-2.18557e-08" x2="3855.5" y2="4931" stroke="#A8A8A8"/>
<line x1="5405.5" y1="-2.18557e-08" x2="5405.5" y2="4931" stroke="#A8A8A8"/>
<line x1="6955.5" y1="-2.18557e-08" x2="6955.5" y2="4931" stroke="#A8A8A8"/>
<line x1="4155.5" y1="-2.18557e-08" x2="4155.5" y2="4931" stroke="#A8A8A8"/>
<line x1="5705.5" y1="-2.18557e-08" x2="5705.5" y2="4931" stroke="#A8A8A8"/>
<line x1="7255.5" y1="-2.18557e-08" x2="7255.5" y2="4931" stroke="#A8A8A8"/>
<line x1="4305.5" y1="-2.18557e-08" x2="4305.5" y2="4931" stroke="#A8A8A8"/>
<line x1="5855.5" y1="-2.18557e-08" x2="5855.5" y2="4931" stroke="#A8A8A8"/>
<line x1="3905.5" y1="-2.18557e-08" x2="3905.5" y2="4931" stroke="#A8A8A8"/>
<line x1="5455.5" y1="-2.18557e-08" x2="5455.5" y2="4931" stroke="#A8A8A8"/>
<line x1="7005.5" y1="-2.18557e-08" x2="7005.5" y2="4931" stroke="#A8A8A8"/>
<line x1="4205.5" y1="-2.18557e-08" x2="4205.5" y2="4931" stroke="#A8A8A8"/>
<line x1="5755.5" y1="-2.18557e-08" x2="5755.5" y2="4931" stroke="#A8A8A8"/>
<line x1="7305.5" y1="-2.18557e-08" x2="7305.5" y2="4931" stroke="#A8A8A8"/>
<line x1="4355.5" y1="-2.18557e-08" x2="4355.5" y2="4931" stroke="#A8A8A8"/>
<line x1="5905.5" y1="-2.18557e-08" x2="5905.5" y2="4931" stroke="#A8A8A8"/>
<line x1="3955.5" y1="-2.18557e-08" x2="3955.5" y2="4931" stroke="#A8A8A8"/>
<line x1="5505.5" y1="-2.18557e-08" x2="5505.5" y2="4931" stroke="#A8A8A8"/>
<line x1="7055.5" y1="-2.18557e-08" x2="7055.5" y2="4931" stroke="#A8A8A8"/>
<line x1="4255.5" y1="-2.18557e-08" x2="4255.5" y2="4931" stroke="#A8A8A8"/>
<line x1="5805.5" y1="-2.18557e-08" x2="5805.5" y2="4931" stroke="#A8A8A8"/>
<line x1="4405.5" y1="-2.18557e-08" x2="4405.5" y2="4931" stroke="#A8A8A8"/>
<line x1="5955.5" y1="-2.18557e-08" x2="5955.5" y2="4931" stroke="#A8A8A8"/>
<line x1="-1.2752e-07" y1="374.5" x2="7309" y2="374.5" stroke="#A8A8A8"/>
<line x1="-1.2752e-07" y1="1374.5" x2="7309" y2="1374.5" stroke="#A8A8A8"/>
<line x1="-1.2752e-07" y1="2374.5" x2="7309" y2="2374.5" stroke="#A8A8A8"/>
<line x1="-1.2752e-07" y1="3374.5" x2="7309" y2="3374.5" stroke="#A8A8A8"/>
<line x1="-1.2752e-07" y1="124.5" x2="7309" y2="124.5" stroke="#A8A8A8"/>
<line x1="-1.2752e-07" y1="1124.5" x2="7309" y2="1124.5" stroke="#A8A8A8"/>
<line x1="-1.2752e-07" y1="2124.5" x2="7309" y2="2124.5" stroke="#A8A8A8"/>
<line x1="-1.2752e-07" y1="3124.5" x2="7309" y2="3124.5" stroke="#A8A8A8"/>
<line x1="-1.2752e-07" y1="624.5" x2="7309" y2="624.5" stroke="#A8A8A8"/>
<line x1="-1.2752e-07" y1="1624.5" x2="7309" y2="1624.5" stroke="#A8A8A8"/>
<line x1="-1.2752e-07" y1="2624.5" x2="7309" y2="2624.5" stroke="#A8A8A8"/>
<line x1="-1.2752e-07" y1="3624.5" x2="7309" y2="3624.5" stroke="#A8A8A8"/>
<line x1="-1.2752e-07" y1="4024.5" x2="7309" y2="4024.5" stroke="#A8A8A8"/>
<line x1="-1.2752e-07" y1="4424.5" x2="7309" y2="4424.5" stroke="#A8A8A8"/>
<line x1="-1.2752e-07" y1="874.5" x2="7309" y2="874.5" stroke="#A8A8A8"/>
<line x1="-1.2752e-07" y1="1874.5" x2="7309" y2="1874.5" stroke="#A8A8A8"/>
<line x1="-1.2752e-07" y1="2874.5" x2="7309" y2="2874.5" stroke="#A8A8A8"/>
<line x1="-1.2752e-07" y1="3874.5" x2="7309" y2="3874.5" stroke="#A8A8A8"/>
<line x1="-1.2752e-07" y1="4274.5" x2="7309" y2="4274.5" stroke="#A8A8A8"/>
<line x1="-1.2752e-07" y1="4674.5" x2="7309" y2="4674.5" stroke="#A8A8A8"/>
<line x1="-1.2752e-07" y1="4824.5" x2="7309" y2="4824.5" stroke="#A8A8A8"/>
<line x1="-1.2752e-07" y1="424.5" x2="7309" y2="424.5" stroke="#A8A8A8"/>
<line x1="-1.2752e-07" y1="1424.5" x2="7309" y2="1424.5" stroke="#A8A8A8"/>
<line x1="-1.2752e-07" y1="2424.5" x2="7309" y2="2424.5" stroke="#A8A8A8"/>
<line x1="-1.2752e-07" y1="3424.5" x2="7309" y2="3424.5" stroke="#A8A8A8"/>
<line x1="-1.2752e-07" y1="174.5" x2="7309" y2="174.5" stroke="#A8A8A8"/>
<line x1="-1.2752e-07" y1="1174.5" x2="7309" y2="1174.5" stroke="#A8A8A8"/>
<line x1="-1.2752e-07" y1="2174.5" x2="7309" y2="2174.5" stroke="#A8A8A8"/>
<line x1="-1.2752e-07" y1="3174.5" x2="7309" y2="3174.5" stroke="#A8A8A8"/>
<line x1="-1.2752e-07" y1="674.5" x2="7309" y2="674.5" stroke="#A8A8A8"/>
<line x1="-1.2752e-07" y1="1674.5" x2="7309" y2="1674.5" stroke="#A8A8A8"/>
<line x1="-1.2752e-07" y1="2674.5" x2="7309" y2="2674.5" stroke="#A8A8A8"/>
<line x1="-1.2752e-07" y1="3674.5" x2="7309" y2="3674.5" stroke="#A8A8A8"/>
<line x1="-1.2752e-07" y1="4074.5" x2="7309" y2="4074.5" stroke="#A8A8A8"/>
<line x1="-1.2752e-07" y1="4474.5" x2="7309" y2="4474.5" stroke="#A8A8A8"/>
<line x1="-1.2752e-07" y1="924.5" x2="7309" y2="924.5" stroke="#A8A8A8"/>
<line x1="-1.2752e-07" y1="1924.5" x2="7309" y2="1924.5" stroke="#A8A8A8"/>
<line x1="-1.2752e-07" y1="2924.5" x2="7309" y2="2924.5" stroke="#A8A8A8"/>
<line x1="-1.2752e-07" y1="3924.5" x2="7309" y2="3924.5" stroke="#A8A8A8"/>
<line x1="-1.2752e-07" y1="4324.5" x2="7309" y2="4324.5" stroke="#A8A8A8"/>
<line x1="-1.2752e-07" y1="4724.5" x2="7309" y2="4724.5" stroke="#A8A8A8"/>
<line x1="-1.2752e-07" y1="4874.5" x2="7309" y2="4874.5" stroke="#A8A8A8"/>
<line x1="-1.2752e-07" y1="474.5" x2="7309" y2="474.5" stroke="#A8A8A8"/>
<line x1="-1.2752e-07" y1="1474.5" x2="7309" y2="1474.5" stroke="#A8A8A8"/>
<line x1="-1.2752e-07" y1="2474.5" x2="7309" y2="2474.5" stroke="#A8A8A8"/>
<line x1="-1.2752e-07" y1="3474.5" x2="7309" y2="3474.5" stroke="#A8A8A8"/>
<line x1="-1.2752e-07" y1="224.5" x2="7309" y2="224.5" stroke="#A8A8A8"/>
<line x1="-1.2752e-07" y1="1224.5" x2="7309" y2="1224.5" stroke="#A8A8A8"/>
<line x1="-1.2752e-07" y1="2224.5" x2="7309" y2="2224.5" stroke="#A8A8A8"/>
<line x1="-1.2752e-07" y1="3224.5" x2="7309" y2="3224.5" stroke="#A8A8A8"/>
<line x1="-1.2752e-07" y1="724.5" x2="7309" y2="724.5" stroke="#A8A8A8"/>
<line x1="-1.2752e-07" y1="1724.5" x2="7309" y2="1724.5" stroke="#A8A8A8"/>
<line x1="-1.2752e-07" y1="2724.5" x2="7309" y2="2724.5" stroke="#A8A8A8"/>
<line x1="-1.2752e-07" y1="3724.5" x2="7309" y2="3724.5" stroke="#A8A8A8"/>
<line x1="-1.2752e-07" y1="4124.5" x2="7309" y2="4124.5" stroke="#A8A8A8"/>
<line x1="-1.2752e-07" y1="4524.5" x2="7309" y2="4524.5" stroke="#A8A8A8"/>
<line x1="-1.2752e-07" y1="974.5" x2="7309" y2="974.5" stroke="#A8A8A8"/>
<line x1="-1.2752e-07" y1="1974.5" x2="7309" y2="1974.5" stroke="#A8A8A8"/>
<line x1="-1.2752e-07" y1="2974.5" x2="7309" y2="2974.5" stroke="#A8A8A8"/>
<line x1="-1.2752e-07" y1="3974.5" x2="7309" y2="3974.5" stroke="#A8A8A8"/>
<line x1="-1.2752e-07" y1="4374.5" x2="7309" y2="4374.5" stroke="#A8A8A8"/>
<line x1="-1.2752e-07" y1="4774.5" x2="7309" y2="4774.5" stroke="#A8A8A8"/>
<line x1="-1.2752e-07" y1="4924.5" x2="7309" y2="4924.5" stroke="#A8A8A8"/>
<line x1="-1.2752e-07" y1="524.5" x2="7309" y2="524.5" stroke="#A8A8A8"/>
<line x1="-1.2752e-07" y1="1524.5" x2="7309" y2="1524.5" stroke="#A8A8A8"/>
<line x1="-1.2752e-07" y1="2524.5" x2="7309" y2="2524.5" stroke="#A8A8A8"/>
<line x1="-1.2752e-07" y1="3524.5" x2="7309" y2="3524.5" stroke="#A8A8A8"/>
<line x1="-1.2752e-07" y1="274.5" x2="7309" y2="274.5" stroke="#A8A8A8"/>
<line x1="-1.2752e-07" y1="1274.5" x2="7309" y2="1274.5" stroke="#A8A8A8"/>
<line x1="-1.2752e-07" y1="2274.5" x2="7309" y2="2274.5" stroke="#A8A8A8"/>
<line x1="-1.2752e-07" y1="3274.5" x2="7309" y2="3274.5" stroke="#A8A8A8"/>
<line x1="-1.2752e-07" y1="774.5" x2="7309" y2="774.5" stroke="#A8A8A8"/>
<line x1="-1.2752e-07" y1="1774.5" x2="7309" y2="1774.5" stroke="#A8A8A8"/>
<line x1="-1.2752e-07" y1="2774.5" x2="7309" y2="2774.5" stroke="#A8A8A8"/>
<line x1="-1.2752e-07" y1="3774.5" x2="7309" y2="3774.5" stroke="#A8A8A8"/>
<line x1="-1.2752e-07" y1="4174.5" x2="7309" y2="4174.5" stroke="#A8A8A8"/>
<line x1="-1.2752e-07" y1="4574.5" x2="7309" y2="4574.5" stroke="#A8A8A8"/>
<line x1="-1.2752e-07" y1="324.5" x2="7309" y2="324.5" stroke="#A8A8A8"/>
<line x1="-1.2752e-07" y1="1324.5" x2="7309" y2="1324.5" stroke="#A8A8A8"/>
<line x1="-1.2752e-07" y1="2324.5" x2="7309" y2="2324.5" stroke="#A8A8A8"/>
<line x1="-1.2752e-07" y1="3324.5" x2="7309" y2="3324.5" stroke="#A8A8A8"/>
<line x1="-1.2752e-07" y1="74.5" x2="7309" y2="74.4998" stroke="#A8A8A8"/>
<line x1="-1.2752e-07" y1="1074.5" x2="7309" y2="1074.5" stroke="#A8A8A8"/>
<line x1="-1.2752e-07" y1="2074.5" x2="7309" y2="2074.5" stroke="#A8A8A8"/>
<line x1="-1.2752e-07" y1="3074.5" x2="7309" y2="3074.5" stroke="#A8A8A8"/>
<line x1="-1.2752e-07" y1="24.5" x2="7309" y2="24.4998" stroke="#A8A8A8"/>
<line x1="-1.2752e-07" y1="1024.5" x2="7309" y2="1024.5" stroke="#A8A8A8"/>
<line x1="-1.2752e-07" y1="2024.5" x2="7309" y2="2024.5" stroke="#A8A8A8"/>
<line x1="-1.2752e-07" y1="3024.5" x2="7309" y2="3024.5" stroke="#A8A8A8"/>
<line x1="-1.2752e-07" y1="574.5" x2="7309" y2="574.5" stroke="#A8A8A8"/>
<line x1="-1.2752e-07" y1="1574.5" x2="7309" y2="1574.5" stroke="#A8A8A8"/>
<line x1="-1.2752e-07" y1="2574.5" x2="7309" y2="2574.5" stroke="#A8A8A8"/>
<line x1="-1.2752e-07" y1="3574.5" x2="7309" y2="3574.5" stroke="#A8A8A8"/>
<line x1="-1.2752e-07" y1="824.5" x2="7309" y2="824.5" stroke="#A8A8A8"/>
<line x1="-1.2752e-07" y1="1824.5" x2="7309" y2="1824.5" stroke="#A8A8A8"/>
<line x1="-1.2752e-07" y1="2824.5" x2="7309" y2="2824.5" stroke="#A8A8A8"/>
<line x1="-1.2752e-07" y1="3824.5" x2="7309" y2="3824.5" stroke="#A8A8A8"/>
<line x1="-1.2752e-07" y1="4224.5" x2="7309" y2="4224.5" stroke="#A8A8A8"/>
<line x1="-1.2752e-07" y1="4624.5" x2="7309" y2="4624.5" stroke="#A8A8A8"/>
</svg>
