<svg width="4349" height="2839" viewBox="0 0 4349 2839" fill="none" xmlns="http://www.w3.org/2000/svg">
<g clip-path="url(#clip0_243_1705)">
<rect width="4349" height="2839" fill="transparent"/>
<rect x="1995" y="268" width="30" height="30" fill="#FF80E3"/>
<rect x="2025" y="298" width="30" height="30" fill="#FF80E3"/>
<rect x="2025" y="268" width="30" height="30" fill="#FF80E3"/>
<rect x="2085" y="268" width="30" height="30" fill="#FF80E3"/>
<rect x="2115" y="298" width="30" height="30" fill="#FF80E3"/>
<rect x="2085" y="328" width="30" height="30" fill="#FF80E3"/>
<rect x="2145" y="328" width="30" height="30" fill="#FF80E3"/>
<rect x="2205" y="268" width="30" height="30" fill="#FF80E3"/>
<rect x="2205" y="298" width="30" height="30" fill="#FF80E3"/>
<rect x="2205" y="328" width="30" height="30" fill="#FF80E3"/>
<rect x="2235" y="328" width="30" height="30" fill="#FF80E3"/>
<rect x="2295" y="328" width="30" height="30" fill="#FFB6F8"/>
<rect x="2325" y="328" width="30" height="30" fill="#FFB6F8"/>
<rect x="2325" y="298" width="30" height="30" fill="#FFB6F8"/>
<rect x="2325" y="268" width="30" height="30" fill="#FF80E3"/>
<rect x="2295" y="298" width="30" height="30" fill="#FF80E3"/>
<rect x="2295" y="268" width="30" height="30" fill="#FF80E3"/>
<rect x="2145" y="268" width="30" height="30" fill="#FF80E3"/>
<rect x="1995" y="298" width="30" height="30" fill="#FF80E3"/>
<rect x="1995" y="328" width="30" height="30" fill="#FF80E3"/>
<line x1="3945.5" y1="-2.18557e-08" x2="3945.5" y2="2839" stroke="#A8A8A8"/>
<line x1="1575.5" y1="-2.18557e-08" x2="1575.5" y2="2839" stroke="#A8A8A8"/>
<line x1="3975.5" y1="-2.18557e-08" x2="3975.5" y2="2839" stroke="#A8A8A8"/>
<line x1="1605.5" y1="-2.18557e-08" x2="1605.5" y2="2839" stroke="#A8A8A8"/>
<line x1="4005.5" y1="-2.18557e-08" x2="4005.5" y2="2839" stroke="#A8A8A8"/>
<line x1="1635.5" y1="-2.18557e-08" x2="1635.5" y2="2839" stroke="#A8A8A8"/>
<line x1="4035.5" y1="-2.18557e-08" x2="4035.5" y2="2839" stroke="#A8A8A8"/>
<line x1="1665.5" y1="-2.18557e-08" x2="1665.5" y2="2839" stroke="#A8A8A8"/>
<line x1="4065.5" y1="-2.18557e-08" x2="4065.5" y2="2839" stroke="#A8A8A8"/>
<line x1="1695.5" y1="-2.18557e-08" x2="1695.5" y2="2839" stroke="#A8A8A8"/>
<line x1="4095.5" y1="-2.18557e-08" x2="4095.5" y2="2839" stroke="#A8A8A8"/>
<line x1="1725.5" y1="-2.18557e-08" x2="1725.5" y2="2839" stroke="#A8A8A8"/>
<line x1="4125.5" y1="-2.18557e-08" x2="4125.5" y2="2839" stroke="#A8A8A8"/>
<line x1="1755.5" y1="-2.18557e-08" x2="1755.5" y2="2839" stroke="#A8A8A8"/>
<line x1="4155.5" y1="-2.18557e-08" x2="4155.5" y2="2839" stroke="#A8A8A8"/>
<line x1="1785.5" y1="-2.18557e-08" x2="1785.5" y2="2839" stroke="#A8A8A8"/>
<line x1="4185.5" y1="-2.18557e-08" x2="4185.5" y2="2839" stroke="#A8A8A8"/>
<line x1="1815.5" y1="-2.18557e-08" x2="1815.5" y2="2839" stroke="#A8A8A8"/>
<line x1="4215.5" y1="-2.18557e-08" x2="4215.5" y2="2839" stroke="#A8A8A8"/>
<line x1="1845.5" y1="-2.18557e-08" x2="1845.5" y2="2839" stroke="#A8A8A8"/>
<line x1="4245.5" y1="-2.18557e-08" x2="4245.5" y2="2839" stroke="#A8A8A8"/>
<line x1="1875.5" y1="-2.18557e-08" x2="1875.5" y2="2839" stroke="#A8A8A8"/>
<line x1="4275.5" y1="-2.18557e-08" x2="4275.5" y2="2839" stroke="#A8A8A8"/>
<line x1="1905.5" y1="-2.18557e-08" x2="1905.5" y2="2839" stroke="#A8A8A8"/>
<line x1="4305.5" y1="-2.18557e-08" x2="4305.5" y2="2839" stroke="#A8A8A8"/>
<line x1="1935.5" y1="-2.18557e-08" x2="1935.5" y2="2839" stroke="#A8A8A8"/>
<line x1="4335.5" y1="-2.18557e-08" x2="4335.5" y2="2839" stroke="#A8A8A8"/>
<line x1="1965.5" y1="-2.18557e-08" x2="1965.5" y2="2839" stroke="#A8A8A8"/>
<line x1="1995.5" y1="-2.18557e-08" x2="1995.5" y2="2839" stroke="#A8A8A8"/>
<line x1="2025.5" y1="-2.18557e-08" x2="2025.5" y2="2839" stroke="#A8A8A8"/>
<line x1="2055.5" y1="-2.18557e-08" x2="2055.5" y2="2839" stroke="#A8A8A8"/>
<line x1="2085.5" y1="-2.18557e-08" x2="2085.5" y2="2839" stroke="#A8A8A8"/>
<line x1="2115.5" y1="-2.18557e-08" x2="2115.5" y2="2839" stroke="#A8A8A8"/>
<line x1="2145.5" y1="-2.18557e-08" x2="2145.5" y2="2839" stroke="#A8A8A8"/>
<line x1="2175.5" y1="-2.18557e-08" x2="2175.5" y2="2839" stroke="#A8A8A8"/>
<line x1="2205.5" y1="-2.18557e-08" x2="2205.5" y2="2839" stroke="#A8A8A8"/>
<line x1="2235.5" y1="-2.18557e-08" x2="2235.5" y2="2839" stroke="#A8A8A8"/>
<line x1="2265.5" y1="-2.18557e-08" x2="2265.5" y2="2839" stroke="#A8A8A8"/>
<line x1="2295.5" y1="-2.18557e-08" x2="2295.5" y2="2839" stroke="#A8A8A8"/>
<line x1="2325.5" y1="-2.18557e-08" x2="2325.5" y2="2839" stroke="#A8A8A8"/>
<line x1="2355.5" y1="-2.18557e-08" x2="2355.5" y2="2839" stroke="#A8A8A8"/>
<line x1="3555.5" y1="-2.18557e-08" x2="3555.5" y2="2839" stroke="#A8A8A8"/>
<line x1="1185.5" y1="-2.18557e-08" x2="1185.5" y2="2839" stroke="#A8A8A8"/>
<line x1="3585.5" y1="-2.18557e-08" x2="3585.5" y2="2839" stroke="#A8A8A8"/>
<line x1="1215.5" y1="-2.18557e-08" x2="1215.5" y2="2839" stroke="#A8A8A8"/>
<line x1="3615.5" y1="-2.18557e-08" x2="3615.5" y2="2839" stroke="#A8A8A8"/>
<line x1="1245.5" y1="-2.18557e-08" x2="1245.5" y2="2839" stroke="#A8A8A8"/>
<line x1="3645.5" y1="-2.18557e-08" x2="3645.5" y2="2839" stroke="#A8A8A8"/>
<line x1="1275.5" y1="-2.18557e-08" x2="1275.5" y2="2839" stroke="#A8A8A8"/>
<line x1="3675.5" y1="-2.18557e-08" x2="3675.5" y2="2839" stroke="#A8A8A8"/>
<line x1="1305.5" y1="-2.18557e-08" x2="1305.5" y2="2839" stroke="#A8A8A8"/>
<line x1="3705.5" y1="-2.18557e-08" x2="3705.5" y2="2839" stroke="#A8A8A8"/>
<line x1="1335.5" y1="-2.18557e-08" x2="1335.5" y2="2839" stroke="#A8A8A8"/>
<line x1="3735.5" y1="-2.18557e-08" x2="3735.5" y2="2839" stroke="#A8A8A8"/>
<line x1="1365.5" y1="-2.18557e-08" x2="1365.5" y2="2839" stroke="#A8A8A8"/>
<line x1="3765.5" y1="-2.18557e-08" x2="3765.5" y2="2839" stroke="#A8A8A8"/>
<line x1="1395.5" y1="-2.18557e-08" x2="1395.5" y2="2839" stroke="#A8A8A8"/>
<line x1="3795.5" y1="-2.18557e-08" x2="3795.5" y2="2839" stroke="#A8A8A8"/>
<line x1="1425.5" y1="-2.18557e-08" x2="1425.5" y2="2839" stroke="#A8A8A8"/>
<line x1="3825.5" y1="-2.18557e-08" x2="3825.5" y2="2839" stroke="#A8A8A8"/>
<line x1="1455.5" y1="-2.18557e-08" x2="1455.5" y2="2839" stroke="#A8A8A8"/>
<line x1="3855.5" y1="-2.18557e-08" x2="3855.5" y2="2839" stroke="#A8A8A8"/>
<line x1="1485.5" y1="-2.18557e-08" x2="1485.5" y2="2839" stroke="#A8A8A8"/>
<line x1="3885.5" y1="-2.18557e-08" x2="3885.5" y2="2839" stroke="#A8A8A8"/>
<line x1="1515.5" y1="-2.18557e-08" x2="1515.5" y2="2839" stroke="#A8A8A8"/>
<line x1="3915.5" y1="-2.18557e-08" x2="3915.5" y2="2839" stroke="#A8A8A8"/>
<line x1="1545.5" y1="-2.18557e-08" x2="1545.5" y2="2839" stroke="#A8A8A8"/>
<line x1="3165.5" y1="-2.18557e-08" x2="3165.5" y2="2839" stroke="#A8A8A8"/>
<line x1="795.5" y1="-2.18557e-08" x2="795.5" y2="2839" stroke="#A8A8A8"/>
<line x1="3195.5" y1="-2.18557e-08" x2="3195.5" y2="2839" stroke="#A8A8A8"/>
<line x1="825.5" y1="-2.18557e-08" x2="825.5" y2="2839" stroke="#A8A8A8"/>
<line x1="3225.5" y1="-2.18557e-08" x2="3225.5" y2="2839" stroke="#A8A8A8"/>
<line x1="855.5" y1="-2.18557e-08" x2="855.5" y2="2839" stroke="#A8A8A8"/>
<line x1="3255.5" y1="-2.18557e-08" x2="3255.5" y2="2839" stroke="#A8A8A8"/>
<line x1="885.5" y1="-2.18557e-08" x2="885.5" y2="2839" stroke="#A8A8A8"/>
<line x1="3285.5" y1="-2.18557e-08" x2="3285.5" y2="2839" stroke="#A8A8A8"/>
<line x1="915.5" y1="-2.18557e-08" x2="915.5" y2="2839" stroke="#A8A8A8"/>
<line x1="3315.5" y1="-2.18557e-08" x2="3315.5" y2="2839" stroke="#A8A8A8"/>
<line x1="945.5" y1="-2.18557e-08" x2="945.5" y2="2839" stroke="#A8A8A8"/>
<line x1="3345.5" y1="-2.18557e-08" x2="3345.5" y2="2839" stroke="#A8A8A8"/>
<line x1="975.5" y1="-2.18557e-08" x2="975.5" y2="2839" stroke="#A8A8A8"/>
<line x1="3375.5" y1="-2.18557e-08" x2="3375.5" y2="2839" stroke="#A8A8A8"/>
<line x1="1005.5" y1="-2.18557e-08" x2="1005.5" y2="2839" stroke="#A8A8A8"/>
<line x1="3405.5" y1="-2.18557e-08" x2="3405.5" y2="2839" stroke="#A8A8A8"/>
<line x1="1035.5" y1="-2.18557e-08" x2="1035.5" y2="2839" stroke="#A8A8A8"/>
<line x1="3435.5" y1="-2.18557e-08" x2="3435.5" y2="2839" stroke="#A8A8A8"/>
<line x1="1065.5" y1="-2.18557e-08" x2="1065.5" y2="2839" stroke="#A8A8A8"/>
<line x1="3465.5" y1="-2.18557e-08" x2="3465.5" y2="2839" stroke="#A8A8A8"/>
<line x1="1095.5" y1="-2.18557e-08" x2="1095.5" y2="2839" stroke="#A8A8A8"/>
<line x1="3495.5" y1="-2.18557e-08" x2="3495.5" y2="2839" stroke="#A8A8A8"/>
<line x1="1125.5" y1="-2.18557e-08" x2="1125.5" y2="2839" stroke="#A8A8A8"/>
<line x1="3525.5" y1="-2.18557e-08" x2="3525.5" y2="2839" stroke="#A8A8A8"/>
<line x1="1155.5" y1="-2.18557e-08" x2="1155.5" y2="2839" stroke="#A8A8A8"/>
<line x1="2775.5" y1="-2.18557e-08" x2="2775.5" y2="2839" stroke="#A8A8A8"/>
<line x1="405.5" y1="-2.18557e-08" x2="405.5" y2="2839" stroke="#A8A8A8"/>
<line x1="2805.5" y1="-2.18557e-08" x2="2805.5" y2="2839" stroke="#A8A8A8"/>
<line x1="435.5" y1="-2.18557e-08" x2="435.5" y2="2839" stroke="#A8A8A8"/>
<line x1="2835.5" y1="-2.18557e-08" x2="2835.5" y2="2839" stroke="#A8A8A8"/>
<line x1="465.5" y1="-2.18557e-08" x2="465.5" y2="2839" stroke="#A8A8A8"/>
<line x1="2865.5" y1="-2.18557e-08" x2="2865.5" y2="2839" stroke="#A8A8A8"/>
<line x1="495.5" y1="-2.18557e-08" x2="495.5" y2="2839" stroke="#A8A8A8"/>
<line x1="2895.5" y1="-2.18557e-08" x2="2895.5" y2="2839" stroke="#A8A8A8"/>
<line x1="525.5" y1="-2.18557e-08" x2="525.5" y2="2839" stroke="#A8A8A8"/>
<line x1="2925.5" y1="-2.18557e-08" x2="2925.5" y2="2839" stroke="#A8A8A8"/>
<line x1="555.5" y1="-2.18557e-08" x2="555.5" y2="2839" stroke="#A8A8A8"/>
<line x1="2955.5" y1="-2.18557e-08" x2="2955.5" y2="2839" stroke="#A8A8A8"/>
<line x1="585.5" y1="-2.18557e-08" x2="585.5" y2="2839" stroke="#A8A8A8"/>
<line x1="2985.5" y1="-2.18557e-08" x2="2985.5" y2="2839" stroke="#A8A8A8"/>
<line x1="615.5" y1="-2.18557e-08" x2="615.5" y2="2839" stroke="#A8A8A8"/>
<line x1="3015.5" y1="-2.18557e-08" x2="3015.5" y2="2839" stroke="#A8A8A8"/>
<line x1="645.5" y1="-2.18557e-08" x2="645.5" y2="2839" stroke="#A8A8A8"/>
<line x1="3045.5" y1="-2.18557e-08" x2="3045.5" y2="2839" stroke="#A8A8A8"/>
<line x1="675.5" y1="-2.18557e-08" x2="675.5" y2="2839" stroke="#A8A8A8"/>
<line x1="3075.5" y1="-2.18557e-08" x2="3075.5" y2="2839" stroke="#A8A8A8"/>
<line x1="705.5" y1="-2.18557e-08" x2="705.5" y2="2839" stroke="#A8A8A8"/>
<line x1="3105.5" y1="-2.18557e-08" x2="3105.5" y2="2839" stroke="#A8A8A8"/>
<line x1="735.5" y1="-2.18557e-08" x2="735.5" y2="2839" stroke="#A8A8A8"/>
<line x1="3135.5" y1="-2.18557e-08" x2="3135.5" y2="2839" stroke="#A8A8A8"/>
<line x1="765.5" y1="-2.18557e-08" x2="765.5" y2="2839" stroke="#A8A8A8"/>
<line x1="2385.5" y1="-2.18557e-08" x2="2385.5" y2="2839" stroke="#A8A8A8"/>
<line x1="15.5" y1="-2.18557e-08" x2="15.5001" y2="2839" stroke="#A8A8A8"/>
<line x1="2415.5" y1="-2.18557e-08" x2="2415.5" y2="2839" stroke="#A8A8A8"/>
<line x1="45.5" y1="-2.18557e-08" x2="45.5001" y2="2839" stroke="#A8A8A8"/>
<line x1="2445.5" y1="-2.18557e-08" x2="2445.5" y2="2839" stroke="#A8A8A8"/>
<line x1="75.5" y1="-2.18557e-08" x2="75.5001" y2="2839" stroke="#A8A8A8"/>
<line x1="2475.5" y1="-2.18557e-08" x2="2475.5" y2="2839" stroke="#A8A8A8"/>
<line x1="105.5" y1="-2.18557e-08" x2="105.5" y2="2839" stroke="#A8A8A8"/>
<line x1="2505.5" y1="-2.18557e-08" x2="2505.5" y2="2839" stroke="#A8A8A8"/>
<line x1="135.5" y1="-2.18557e-08" x2="135.5" y2="2839" stroke="#A8A8A8"/>
<line x1="2535.5" y1="-2.18557e-08" x2="2535.5" y2="2839" stroke="#A8A8A8"/>
<line x1="165.5" y1="-2.18557e-08" x2="165.5" y2="2839" stroke="#A8A8A8"/>
<line x1="2565.5" y1="-2.18557e-08" x2="2565.5" y2="2839" stroke="#A8A8A8"/>
<line x1="195.5" y1="-2.18557e-08" x2="195.5" y2="2839" stroke="#A8A8A8"/>
<line x1="2595.5" y1="-2.18557e-08" x2="2595.5" y2="2839" stroke="#A8A8A8"/>
<line x1="225.5" y1="-2.18557e-08" x2="225.5" y2="2839" stroke="#A8A8A8"/>
<line x1="2625.5" y1="-2.18557e-08" x2="2625.5" y2="2839" stroke="#A8A8A8"/>
<line x1="255.5" y1="-2.18557e-08" x2="255.5" y2="2839" stroke="#A8A8A8"/>
<line x1="2655.5" y1="-2.18557e-08" x2="2655.5" y2="2839" stroke="#A8A8A8"/>
<line x1="285.5" y1="-2.18557e-08" x2="285.5" y2="2839" stroke="#A8A8A8"/>
<line x1="2685.5" y1="-2.18557e-08" x2="2685.5" y2="2839" stroke="#A8A8A8"/>
<line x1="315.5" y1="-2.18557e-08" x2="315.5" y2="2839" stroke="#A8A8A8"/>
<line x1="2715.5" y1="-2.18557e-08" x2="2715.5" y2="2839" stroke="#A8A8A8"/>
<line x1="345.5" y1="-2.18557e-08" x2="345.5" y2="2839" stroke="#A8A8A8"/>
<line x1="2745.5" y1="-2.18557e-08" x2="2745.5" y2="2839" stroke="#A8A8A8"/>
<line x1="375.5" y1="-2.18557e-08" x2="375.5" y2="2839" stroke="#A8A8A8"/>
<line y1="-0.5" x2="4349" y2="-0.5" transform="matrix(-1 -8.74228e-08 -8.74228e-08 1 4349 268.001)" stroke="#A8A8A8"/>
<line y1="-0.5" x2="4349" y2="-0.5" transform="matrix(-1 -8.74228e-08 -8.74228e-08 1 4349 658)" stroke="#A8A8A8"/>
<line y1="-0.5" x2="4349" y2="-0.5" transform="matrix(-1 -8.74228e-08 -8.74228e-08 1 4349 1048)" stroke="#A8A8A8"/>
<line y1="-0.5" x2="4349" y2="-0.5" transform="matrix(-1 -8.74228e-08 -8.74228e-08 1 4349 1438)" stroke="#A8A8A8"/>
<line y1="-0.5" x2="4349" y2="-0.5" transform="matrix(-1 -8.74228e-08 -8.74228e-08 1 4349 1828)" stroke="#A8A8A8"/>
<line y1="-0.5" x2="4349" y2="-0.5" transform="matrix(-1 -8.74228e-08 -8.74228e-08 1 4349 2218)" stroke="#A8A8A8"/>
<line y1="-0.5" x2="4349" y2="-0.5" transform="matrix(-1 -8.74228e-08 -8.74228e-08 1 4349 2608)" stroke="#A8A8A8"/>
<line y1="-0.5" x2="4349" y2="-0.5" transform="matrix(-1 -8.74228e-08 -8.74228e-08 1 4349 238)" stroke="#A8A8A8"/>
<line y1="-0.5" x2="4349" y2="-0.5" transform="matrix(-1 -8.74228e-08 -8.74228e-08 1 4349 628)" stroke="#A8A8A8"/>
<line y1="-0.5" x2="4349" y2="-0.5" transform="matrix(-1 -8.74228e-08 -8.74228e-08 1 4349 1018)" stroke="#A8A8A8"/>
<line y1="-0.5" x2="4349" y2="-0.5" transform="matrix(-1 -8.74228e-08 -8.74228e-08 1 4349 1408)" stroke="#A8A8A8"/>
<line y1="-0.5" x2="4349" y2="-0.5" transform="matrix(-1 -8.74228e-08 -8.74228e-08 1 4349 1798)" stroke="#A8A8A8"/>
<line y1="-0.5" x2="4349" y2="-0.5" transform="matrix(-1 -8.74228e-08 -8.74228e-08 1 4349 2188)" stroke="#A8A8A8"/>
<line y1="-0.5" x2="4349" y2="-0.5" transform="matrix(-1 -8.74228e-08 -8.74228e-08 1 4349 2578)" stroke="#A8A8A8"/>
<line y1="-0.5" x2="4349" y2="-0.5" transform="matrix(-1 -8.74228e-08 -8.74228e-08 1 4349 208)" stroke="#A8A8A8"/>
<line y1="-0.5" x2="4349" y2="-0.5" transform="matrix(-1 -8.74228e-08 -8.74228e-08 1 4349 598)" stroke="#A8A8A8"/>
<line y1="-0.5" x2="4349" y2="-0.5" transform="matrix(-1 -8.74228e-08 -8.74228e-08 1 4349 988)" stroke="#A8A8A8"/>
<line y1="-0.5" x2="4349" y2="-0.5" transform="matrix(-1 -8.74228e-08 -8.74228e-08 1 4349 1378)" stroke="#A8A8A8"/>
<line y1="-0.5" x2="4349" y2="-0.5" transform="matrix(-1 -8.74228e-08 -8.74228e-08 1 4349 1768)" stroke="#A8A8A8"/>
<line y1="-0.5" x2="4349" y2="-0.5" transform="matrix(-1 -8.74228e-08 -8.74228e-08 1 4349 2158)" stroke="#A8A8A8"/>
<line y1="-0.5" x2="4349" y2="-0.5" transform="matrix(-1 -8.74228e-08 -8.74228e-08 1 4349 2548)" stroke="#A8A8A8"/>
<line y1="-0.5" x2="4349" y2="-0.5" transform="matrix(-1 -8.74228e-08 -8.74228e-08 1 4349 178)" stroke="#A8A8A8"/>
<line y1="-0.5" x2="4349" y2="-0.5" transform="matrix(-1 -8.74228e-08 -8.74228e-08 1 4349 568)" stroke="#A8A8A8"/>
<line y1="-0.5" x2="4349" y2="-0.5" transform="matrix(-1 -8.74228e-08 -8.74228e-08 1 4349 958)" stroke="#A8A8A8"/>
<line y1="-0.5" x2="4349" y2="-0.5" transform="matrix(-1 -8.74228e-08 -8.74228e-08 1 4349 1348)" stroke="#A8A8A8"/>
<line y1="-0.5" x2="4349" y2="-0.5" transform="matrix(-1 -8.74228e-08 -8.74228e-08 1 4349 1738)" stroke="#A8A8A8"/>
<line y1="-0.5" x2="4349" y2="-0.5" transform="matrix(-1 -8.74228e-08 -8.74228e-08 1 4349 2128)" stroke="#A8A8A8"/>
<line y1="-0.5" x2="4349" y2="-0.5" transform="matrix(-1 -8.74228e-08 -8.74228e-08 1 4349 2518)" stroke="#A8A8A8"/>
<line y1="-0.5" x2="4349" y2="-0.5" transform="matrix(-1 -8.74228e-08 -8.74228e-08 1 4349 148.001)" stroke="#A8A8A8"/>
<line y1="-0.5" x2="4349" y2="-0.5" transform="matrix(-1 -8.74228e-08 -8.74228e-08 1 4349 538)" stroke="#A8A8A8"/>
<line y1="-0.5" x2="4349" y2="-0.5" transform="matrix(-1 -8.74228e-08 -8.74228e-08 1 4349 928)" stroke="#A8A8A8"/>
<line y1="-0.5" x2="4349" y2="-0.5" transform="matrix(-1 -8.74228e-08 -8.74228e-08 1 4349 1318)" stroke="#A8A8A8"/>
<line y1="-0.5" x2="4349" y2="-0.5" transform="matrix(-1 -8.74228e-08 -8.74228e-08 1 4349 1708)" stroke="#A8A8A8"/>
<line y1="-0.5" x2="4349" y2="-0.5" transform="matrix(-1 -8.74228e-08 -8.74228e-08 1 4349 2098)" stroke="#A8A8A8"/>
<line y1="-0.5" x2="4349" y2="-0.5" transform="matrix(-1 -8.74228e-08 -8.74228e-08 1 4349 2488)" stroke="#A8A8A8"/>
<line y1="-0.5" x2="4349" y2="-0.5" transform="matrix(-1 -8.74228e-08 -8.74228e-08 1 4349 118.001)" stroke="#A8A8A8"/>
<line y1="-0.5" x2="4349" y2="-0.5" transform="matrix(-1 -8.74228e-08 -8.74228e-08 1 4349 508)" stroke="#A8A8A8"/>
<line y1="-0.5" x2="4349" y2="-0.5" transform="matrix(-1 -8.74228e-08 -8.74228e-08 1 4349 898)" stroke="#A8A8A8"/>
<line y1="-0.5" x2="4349" y2="-0.5" transform="matrix(-1 -8.74228e-08 -8.74228e-08 1 4349 1288)" stroke="#A8A8A8"/>
<line y1="-0.5" x2="4349" y2="-0.5" transform="matrix(-1 -8.74228e-08 -8.74228e-08 1 4349 1678)" stroke="#A8A8A8"/>
<line y1="-0.5" x2="4349" y2="-0.5" transform="matrix(-1 -8.74228e-08 -8.74228e-08 1 4349 2068)" stroke="#A8A8A8"/>
<line y1="-0.5" x2="4349" y2="-0.5" transform="matrix(-1 -8.74228e-08 -8.74228e-08 1 4349 2458)" stroke="#A8A8A8"/>
<line y1="-0.5" x2="4349" y2="-0.5" transform="matrix(-1 -8.74228e-08 -8.74228e-08 1 4349 88.0005)" stroke="#A8A8A8"/>
<line y1="-0.5" x2="4349" y2="-0.5" transform="matrix(-1 -8.74228e-08 -8.74228e-08 1 4349 478)" stroke="#A8A8A8"/>
<line y1="-0.5" x2="4349" y2="-0.5" transform="matrix(-1 -8.74228e-08 -8.74228e-08 1 4349 868)" stroke="#A8A8A8"/>
<line y1="-0.5" x2="4349" y2="-0.5" transform="matrix(-1 -8.74228e-08 -8.74228e-08 1 4349 1258)" stroke="#A8A8A8"/>
<line y1="-0.5" x2="4349" y2="-0.5" transform="matrix(-1 -8.74228e-08 -8.74228e-08 1 4349 1648)" stroke="#A8A8A8"/>
<line y1="-0.5" x2="4349" y2="-0.5" transform="matrix(-1 -8.74228e-08 -8.74228e-08 1 4349 2038)" stroke="#A8A8A8"/>
<line y1="-0.5" x2="4349" y2="-0.5" transform="matrix(-1 -8.74228e-08 -8.74228e-08 1 4349 2428)" stroke="#A8A8A8"/>
<line y1="-0.5" x2="4349" y2="-0.5" transform="matrix(-1 -8.74228e-08 -8.74228e-08 1 4349 58.0007)" stroke="#A8A8A8"/>
<line y1="-0.5" x2="4349" y2="-0.5" transform="matrix(-1 -8.74228e-08 -8.74228e-08 1 4349 448)" stroke="#A8A8A8"/>
<line y1="-0.5" x2="4349" y2="-0.5" transform="matrix(-1 -8.74228e-08 -8.74228e-08 1 4349 838)" stroke="#A8A8A8"/>
<line y1="-0.5" x2="4349" y2="-0.5" transform="matrix(-1 -8.74228e-08 -8.74228e-08 1 4349 1228)" stroke="#A8A8A8"/>
<line y1="-0.5" x2="4349" y2="-0.5" transform="matrix(-1 -8.74228e-08 -8.74228e-08 1 4349 1618)" stroke="#A8A8A8"/>
<line y1="-0.5" x2="4349" y2="-0.5" transform="matrix(-1 -8.74228e-08 -8.74228e-08 1 4349 2008)" stroke="#A8A8A8"/>
<line y1="-0.5" x2="4349" y2="-0.5" transform="matrix(-1 -8.74228e-08 -8.74228e-08 1 4349 2398)" stroke="#A8A8A8"/>
<line y1="-0.5" x2="4349" y2="-0.5" transform="matrix(-1 -8.74228e-08 -8.74228e-08 1 4349 28.0007)" stroke="#A8A8A8"/>
<line y1="-0.5" x2="4349" y2="-0.5" transform="matrix(-1 -8.74228e-08 -8.74228e-08 1 4349 418)" stroke="#A8A8A8"/>
<line y1="-0.5" x2="4349" y2="-0.5" transform="matrix(-1 -8.74228e-08 -8.74228e-08 1 4349 808)" stroke="#A8A8A8"/>
<line y1="-0.5" x2="4349" y2="-0.5" transform="matrix(-1 -8.74228e-08 -8.74228e-08 1 4349 1198)" stroke="#A8A8A8"/>
<line y1="-0.5" x2="4349" y2="-0.5" transform="matrix(-1 -8.74228e-08 -8.74228e-08 1 4349 1588)" stroke="#A8A8A8"/>
<line y1="-0.5" x2="4349" y2="-0.5" transform="matrix(-1 -8.74228e-08 -8.74228e-08 1 4349 1978)" stroke="#A8A8A8"/>
<line y1="-0.5" x2="4349" y2="-0.5" transform="matrix(-1 -8.74228e-08 -8.74228e-08 1 4349 2368)" stroke="#A8A8A8"/>
<line y1="-0.5" x2="4349" y2="-0.5" transform="matrix(-1 -8.74228e-08 -8.74228e-08 1 4349 298)" stroke="#A8A8A8"/>
<line y1="-0.5" x2="4349" y2="-0.5" transform="matrix(-1 -8.74228e-08 -8.74228e-08 1 4349 688)" stroke="#A8A8A8"/>
<line y1="-0.5" x2="4349" y2="-0.5" transform="matrix(-1 -8.74228e-08 -8.74228e-08 1 4349 1078)" stroke="#A8A8A8"/>
<line y1="-0.5" x2="4349" y2="-0.5" transform="matrix(-1 -8.74228e-08 -8.74228e-08 1 4349 1468)" stroke="#A8A8A8"/>
<line y1="-0.5" x2="4349" y2="-0.5" transform="matrix(-1 -8.74228e-08 -8.74228e-08 1 4349 1858)" stroke="#A8A8A8"/>
<line y1="-0.5" x2="4349" y2="-0.5" transform="matrix(-1 -8.74228e-08 -8.74228e-08 1 4349 2248)" stroke="#A8A8A8"/>
<line y1="-0.5" x2="4349" y2="-0.5" transform="matrix(-1 -8.74228e-08 -8.74228e-08 1 4349 2638)" stroke="#A8A8A8"/>
<line y1="-0.5" x2="4349" y2="-0.5" transform="matrix(-1 -8.74228e-08 -8.74228e-08 1 4349 328)" stroke="#A8A8A8"/>
<line y1="-0.5" x2="4349" y2="-0.5" transform="matrix(-1 -8.74228e-08 -8.74228e-08 1 4349 718)" stroke="#A8A8A8"/>
<line y1="-0.5" x2="4349" y2="-0.5" transform="matrix(-1 -8.74228e-08 -8.74228e-08 1 4349 1108)" stroke="#A8A8A8"/>
<line y1="-0.5" x2="4349" y2="-0.5" transform="matrix(-1 -8.74228e-08 -8.74228e-08 1 4349 1498)" stroke="#A8A8A8"/>
<line y1="-0.5" x2="4349" y2="-0.5" transform="matrix(-1 -8.74228e-08 -8.74228e-08 1 4349 1888)" stroke="#A8A8A8"/>
<line y1="-0.5" x2="4349" y2="-0.5" transform="matrix(-1 -8.74228e-08 -8.74228e-08 1 4349 2278)" stroke="#A8A8A8"/>
<line y1="-0.5" x2="4349" y2="-0.5" transform="matrix(-1 -8.74228e-08 -8.74228e-08 1 4349 2668)" stroke="#A8A8A8"/>
<line y1="-0.5" x2="4349" y2="-0.5" transform="matrix(-1 -8.74228e-08 -8.74228e-08 1 4349 358)" stroke="#A8A8A8"/>
<line y1="-0.5" x2="4349" y2="-0.5" transform="matrix(-1 -8.74228e-08 -8.74228e-08 1 4349 748)" stroke="#A8A8A8"/>
<line y1="-0.5" x2="4349" y2="-0.5" transform="matrix(-1 -8.74228e-08 -8.74228e-08 1 4349 1138)" stroke="#A8A8A8"/>
<line y1="-0.5" x2="4349" y2="-0.5" transform="matrix(-1 -8.74228e-08 -8.74228e-08 1 4349 1528)" stroke="#A8A8A8"/>
<line y1="-0.5" x2="4349" y2="-0.5" transform="matrix(-1 -8.74228e-08 -8.74228e-08 1 4349 1918)" stroke="#A8A8A8"/>
<line y1="-0.5" x2="4349" y2="-0.5" transform="matrix(-1 -8.74228e-08 -8.74228e-08 1 4349 2308)" stroke="#A8A8A8"/>
<line y1="-0.5" x2="4349" y2="-0.5" transform="matrix(-1 -8.74228e-08 -8.74228e-08 1 4349 2698)" stroke="#A8A8A8"/>
<line y1="-0.5" x2="4349" y2="-0.5" transform="matrix(-1 -8.74228e-08 -8.74228e-08 1 4349 388)" stroke="#A8A8A8"/>
<line y1="-0.5" x2="4349" y2="-0.5" transform="matrix(-1 -8.74228e-08 -8.74228e-08 1 4349 778)" stroke="#A8A8A8"/>
<line y1="-0.5" x2="4349" y2="-0.5" transform="matrix(-1 -8.74228e-08 -8.74228e-08 1 4349 1168)" stroke="#A8A8A8"/>
<line y1="-0.5" x2="4349" y2="-0.5" transform="matrix(-1 -8.74228e-08 -8.74228e-08 1 4349 1558)" stroke="#A8A8A8"/>
<line y1="-0.5" x2="4349" y2="-0.5" transform="matrix(-1 -8.74228e-08 -8.74228e-08 1 4349 1948)" stroke="#A8A8A8"/>
<line y1="-0.5" x2="4349" y2="-0.5" transform="matrix(-1 -8.74228e-08 -8.74228e-08 1 4349 2338)" stroke="#A8A8A8"/>
<line y1="-0.5" x2="4349" y2="-0.5" transform="matrix(-1 -8.74228e-08 -8.74228e-08 1 4349 2728)" stroke="#A8A8A8"/>
<line y1="-0.5" x2="4349" y2="-0.5" transform="matrix(-1 -8.74228e-08 -8.74228e-08 1 4349 2758)" stroke="#A8A8A8"/>
<line y1="-0.5" x2="4349" y2="-0.5" transform="matrix(-1 -8.74228e-08 -8.74228e-08 1 4349 2788)" stroke="#A8A8A8"/>
<line y1="-0.5" x2="4349" y2="-0.5" transform="matrix(-1 -8.74228e-08 -8.74228e-08 1 4349 2818)" stroke="#A8A8A8"/>
</g>
<defs>
<clipPath id="clip0_243_1705">
<rect width="4349" height="2839" fill="white"/>
</clipPath>
</defs>
</svg>
