<svg width="600" height="150" viewBox="0 0 600 150" fill="none" xmlns="http://www.w3.org/2000/svg">
<rect width="50" height="50" fill="#FF80E3"/>
<rect x="50" y="50" width="50" height="50" fill="#FF80E3"/>
<rect x="50" width="50" height="50" fill="#FF80E3"/>
<rect x="150" width="50" height="50" fill="#FF80E3"/>
<rect x="200" y="50" width="50" height="50" fill="#FF80E3"/>
<rect x="150" y="100" width="50" height="50" fill="#FF80E3"/>
<rect x="250" y="100" width="50" height="50" fill="#FF80E3"/>
<rect x="350" width="50" height="50" fill="#FF80E3"/>
<rect x="350" y="50" width="50" height="50" fill="#FF80E3"/>
<rect x="350" y="100" width="50" height="50" fill="#FF80E3"/>
<rect x="400" y="100" width="50" height="50" fill="#FF80E3"/>
<rect x="500" y="100" width="50" height="50" fill="#FFB6F8"/>
<rect x="550" y="100" width="50" height="50" fill="#FFB6F8"/>
<rect x="550" y="50" width="50" height="50" fill="#FFB6F8"/>
<rect x="550" width="50" height="50" fill="#FF80E3"/>
<rect x="500" y="50" width="50" height="50" fill="#FF80E3"/>
<rect x="500" width="50" height="50" fill="#FF80E3"/>
<rect x="250" width="50" height="50" fill="#FF80E3"/>
<rect y="50" width="50" height="50" fill="#FF80E3"/>
<rect y="100" width="50" height="50" fill="#FF80E3"/>
</svg>
