<svg width="173" height="58" viewBox="0 0 173 58" fill="none" xmlns="http://www.w3.org/2000/svg">
<rect width="167" height="50.5" fill="white"/>
<rect x="7.5" y="8.49996" width="164" height="47.5" stroke="black" stroke-width="3"/>
<path d="M48.0293 39.0001V24.6837H51.5742L53.7032 34.4493L55.8125 24.6837H59.3672V39.0001H57.1699V27.7305L54.836 39.0001H52.5508L50.2364 27.7305V39.0001H48.0293ZM61.6621 39.0001V24.6837H64.0254V39.0001H61.6621ZM66.3301 39.0001V24.6837H68.6348L73.4395 34.2442V24.6837H75.6465V39.0001H73.2637L68.5371 29.6641V39.0001H66.3301ZM80.7832 39.0001V27.1055H77.2969V24.6837H86.6231V27.1055H83.1465V39.0001H80.7832ZM92.7559 39.0001V24.6837H95.0606L99.8653 34.2442V24.6837H102.072V39.0001H99.6895L94.9629 29.6641V39.0001H92.7559ZM104.094 31.9297C104.094 30.224 104.344 28.821 104.846 27.7208C105.354 26.614 106.014 25.7904 106.828 25.2501C107.642 24.7097 108.628 24.4395 109.787 24.4395C111.467 24.4395 112.834 25.0808 113.889 26.3633C114.95 27.6459 115.48 29.4721 115.48 31.8419C115.48 34.2377 114.921 36.1094 113.801 37.4571C112.818 38.6485 111.483 39.2442 109.797 39.2442C108.098 39.2442 106.757 38.655 105.773 37.4766C104.654 36.129 104.094 34.28 104.094 31.9297ZM106.535 31.8321C106.535 33.4792 106.848 34.7162 107.473 35.543C108.098 36.3633 108.872 36.7735 109.797 36.7735C110.728 36.7735 111.499 36.3666 112.111 35.5528C112.723 34.7325 113.029 33.476 113.029 31.7833C113.029 30.1231 112.73 28.8959 112.131 28.1016C111.538 27.3074 110.76 26.9102 109.797 26.9102C108.833 26.9102 108.049 27.3106 107.443 28.1114C106.838 28.9122 106.535 30.1524 106.535 31.8321ZM118.996 39.0001L116.193 24.6837H118.625L120.383 34.5176L122.531 24.6837H125.354L127.414 34.6837L129.221 24.6837H131.604L128.752 39.0001H126.232L123.889 28.2969L121.564 39.0001H118.996Z" fill="black"/>
</svg>
