<svg width="346" height="115" viewBox="0 0 346 115" fill="none" xmlns="http://www.w3.org/2000/svg">
<rect width="334" height="101" fill="white"/>
<rect x="13.5" y="15.5" width="331" height="98" fill="black" stroke="black" stroke-width="3"/>
<path d="M88.0078 77V51.2305H95.7949L100.471 68.8086L105.094 51.2305H112.898V77H108.064V56.7148L102.949 77H97.9395L92.8418 56.7148V77H88.0078ZM117.908 77V51.2305H123.111V77H117.908ZM128.139 77V51.2305H133.201L143.748 68.4395V51.2305H148.582V77H143.361L132.973 60.1953V77H128.139ZM159.902 77V55.5898H152.256V51.2305H172.734V55.5898H165.105V77H159.902ZM186.182 77V51.2305H191.244L201.791 68.4395V51.2305H206.625V77H201.404L191.016 60.1953V77H186.182ZM211.09 64.2734C211.09 61.6484 211.482 59.4453 212.268 57.6641C212.854 56.3516 213.65 55.1738 214.658 54.1309C215.678 53.0879 216.791 52.3145 217.998 51.8105C219.604 51.1309 221.455 50.791 223.553 50.791C227.35 50.791 230.385 51.9688 232.658 54.3242C234.943 56.6797 236.086 59.9551 236.086 64.1504C236.086 68.3105 234.955 71.5684 232.693 73.9238C230.432 76.2676 227.408 77.4395 223.623 77.4395C219.791 77.4395 216.744 76.2734 214.482 73.9414C212.221 71.5977 211.09 68.375 211.09 64.2734ZM216.451 64.0977C216.451 67.0156 217.125 69.2305 218.473 70.7422C219.82 72.2422 221.531 72.9922 223.605 72.9922C225.68 72.9922 227.379 72.248 228.703 70.7598C230.039 69.2598 230.707 67.0156 230.707 64.0273C230.707 61.0742 230.057 58.8711 228.756 57.418C227.467 55.9648 225.75 55.2383 223.605 55.2383C221.461 55.2383 219.732 55.9766 218.42 57.4531C217.107 58.918 216.451 61.1328 216.451 64.0977ZM243.82 77L237.668 51.2305H242.994L246.879 68.9316L251.59 51.2305H257.777L262.295 69.2305L266.25 51.2305H271.488L265.23 77H259.711L254.578 57.7344L249.463 77H243.82Z" fill="white"/>
</svg>
