<svg width="281" height="268" viewBox="0 0 281 268" fill="none" xmlns="http://www.w3.org/2000/svg">
<g filter="url(#filter0_d_221_1064)">
<path d="M135.527 22.3619L165.899 100.724L249.811 105.394L184.669 158.494L206.159 239.743L135.527 194.198L64.8961 239.743L86.3854 158.494L21.2436 105.394L105.156 100.724L135.527 22.3619Z" fill="#FD616A"/>
<path d="M139.257 20.9164L135.527 11.2934L131.798 20.9164L102.358 96.8738L21.0214 101.4L10.7168 101.974L18.7163 108.494L81.8588 159.965L61.0291 238.72L58.3902 248.697L67.0638 243.104L135.527 198.958L203.991 243.104L212.665 248.697L210.026 238.72L189.196 159.965L252.339 108.494L260.338 101.974L250.034 101.4L168.696 96.8738L139.257 20.9164Z" stroke="white" stroke-width="8"/>
</g>
<defs>
<filter id="filter0_d_221_1064" x="0.189453" y="0.224731" width="280.676" height="267.427" filterUnits="userSpaceOnUse" color-interpolation-filters="sRGB">
<feFlood flood-opacity="0" result="BackgroundImageFix"/>
<feColorMatrix in="SourceAlpha" type="matrix" values="0 0 0 0 0 0 0 0 0 0 0 0 0 0 0 0 0 0 127 0" result="hardAlpha"/>
<feOffset dx="10" dy="10"/>
<feComposite in2="hardAlpha" operator="out"/>
<feColorMatrix type="matrix" values="0 0 0 0 0.913292 0 0 0 0 0.958333 0 0 0 0 0.395312 0 0 0 1 0"/>
<feBlend mode="normal" in2="BackgroundImageFix" result="effect1_dropShadow_221_1064"/>
<feBlend mode="normal" in="SourceGraphic" in2="effect1_dropShadow_221_1064" result="shape"/>
</filter>
</defs>
</svg>
