<svg width="532" height="506" viewBox="0 0 532 506" fill="none" xmlns="http://www.w3.org/2000/svg">
<g filter="url(#filter0_d_42_350)">
<path d="M256 23L318.176 183.422L489.96 192.982L356.603 301.688L400.595 468.018L256 374.78L111.405 468.018L155.397 301.688L22.0401 192.982L193.824 183.422L256 23Z" fill="#FD616A"/>
<path d="M259.73 21.5545L256 11.9314L252.27 21.5545L191.027 179.572L21.8178 188.988L11.5133 189.561L19.5128 196.082L150.871 303.159L107.538 466.995L104.899 476.973L113.573 471.38L256 379.539L398.427 471.38L407.101 476.973L404.462 466.995L361.129 303.159L492.487 196.082L500.487 189.561L490.182 188.988L320.973 179.572L259.73 21.5545Z" stroke="white" stroke-width="8"/>
</g>
<defs>
<filter id="filter0_d_42_350" x="0.986389" y="0.862854" width="530.027" height="505.065" filterUnits="userSpaceOnUse" color-interpolation-filters="sRGB">
<feFlood flood-opacity="0" result="BackgroundImageFix"/>
<feColorMatrix in="SourceAlpha" type="matrix" values="0 0 0 0 0 0 0 0 0 0 0 0 0 0 0 0 0 0 127 0" result="hardAlpha"/>
<feOffset dx="20" dy="20"/>
<feComposite in2="hardAlpha" operator="out"/>
<feColorMatrix type="matrix" values="0 0 0 0 0.913292 0 0 0 0 0.958333 0 0 0 0 0.395312 0 0 0 1 0"/>
<feBlend mode="normal" in2="BackgroundImageFix" result="effect1_dropShadow_42_350"/>
<feBlend mode="normal" in="SourceGraphic" in2="effect1_dropShadow_42_350" result="shape"/>
</filter>
</defs>
</svg>
