<svg width="3425" height="305" viewBox="0 0 3425 305" fill="none" xmlns="http://www.w3.org/2000/svg">
<g filter="url(#filter0_d_745_1479)">
<path d="M0.367266 257.382L13.3092 256.409C16.5812 256.163 19.0728 256.348 20.784 256.963C22.5131 257.558 24.144 258.669 25.6767 260.297C27.2093 261.925 28.4789 264.092 29.4854 266.797C30.4919 269.503 31.1497 272.911 31.4588 277.02C31.7371 280.721 31.5607 283.975 30.9298 286.784C30.2974 289.574 29.3985 291.816 28.2332 293.51C27.0678 295.203 25.6005 296.528 23.8313 297.484C22.0801 298.418 19.7729 298.993 16.9099 299.209L3.58817 300.211L0.367266 257.382ZM7.98202 264.096L10.1154 292.463L15.4324 292.063C17.7111 291.892 19.3407 291.554 20.3213 291.049C21.3213 290.543 22.1104 289.837 22.6887 288.932C23.285 288.006 23.7271 286.592 24.0149 284.69C24.3028 282.788 24.3317 280.308 24.1018 277.25C23.863 274.076 23.4508 271.59 22.8652 269.793C22.2991 267.994 21.509 266.604 20.495 265.623C19.5006 264.64 18.3287 264.033 16.9794 263.801C15.9671 263.623 14.0391 263.64 11.1956 263.854L7.98202 264.096ZM39.0544 297.543L35.8335 254.715L50.7621 253.592C54.5794 253.305 57.3354 253.49 59.03 254.146C60.7231 254.782 62.1673 256.015 63.3626 257.845C64.5563 259.655 65.2528 261.884 65.452 264.533C65.704 267.883 65.0986 270.641 63.6358 272.808C62.1926 274.973 60.0105 276.43 57.0897 277.178C58.6909 278.155 60.0372 279.258 61.1286 280.488C62.2185 281.699 63.7464 283.915 65.7123 287.136L70.6059 295.171L62.163 295.805L56.3204 286.873C54.2168 283.643 52.8024 281.634 52.0772 280.846C51.3505 280.039 50.6054 279.507 49.8419 279.251C49.0769 278.976 47.8764 278.9 46.2404 279.023L44.7797 279.132L46.1243 297.012L39.0544 297.543ZM44.2656 272.296L49.5242 271.901C52.7377 271.659 54.7725 271.369 55.6284 271.03C56.4829 270.672 57.1506 270.044 57.6315 269.146C58.1123 268.248 58.2993 267.089 58.1924 265.667C58.0899 264.303 57.7352 263.233 57.1283 262.456C56.52 261.66 55.7367 261.141 54.7784 260.9C54.1001 260.735 52.1736 260.772 48.999 261.011L43.4483 261.429L44.2656 272.296ZM106.101 292.501L98.3888 293.081L94.5897 283.583L80.5668 284.638L78.4062 294.584L70.8689 295.151L81.3203 251.294L88.8284 250.73L106.101 292.501ZM91.7683 276.539L85.7527 261.009L82.186 277.259L91.7683 276.539ZM112.12 292.048L100.514 249.851L107.789 249.304L115.26 278.327L119.474 248.425L127.917 247.79L136.331 277.242L139.486 246.92L146.614 246.384L141.305 289.854L133.767 290.42L124.348 258.929L119.803 291.471L112.12 292.048ZM163.909 245.083L176.851 244.11C180.123 243.864 182.615 244.049 184.326 244.664C186.055 245.259 187.686 246.37 189.219 247.998C190.751 249.626 192.021 251.793 193.027 254.498C194.034 257.204 194.692 260.611 195.001 264.721C195.279 268.421 195.103 271.676 194.472 274.485C193.839 277.275 192.941 279.517 191.775 281.21C190.61 282.904 189.143 284.229 187.373 285.184C185.622 286.119 183.315 286.694 180.452 286.91L167.13 287.911L163.909 245.083ZM171.524 251.797L173.657 280.164L178.974 279.764C181.253 279.593 182.883 279.255 183.863 278.75C184.863 278.244 185.653 277.538 186.231 276.633C186.827 275.707 187.269 274.292 187.557 272.391C187.845 270.489 187.874 268.009 187.644 264.951C187.405 261.776 186.993 259.29 186.407 257.493C185.841 255.695 185.051 254.305 184.037 253.323C183.043 252.341 181.871 251.733 180.521 251.502C179.509 251.323 177.581 251.341 174.738 251.555L171.524 251.797ZM202.596 285.244L199.376 242.416L214.304 241.293C218.121 241.006 220.877 241.191 222.572 241.847C224.265 242.483 225.709 243.716 226.905 245.546C228.098 247.356 228.795 249.585 228.994 252.234C229.246 255.584 228.641 258.342 227.178 260.509C225.735 262.674 223.553 264.131 220.632 264.879C222.233 265.856 223.579 266.959 224.671 268.189C225.761 269.4 227.289 271.616 229.254 274.837L234.148 282.871L225.705 283.506L219.862 274.574C217.759 271.343 216.344 269.334 215.619 268.547C214.893 267.74 214.148 267.208 213.384 266.952C212.619 266.677 211.418 266.6 209.782 266.723L208.322 266.833L209.666 284.712L202.596 285.244ZM207.808 259.997L213.066 259.602C216.28 259.36 218.315 259.07 219.171 258.731C220.025 258.373 220.693 257.745 221.174 256.847C221.654 255.949 221.841 254.789 221.734 253.368C221.632 252.004 221.277 250.934 220.67 250.157C220.062 249.361 219.279 248.842 218.32 248.6C217.642 248.436 215.716 248.473 212.541 248.712L206.99 249.129L207.808 259.997ZM269.643 280.202L261.931 280.782L258.132 271.284L244.109 272.339L241.948 282.285L234.411 282.852L244.862 238.995L252.37 238.43L269.643 280.202ZM255.31 264.24L249.295 248.71L245.728 264.96L255.31 264.24ZM275.662 279.749L264.056 237.552L271.331 237.005L278.802 266.028L283.016 236.126L291.459 235.491L299.873 264.943L303.028 234.621L310.157 234.085L304.847 277.554L297.31 278.121L287.89 246.63L283.345 279.171L275.662 279.749ZM327.451 232.784L340.393 231.811C343.665 231.565 346.157 231.749 347.868 232.365C349.597 232.96 351.228 234.071 352.761 235.699C354.293 237.327 355.563 239.493 356.57 242.199C357.576 244.905 358.234 248.312 358.543 252.422C358.821 256.122 358.645 259.377 358.014 262.186C357.382 264.976 356.483 267.217 355.317 268.911C354.152 270.605 352.685 271.93 350.915 272.885C349.164 273.82 346.857 274.395 343.994 274.61L330.672 275.612L327.451 232.784ZM335.066 239.497L337.2 267.865L342.517 267.465C344.795 267.293 346.425 266.955 347.405 266.451C348.405 265.945 349.195 265.239 349.773 264.334C350.369 263.407 350.811 261.993 351.099 260.091C351.387 258.189 351.416 255.71 351.186 252.652C350.947 249.477 350.535 246.991 349.949 245.194C349.383 243.396 348.593 242.006 347.579 241.024C346.585 240.041 345.413 239.434 344.064 239.203C343.051 239.024 341.123 239.042 338.28 239.256L335.066 239.497ZM366.139 272.945L362.918 230.117L377.846 228.994C381.664 228.707 384.42 228.891 386.114 229.547C387.807 230.184 389.251 231.417 390.447 233.247C391.641 235.057 392.337 237.286 392.536 239.935C392.788 243.285 392.183 246.043 390.72 248.21C389.277 250.375 387.095 251.832 384.174 252.58C385.775 253.556 387.121 254.66 388.213 255.89C389.303 257.101 390.831 259.317 392.796 262.538L397.69 270.572L389.247 271.207L383.405 262.274C381.301 259.044 379.887 257.035 379.161 256.248C378.435 255.44 377.69 254.909 376.926 254.653C376.161 254.377 374.961 254.301 373.325 254.424L371.864 254.534L373.208 272.413L366.139 272.945ZM371.35 247.698L376.608 247.302C379.822 247.061 381.857 246.771 382.713 246.432C383.567 246.074 384.235 245.446 384.716 244.548C385.196 243.65 385.383 242.49 385.277 241.068C385.174 239.705 384.819 238.635 384.212 237.858C383.604 237.061 382.821 236.543 381.863 236.301C381.184 236.137 379.258 236.174 376.083 236.413L370.532 236.83L371.35 247.698ZM433.186 267.903L425.473 268.483L421.674 258.985L407.651 260.04L405.49 269.986L397.953 270.552L408.404 226.696L415.913 226.131L433.186 267.903ZM418.852 251.94L412.837 236.41L409.27 252.661L418.852 251.94ZM439.204 267.45L427.598 225.252L434.873 224.705L442.344 253.729L446.558 223.827L455.001 223.192L463.415 252.643L466.57 222.322L473.699 221.785L468.389 265.255L460.852 265.822L451.432 234.33L446.887 266.872L439.204 267.45ZM490.993 220.485L503.935 219.511C507.207 219.265 509.699 219.45 511.41 220.066C513.139 220.66 514.77 221.772 516.303 223.4C517.836 225.028 519.105 227.194 520.112 229.9C521.118 232.605 521.776 236.013 522.085 240.122C522.363 243.823 522.187 247.078 521.556 249.887C520.924 252.677 520.025 254.918 518.859 256.612C517.694 258.306 516.227 259.63 514.458 260.586C512.706 261.521 510.399 262.096 507.536 262.311L494.214 263.313L490.993 220.485ZM498.608 227.198L500.742 255.565L506.059 255.166C508.337 254.994 509.967 254.656 510.948 254.152C511.948 253.645 512.737 252.94 513.315 252.034C513.911 251.108 514.353 249.694 514.641 247.792C514.929 245.89 514.958 243.41 514.728 240.353C514.489 237.178 514.077 234.692 513.491 232.895C512.925 231.096 512.135 229.707 511.121 228.725C510.127 227.742 508.955 227.135 507.606 226.904C506.593 226.725 504.665 226.743 501.822 226.957L498.608 227.198ZM529.681 260.646L526.46 217.818L541.388 216.695C545.206 216.408 547.962 216.592 549.656 217.248C551.349 217.885 552.794 219.118 553.989 220.947C555.183 222.758 555.879 224.987 556.078 227.636C556.33 230.986 555.725 233.744 554.262 235.91C552.819 238.076 550.637 239.532 547.716 240.281C549.317 241.257 550.663 242.361 551.755 243.591C552.845 244.802 554.373 247.017 556.339 250.238L561.232 258.273L552.789 258.908L546.947 249.975C544.843 246.745 543.429 244.736 542.703 243.948C541.977 243.141 541.232 242.61 540.468 242.354C539.703 242.078 538.503 242.002 536.867 242.125L535.406 242.235L536.751 260.114L529.681 260.646ZM534.892 235.399L540.15 235.003C543.364 234.762 545.399 234.471 546.255 234.133C547.109 233.775 547.777 233.147 548.258 232.249C548.739 231.351 548.926 230.191 548.819 228.769C548.716 227.406 548.361 226.336 547.755 225.559C547.146 224.762 546.363 224.243 545.405 224.002C544.726 223.838 542.8 223.875 539.625 224.114L534.075 224.531L534.892 235.399ZM596.728 255.604L589.015 256.184L585.216 246.686L571.193 247.74L569.032 257.686L561.495 258.253L571.947 214.397L579.455 213.832L596.728 255.604ZM582.395 239.641L576.379 224.111L572.812 240.362L582.395 239.641ZM602.746 255.151L591.14 212.953L598.415 212.406L605.886 241.43L610.101 211.527L618.543 210.892L626.957 240.344L630.112 210.022L637.241 209.486L631.931 252.956L624.394 253.523L614.974 222.031L610.429 254.573L602.746 255.151ZM654.536 208.186L667.478 207.212C670.75 206.966 673.241 207.151 674.952 207.767C676.681 208.361 678.312 209.473 679.845 211.1C681.378 212.728 682.647 214.895 683.654 217.601C684.66 220.306 685.318 223.714 685.627 227.823C685.905 231.524 685.729 234.779 685.098 237.588C684.466 240.377 683.567 242.619 682.401 244.313C681.236 246.007 679.769 247.331 678 248.287C676.248 249.222 673.941 249.797 671.078 250.012L657.756 251.014L654.536 208.186ZM662.15 214.899L664.284 243.266L669.601 242.866C671.879 242.695 673.509 242.357 674.49 241.852C675.49 241.346 676.279 240.641 676.857 239.735C677.453 238.809 677.895 237.395 678.183 235.493C678.471 233.591 678.5 231.111 678.27 228.053C678.031 224.879 677.619 222.393 677.034 220.596C676.467 218.797 675.677 217.407 674.663 216.426C673.669 215.443 672.497 214.836 671.148 214.604C670.135 214.426 668.207 214.444 665.364 214.657L662.15 214.899ZM693.223 248.347L690.002 205.518L704.93 204.396C708.748 204.109 711.504 204.293 713.198 204.949C714.891 205.586 716.336 206.819 717.531 208.648C718.725 210.458 719.421 212.688 719.62 215.337C719.872 218.686 719.267 221.445 717.804 223.611C716.361 225.776 714.179 227.233 711.258 227.982C712.859 228.958 714.205 230.061 715.297 231.292C716.387 232.502 717.915 234.718 719.881 237.939L724.774 245.974L716.331 246.609L710.489 237.676C708.385 234.446 706.971 232.437 706.245 231.649C705.519 230.842 704.774 230.31 704.01 230.054C703.245 229.779 702.045 229.703 700.409 229.826L698.948 229.936L700.293 247.815L693.223 248.347ZM698.434 223.1L703.692 222.704C706.906 222.462 708.941 222.172 709.797 221.834C710.651 221.476 711.319 220.848 711.8 219.95C712.281 219.052 712.468 217.892 712.361 216.47C712.258 215.107 711.903 214.037 711.297 213.26C710.688 212.463 709.905 211.944 708.947 211.703C708.268 211.538 706.342 211.576 703.167 211.814L697.617 212.232L698.434 223.1ZM760.27 243.304L752.557 243.884L748.758 234.387L734.735 235.441L732.574 245.387L725.037 245.954L735.489 202.098L742.997 201.533L760.27 243.304ZM745.937 227.342L739.921 211.812L736.354 228.063L745.937 227.342ZM766.288 242.852L754.682 200.654L761.957 200.107L769.428 229.13L773.643 199.228L782.086 198.593L790.5 228.045L793.654 197.723L800.783 197.187L795.473 240.657L787.936 241.224L778.516 209.732L773.971 242.274L766.288 242.852ZM818.078 195.886L831.02 194.913C834.292 194.667 836.783 194.852 838.494 195.467C840.224 196.062 841.854 197.173 843.387 198.801C844.92 200.429 846.189 202.596 847.196 205.302C848.202 208.007 848.86 211.415 849.169 215.524C849.447 219.225 849.271 222.479 848.64 225.289C848.008 228.078 847.109 230.32 845.944 232.014C844.778 233.707 843.311 235.032 841.542 235.988C839.79 236.922 837.483 237.498 834.62 237.713L821.299 238.715L818.078 195.886ZM825.692 202.6L827.826 230.967L833.143 230.567C835.421 230.396 837.051 230.058 838.032 229.553C839.032 229.047 839.821 228.341 840.399 227.436C840.995 226.51 841.437 225.096 841.725 223.194C842.013 221.292 842.042 218.812 841.812 215.754C841.573 212.58 841.161 210.094 840.576 208.297C840.009 206.498 839.219 205.108 838.205 204.127C837.211 203.144 836.039 202.537 834.69 202.305C833.677 202.127 831.75 202.144 828.906 202.358L825.692 202.6ZM856.765 236.047L853.544 193.219L868.472 192.096C872.29 191.809 875.046 191.994 876.74 192.65C878.433 193.286 879.878 194.519 881.073 196.349C882.267 198.159 882.963 200.389 883.162 203.037C883.414 206.387 882.809 209.146 881.346 211.312C879.903 213.477 877.721 214.934 874.8 215.682C876.401 216.659 877.748 217.762 878.839 218.992C879.929 220.203 881.457 222.419 883.423 225.64L888.316 233.675L879.873 234.31L874.031 225.377C871.927 222.147 870.513 220.138 869.788 219.35C869.061 218.543 868.316 218.011 867.552 217.755C866.787 217.48 865.587 217.404 863.951 217.527L862.49 217.637L863.835 235.516L856.765 236.047ZM861.976 210.8L867.235 210.405C870.448 210.163 872.483 209.873 873.339 209.535C874.193 209.176 874.861 208.548 875.342 207.65C875.823 206.753 876.01 205.593 875.903 204.171C875.8 202.808 875.446 201.737 874.839 200.96C874.23 200.164 873.447 199.645 872.489 199.404C871.81 199.239 869.884 199.276 866.709 199.515L861.159 199.933L861.976 210.8ZM923.812 231.005L916.099 231.585L912.3 222.088L898.277 223.142L896.117 233.088L888.579 233.655L899.031 189.798L906.539 189.234L923.812 231.005ZM909.479 215.043L903.463 199.513L899.896 215.764L909.479 215.043ZM929.83 230.553L918.225 188.355L925.499 187.808L932.97 216.831L937.185 186.929L945.628 186.294L954.042 215.746L957.197 185.424L964.325 184.888L959.015 228.358L951.478 228.925L942.058 197.433L937.513 229.975L929.83 230.553ZM981.62 183.587L994.562 182.614C997.834 182.368 1000.33 182.553 1002.04 183.168C1003.77 183.763 1005.4 184.874 1006.93 186.502C1008.46 188.13 1009.73 190.297 1010.74 193.002C1011.74 195.708 1012.4 199.115 1012.71 203.225C1012.99 206.925 1012.81 210.18 1012.18 212.989C1011.55 215.779 1010.65 218.021 1009.49 219.714C1008.32 221.408 1006.85 222.733 1005.08 223.689C1003.33 224.623 1001.03 225.198 998.162 225.414L984.841 226.415L981.62 183.587ZM989.234 190.301L991.368 218.668L996.685 218.268C998.964 218.097 1000.59 217.759 1001.57 217.254C1002.57 216.748 1003.36 216.042 1003.94 215.137C1004.54 214.211 1004.98 212.797 1005.27 210.895C1005.56 208.993 1005.58 206.513 1005.35 203.455C1005.12 200.28 1004.7 197.795 1004.12 195.997C1003.55 194.199 1002.76 192.809 1001.75 191.828C1000.75 190.845 999.581 190.237 998.232 190.006C997.22 189.827 995.292 189.845 992.448 190.059L989.234 190.301ZM1020.31 223.748L1017.09 180.92L1032.01 179.797C1035.83 179.51 1038.59 179.695 1040.28 180.351C1041.98 180.987 1043.42 182.22 1044.62 184.05C1045.81 185.86 1046.51 188.089 1046.7 190.738C1046.96 194.088 1046.35 196.846 1044.89 199.013C1043.45 201.178 1041.26 202.635 1038.34 203.383C1039.94 204.36 1041.29 205.463 1042.38 206.693C1043.47 207.904 1045 210.12 1046.96 213.341L1051.86 221.375L1043.42 222.01L1037.57 213.078C1035.47 209.847 1034.05 207.838 1033.33 207.051C1032.6 206.244 1031.86 205.712 1031.09 205.456C1030.33 205.181 1029.13 205.104 1027.49 205.228L1026.03 205.337L1027.38 223.217L1020.31 223.748ZM1025.52 198.501L1030.78 198.106C1033.99 197.864 1036.02 197.574 1036.88 197.235C1037.74 196.877 1038.4 196.249 1038.88 195.351C1039.36 194.453 1039.55 193.293 1039.44 191.872C1039.34 190.508 1038.99 189.438 1038.38 188.661C1037.77 187.865 1036.99 187.346 1036.03 187.105C1035.35 186.94 1033.43 186.977 1030.25 187.216L1024.7 187.633L1025.52 198.501ZM1087.35 218.706L1079.64 219.286L1075.84 209.788L1061.82 210.843L1059.66 220.789L1052.12 221.356L1062.57 177.499L1070.08 176.935L1087.35 218.706ZM1073.02 202.744L1067.01 187.214L1063.44 203.464L1073.02 202.744ZM1093.37 218.253L1081.77 176.056L1089.04 175.509L1096.51 204.532L1100.73 174.63L1109.17 173.995L1117.58 203.447L1120.74 173.125L1127.87 172.589L1122.56 216.059L1115.02 216.625L1105.6 185.134L1101.06 217.676L1093.37 218.253ZM1145.16 171.288L1158.1 170.315C1161.38 170.069 1163.87 170.253 1165.58 170.869C1167.31 171.464 1168.94 172.575 1170.47 174.203C1172 175.831 1173.27 177.998 1174.28 180.703C1175.29 183.409 1175.94 186.816 1176.25 190.926C1176.53 194.626 1176.36 197.881 1175.72 200.69C1175.09 203.48 1174.19 205.722 1173.03 207.415C1171.86 209.109 1170.4 210.434 1168.63 211.389C1166.87 212.324 1164.57 212.899 1161.7 213.114L1148.38 214.116L1145.16 171.288ZM1152.78 178.002L1154.91 206.369L1160.23 205.969C1162.51 205.797 1164.14 205.459 1165.12 204.955C1166.12 204.449 1166.9 203.743 1167.48 202.838C1168.08 201.911 1168.52 200.497 1168.81 198.595C1169.1 196.693 1169.13 194.214 1168.9 191.156C1168.66 187.981 1168.25 185.495 1167.66 183.698C1167.09 181.9 1166.3 180.51 1165.29 179.528C1164.3 178.545 1163.12 177.938 1161.77 177.707C1160.76 177.528 1158.83 177.546 1155.99 177.76L1152.78 178.002ZM1183.85 211.449L1180.63 168.621L1195.56 167.498C1199.37 167.211 1202.13 167.395 1203.82 168.051C1205.52 168.688 1206.96 169.921 1208.16 171.751C1209.35 173.561 1210.05 175.79 1210.25 178.439C1210.5 181.789 1209.89 184.547 1208.43 186.714C1206.99 188.879 1204.81 190.336 1201.88 191.084C1203.49 192.061 1204.83 193.164 1205.92 194.394C1207.01 195.605 1208.54 197.821 1210.51 201.042L1215.4 209.076L1206.96 209.711L1201.11 200.778C1199.01 197.548 1197.6 195.539 1196.87 194.752C1196.15 193.944 1195.4 193.413 1194.64 193.157C1193.87 192.881 1192.67 192.805 1191.03 192.928L1189.57 193.038L1190.92 210.917L1183.85 211.449ZM1189.06 186.202L1194.32 185.807C1197.53 185.565 1199.57 185.275 1200.42 184.936C1201.28 184.578 1201.95 183.95 1202.43 183.052C1202.91 182.154 1203.09 180.994 1202.99 179.573C1202.88 178.209 1202.53 177.139 1201.92 176.362C1201.31 175.566 1200.53 175.047 1199.57 174.805C1198.89 174.641 1196.97 174.678 1193.79 174.917L1188.24 175.334L1189.06 186.202ZM1250.9 206.407L1243.18 206.987L1239.38 197.489L1225.36 198.544L1223.2 208.49L1215.66 209.056L1226.11 165.2L1233.62 164.635L1250.9 206.407ZM1236.56 190.445L1230.55 174.914L1226.98 191.165L1236.56 190.445ZM1256.91 205.954L1245.31 163.756L1252.58 163.209L1260.05 192.233L1264.27 162.331L1272.71 161.696L1281.13 191.148L1284.28 160.826L1291.41 160.29L1286.1 203.759L1278.56 204.326L1269.14 172.835L1264.6 205.376L1256.91 205.954ZM1308.7 158.989L1321.65 158.016C1324.92 157.769 1327.41 157.954 1329.12 158.57C1330.85 159.165 1332.48 160.276 1334.01 161.904C1335.55 163.532 1336.82 165.698 1337.82 168.404C1338.83 171.11 1339.49 174.517 1339.8 178.627C1340.07 182.327 1339.9 185.582 1339.27 188.391C1338.63 191.181 1337.74 193.422 1336.57 195.116C1335.4 196.81 1333.94 198.134 1332.17 199.09C1330.42 200.025 1328.11 200.6 1325.25 200.815L1311.92 201.817L1308.7 158.989ZM1316.32 165.702L1318.45 194.069L1323.77 193.67C1326.05 193.498 1327.68 193.16 1328.66 192.656C1329.66 192.149 1330.45 191.444 1331.03 190.539C1331.62 189.612 1332.06 188.198 1332.35 186.296C1332.64 184.394 1332.67 181.914 1332.44 178.857C1332.2 175.682 1331.79 173.196 1331.2 171.399C1330.64 169.601 1329.85 168.211 1328.83 167.229C1327.84 166.246 1326.67 165.639 1325.32 165.408C1324.3 165.229 1322.38 165.247 1319.53 165.461L1316.32 165.702ZM1347.39 199.15L1344.17 156.322L1359.1 155.199C1362.92 154.912 1365.67 155.096 1367.37 155.752C1369.06 156.389 1370.5 157.622 1371.7 159.451C1372.89 161.262 1373.59 163.491 1373.79 166.14C1374.04 169.49 1373.44 172.248 1371.97 174.415C1370.53 176.58 1368.35 178.036 1365.43 178.785C1367.03 179.761 1368.37 180.865 1369.47 182.095C1370.56 183.306 1372.08 185.521 1374.05 188.743L1378.94 196.777L1370.5 197.412L1364.66 188.479C1362.55 185.249 1361.14 183.24 1360.41 182.452C1359.69 181.645 1358.94 181.114 1358.18 180.858C1357.41 180.582 1356.21 180.506 1354.58 180.629L1353.12 180.739L1354.46 198.618L1347.39 199.15ZM1352.6 173.903L1357.86 173.507C1361.07 173.266 1363.11 172.976 1363.97 172.637C1364.82 172.279 1365.49 171.651 1365.97 170.753C1366.45 169.855 1366.64 168.695 1366.53 167.273C1366.43 165.91 1366.07 164.84 1365.46 164.063C1364.86 163.266 1364.07 162.747 1363.12 162.506C1362.44 162.342 1360.51 162.379 1357.34 162.618L1351.78 163.035L1352.6 173.903ZM1414.44 194.108L1406.73 194.688L1402.93 185.19L1388.9 186.245L1386.74 196.19L1379.21 196.757L1389.66 152.901L1397.17 152.336L1414.44 194.108ZM1400.1 178.145L1394.09 162.615L1390.52 178.866L1400.1 178.145ZM1420.46 193.655L1408.85 151.457L1416.13 150.91L1423.6 179.934L1427.81 150.031L1436.25 149.396L1444.67 178.848L1447.82 148.526L1454.95 147.99L1449.64 191.46L1442.1 192.027L1432.68 160.535L1428.14 193.077L1420.46 193.655ZM1472.25 146.69L1485.19 145.716C1488.46 145.47 1490.95 145.655 1492.66 146.271C1494.39 146.865 1496.02 147.977 1497.56 149.605C1499.09 151.232 1500.36 153.399 1501.36 156.105C1502.37 158.81 1503.03 162.218 1503.34 166.327C1503.62 170.028 1503.44 173.283 1502.81 176.092C1502.18 178.881 1501.28 181.123 1500.11 182.817C1498.95 184.511 1497.48 185.835 1495.71 186.791C1493.96 187.726 1491.65 188.301 1488.79 188.516L1475.47 189.518L1472.25 146.69ZM1479.86 153.403L1481.99 181.77L1487.31 181.37C1489.59 181.199 1491.22 180.861 1492.2 180.356C1493.2 179.85 1493.99 179.145 1494.57 178.239C1495.16 177.313 1495.61 175.899 1495.89 173.997C1496.18 172.095 1496.21 169.615 1495.98 166.557C1495.74 163.383 1495.33 160.897 1494.74 159.1C1494.18 157.301 1493.39 155.911 1492.37 154.93C1491.38 153.947 1490.21 153.34 1488.86 153.108C1487.85 152.93 1485.92 152.948 1483.07 153.161L1479.86 153.403ZM1510.93 186.851L1507.71 144.022L1522.64 142.9C1526.46 142.613 1529.21 142.797 1530.91 143.453C1532.6 144.09 1534.05 145.323 1535.24 147.152C1536.44 148.962 1537.13 151.192 1537.33 153.841C1537.58 157.191 1536.98 159.949 1535.51 162.115C1534.07 164.28 1531.89 165.737 1528.97 166.486C1530.57 167.462 1531.92 168.565 1533.01 169.796C1534.1 171.006 1535.63 173.222 1537.59 176.443L1542.48 184.478L1534.04 185.113L1528.2 176.18C1526.1 172.95 1524.68 170.941 1523.96 170.153C1523.23 169.346 1522.48 168.815 1521.72 168.559C1520.96 168.283 1519.76 168.207 1518.12 168.33L1516.66 168.44L1518 186.319L1510.93 186.851ZM1516.14 161.604L1521.4 161.208C1524.62 160.967 1526.65 160.676 1527.51 160.338C1528.36 159.98 1529.03 159.352 1529.51 158.454C1529.99 157.556 1530.18 156.396 1530.07 154.974C1529.97 153.611 1529.61 152.541 1529.01 151.764C1528.4 150.967 1527.62 150.448 1526.66 150.207C1525.98 150.043 1524.05 150.08 1520.88 150.318L1515.33 150.736L1516.14 161.604ZM1577.98 181.808L1570.27 182.388L1566.47 172.891L1552.45 173.945L1550.28 183.891L1542.75 184.458L1553.2 140.602L1560.71 140.037L1577.98 181.808ZM1563.65 165.846L1557.63 150.316L1554.06 166.567L1563.65 165.846ZM1584 181.356L1572.39 139.158L1579.67 138.611L1587.14 167.634L1591.35 137.732L1599.8 137.097L1608.21 166.549L1611.36 136.227L1618.49 135.691L1613.18 179.161L1605.65 179.728L1596.23 148.236L1591.68 180.778L1584 181.356ZM1635.79 134.39L1648.73 133.417C1652 133.171 1654.49 133.356 1656.2 133.971C1657.93 134.566 1659.56 135.677 1661.1 137.305C1662.63 138.933 1663.9 141.1 1664.91 143.806C1665.91 146.511 1666.57 149.919 1666.88 154.028C1667.16 157.729 1666.98 160.983 1666.35 163.793C1665.72 166.582 1664.82 168.824 1663.65 170.518C1662.49 172.211 1661.02 173.536 1659.25 174.492C1657.5 175.427 1655.19 176.002 1652.33 176.217L1639.01 177.219L1635.79 134.39ZM1643.4 141.104L1645.54 169.471L1650.85 169.071C1653.13 168.9 1654.76 168.562 1655.74 168.057C1656.74 167.551 1657.53 166.845 1658.11 165.94C1658.71 165.014 1659.15 163.6 1659.44 161.698C1659.72 159.796 1659.75 157.316 1659.52 154.258C1659.28 151.084 1658.87 148.598 1658.29 146.801C1657.72 145.002 1656.93 143.612 1655.92 142.631C1654.92 141.648 1653.75 141.041 1652.4 140.809C1651.39 140.631 1649.46 140.648 1646.62 140.862L1643.4 141.104ZM1674.48 174.552L1671.25 131.723L1686.18 130.601C1690 130.313 1692.76 130.498 1694.45 131.154C1696.14 131.79 1697.59 133.024 1698.78 134.853C1699.98 136.663 1700.67 138.893 1700.87 141.541C1701.12 144.891 1700.52 147.65 1699.06 149.816C1697.61 151.981 1695.43 153.438 1692.51 154.187C1694.11 155.163 1695.46 156.266 1696.55 157.497C1697.64 158.707 1699.17 160.923 1701.13 164.144L1706.03 172.179L1697.58 172.814L1691.74 163.881C1689.64 160.651 1688.22 158.642 1687.5 157.854C1686.77 157.047 1686.03 156.515 1685.26 156.259C1684.5 155.984 1683.3 155.908 1681.66 156.031L1680.2 156.141L1681.55 174.02L1674.48 174.552ZM1679.69 149.304L1684.94 148.909C1688.16 148.667 1690.19 148.377 1691.05 148.039C1691.9 147.681 1692.57 147.053 1693.05 146.155C1693.53 145.257 1693.72 144.097 1693.61 142.675C1693.51 141.312 1693.16 140.241 1692.55 139.464C1691.94 138.668 1691.16 138.149 1690.2 137.908C1689.52 137.743 1687.59 137.781 1684.42 138.019L1678.87 138.437L1679.69 149.304ZM1741.52 169.509L1733.81 170.089L1730.01 160.592L1715.99 161.646L1713.83 171.592L1706.29 172.159L1716.74 128.302L1724.25 127.738L1741.52 169.509ZM1727.19 153.547L1721.17 138.017L1717.61 154.268L1727.19 153.547ZM1747.54 169.057L1735.93 126.859L1743.21 126.312L1750.68 155.335L1754.9 125.433L1763.34 124.798L1771.75 154.25L1774.91 123.928L1782.04 123.392L1776.73 166.862L1769.19 167.429L1759.77 135.937L1755.22 168.479L1747.54 169.057ZM1799.33 122.091L1812.27 121.118C1815.54 120.872 1818.04 121.057 1819.75 121.672C1821.48 122.267 1823.11 123.378 1824.64 125.006C1826.17 126.634 1827.44 128.801 1828.45 131.506C1829.45 134.212 1830.11 137.62 1830.42 141.729C1830.7 145.43 1830.52 148.684 1829.89 151.493C1829.26 154.283 1828.36 156.525 1827.2 158.219C1826.03 159.912 1824.56 161.237 1822.79 162.193C1821.04 163.127 1818.74 163.702 1815.87 163.918L1802.55 164.92L1799.33 122.091ZM1806.94 128.805L1809.08 157.172L1814.4 156.772C1816.67 156.601 1818.3 156.263 1819.28 155.758C1820.28 155.252 1821.07 154.546 1821.65 153.641C1822.25 152.715 1822.69 151.301 1822.98 149.399C1823.27 147.497 1823.29 145.017 1823.06 141.959C1822.83 138.784 1822.41 136.299 1821.83 134.502C1821.26 132.703 1820.47 131.313 1819.46 130.332C1818.46 129.349 1817.29 128.742 1815.94 128.51C1814.93 128.332 1813 128.349 1810.16 128.563L1806.94 128.805ZM1838.02 162.252L1834.8 119.424L1849.72 118.301C1853.54 118.014 1856.3 118.199 1857.99 118.855C1859.69 119.491 1861.13 120.724 1862.33 122.554C1863.52 124.364 1864.22 126.593 1864.41 129.242C1864.67 132.592 1864.06 135.35 1862.6 137.517C1861.16 139.682 1858.97 141.139 1856.05 141.887C1857.65 142.864 1859 143.967 1860.09 145.197C1861.18 146.408 1862.71 148.624 1864.68 151.845L1869.57 159.88L1861.13 160.514L1855.28 151.582C1853.18 148.352 1851.77 146.343 1851.04 145.555C1850.31 144.748 1849.57 144.216 1848.8 143.96C1848.04 143.685 1846.84 143.609 1845.2 143.732L1843.74 143.841L1845.09 161.721L1838.02 162.252ZM1843.23 137.005L1848.49 136.61C1851.7 136.368 1853.74 136.078 1854.59 135.739C1855.45 135.381 1856.11 134.753 1856.59 133.855C1857.08 132.957 1857.26 131.798 1857.16 130.376C1857.05 129.012 1856.7 127.942 1856.09 127.165C1855.48 126.369 1854.7 125.85 1853.74 125.609C1853.06 125.444 1851.14 125.481 1847.96 125.72L1842.41 126.138L1843.23 137.005ZM1905.06 157.21L1897.35 157.79L1893.55 148.292L1879.53 149.347L1877.37 159.293L1869.83 159.86L1880.28 116.003L1887.79 115.439L1905.06 157.21ZM1890.73 141.248L1884.72 125.718L1881.15 141.968L1890.73 141.248ZM1911.08 156.757L1899.48 114.56L1906.75 114.013L1914.22 143.036L1918.44 113.134L1926.88 112.499L1935.29 141.951L1938.45 111.629L1945.58 111.093L1940.27 154.563L1932.73 155.129L1923.31 123.638L1918.77 156.18L1911.08 156.757ZM1962.87 109.792L1975.81 108.819C1979.09 108.573 1981.58 108.758 1983.29 109.373C1985.02 109.968 1986.65 111.079 1988.18 112.707C1989.71 114.335 1990.98 116.502 1991.99 119.207C1993 121.913 1993.65 125.32 1993.96 129.43C1994.24 133.13 1994.07 136.385 1993.43 139.194C1992.8 141.984 1991.9 144.226 1990.74 145.919C1989.57 147.613 1988.11 148.938 1986.34 149.893C1984.58 150.828 1982.28 151.403 1979.41 151.619L1966.09 152.62L1962.87 109.792ZM1970.49 116.506L1972.62 144.873L1977.94 144.473C1980.22 144.302 1981.85 143.964 1982.83 143.459C1983.83 142.953 1984.62 142.247 1985.19 141.342C1985.79 140.416 1986.23 139.001 1986.52 137.1C1986.81 135.198 1986.84 132.718 1986.61 129.66C1986.37 126.485 1985.96 123.999 1985.37 122.202C1984.8 120.404 1984.01 119.014 1983 118.032C1982.01 117.05 1980.83 116.442 1979.48 116.211C1978.47 116.032 1976.54 116.05 1973.7 116.264L1970.49 116.506ZM2001.56 149.953L1998.34 107.125L2013.27 106.002C2017.08 105.715 2019.84 105.9 2021.53 106.556C2023.23 107.192 2024.67 108.425 2025.87 110.255C2027.06 112.065 2027.76 114.294 2027.96 116.943C2028.21 120.293 2027.6 123.051 2026.14 125.218C2024.7 127.383 2022.52 128.84 2019.59 129.588C2021.2 130.565 2022.54 131.668 2023.63 132.898C2024.72 134.109 2026.25 136.325 2028.22 139.546L2033.11 147.58L2024.67 148.215L2018.83 139.283C2016.72 136.052 2015.31 134.043 2014.58 133.256C2013.86 132.449 2013.11 131.917 2012.35 131.661C2011.58 131.386 2010.38 131.309 2008.75 131.432L2007.28 131.542L2008.63 149.421L2001.56 149.953ZM2006.77 124.706L2012.03 124.311C2015.24 124.069 2017.28 123.779 2018.13 123.44C2018.99 123.082 2019.66 122.454 2020.14 121.556C2020.62 120.658 2020.8 119.498 2020.7 118.077C2020.59 116.713 2020.24 115.643 2019.63 114.866C2019.02 114.07 2018.24 113.551 2017.28 113.309C2016.61 113.145 2014.68 113.182 2011.5 113.421L2005.95 113.838L2006.77 124.706ZM2068.61 144.911L2060.89 145.491L2057.09 135.993L2043.07 137.048L2040.91 146.994L2033.37 147.561L2043.83 103.704L2051.33 103.139L2068.61 144.911ZM2054.27 128.949L2048.26 113.419L2044.69 129.669L2054.27 128.949ZM2074.62 144.458L2063.02 102.261L2070.29 101.714L2077.76 130.737L2081.98 100.835L2090.42 100.2L2098.84 129.652L2101.99 99.3297L2109.12 98.7936L2103.81 142.263L2096.27 142.83L2086.85 111.339L2082.31 143.88L2074.62 144.458ZM2126.41 97.4929L2139.36 96.5196C2142.63 96.2736 2145.12 96.4583 2146.83 97.0739C2148.56 97.6686 2150.19 98.7799 2151.72 100.408C2153.26 102.036 2154.53 104.202 2155.53 106.908C2156.54 109.614 2157.2 113.021 2157.51 117.131C2157.78 120.831 2157.61 124.086 2156.98 126.895C2156.34 129.685 2155.45 131.926 2154.28 133.62C2153.11 135.314 2151.65 136.639 2149.88 137.594C2148.13 138.529 2145.82 139.104 2142.96 139.319L2129.64 140.321L2126.41 97.4929ZM2134.03 104.206L2136.16 132.574L2141.48 132.174C2143.76 132.002 2145.39 131.664 2146.37 131.16C2147.37 130.654 2148.16 129.948 2148.74 129.043C2149.33 128.116 2149.77 126.702 2150.06 124.8C2150.35 122.898 2150.38 120.419 2150.15 117.361C2149.91 114.186 2149.5 111.7 2148.91 109.903C2148.35 108.105 2147.56 106.715 2146.54 105.733C2145.55 104.75 2144.38 104.143 2143.03 103.912C2142.01 103.733 2140.09 103.751 2137.24 103.965L2134.03 104.206ZM2165.1 137.654L2161.88 94.8257L2176.81 93.703C2180.63 93.4159 2183.38 93.6004 2185.08 94.2564C2186.77 94.8929 2188.21 96.126 2189.41 97.9556C2190.6 99.7657 2191.3 101.995 2191.5 104.644C2191.75 107.994 2191.15 110.752 2189.68 112.919C2188.24 115.084 2186.06 116.541 2183.14 117.289C2184.74 118.265 2186.08 119.369 2187.18 120.599C2188.27 121.81 2189.79 124.026 2191.76 127.247L2196.65 135.281L2188.21 135.916L2182.37 126.983C2180.26 123.753 2178.85 121.744 2178.12 120.957C2177.4 120.149 2176.65 119.618 2175.89 119.362C2175.12 119.086 2173.92 119.01 2172.29 119.133L2170.83 119.243L2172.17 137.122L2165.1 137.654ZM2170.31 112.407L2175.57 112.011C2178.78 111.77 2180.82 111.48 2181.68 111.141C2182.53 110.783 2183.2 110.155 2183.68 109.257C2184.16 108.359 2184.35 107.199 2184.24 105.777C2184.14 104.414 2183.78 103.344 2183.18 102.567C2182.57 101.77 2181.78 101.252 2180.83 101.01C2180.15 100.846 2178.22 100.883 2175.05 101.122L2169.5 101.539L2170.31 112.407ZM2232.15 132.612L2224.44 133.192L2220.64 123.694L2206.61 124.749L2204.45 134.695L2196.92 135.261L2207.37 91.4049L2214.88 90.8402L2232.15 132.612ZM2217.82 116.649L2211.8 101.119L2208.23 117.37L2217.82 116.649ZM2238.17 132.159L2226.56 89.9614L2233.84 89.4143L2241.31 118.438L2245.52 88.5355L2253.96 87.9005L2262.38 117.352L2265.53 87.0305L2272.66 86.4944L2267.35 129.964L2259.81 130.531L2250.39 99.0394L2245.85 131.581L2238.17 132.159ZM2289.96 85.1938L2302.9 84.2205C2306.17 83.9744 2308.66 84.1592 2310.37 84.7747C2312.1 85.3694 2313.73 86.4807 2315.27 88.1086C2316.8 89.7365 2318.07 91.9033 2319.07 94.6089C2320.08 97.3144 2320.74 100.722 2321.05 104.831C2321.33 108.532 2321.15 111.787 2320.52 114.596C2319.89 117.386 2318.99 119.627 2317.82 121.321C2316.66 123.015 2315.19 124.339 2313.42 125.295C2311.67 126.23 2309.36 126.805 2306.5 127.02L2293.18 128.022L2289.96 85.1938ZM2297.57 91.9072L2299.7 120.274L2305.02 119.875C2307.3 119.703 2308.93 119.365 2309.91 118.861C2310.91 118.354 2311.7 117.649 2312.28 116.743C2312.87 115.817 2313.32 114.403 2313.6 112.501C2313.89 110.599 2313.92 108.119 2313.69 105.062C2313.45 101.887 2313.04 99.4011 2312.45 97.604C2311.89 95.8055 2311.1 94.4155 2310.08 93.4341C2309.09 92.4512 2307.92 91.844 2306.57 91.6125C2305.56 91.434 2303.63 91.4517 2300.78 91.6656L2297.57 91.9072ZM2328.64 125.355L2325.42 82.5265L2340.35 81.4038C2344.17 81.1167 2346.92 81.3012 2348.62 81.9572C2350.31 82.5938 2351.76 83.8268 2352.95 85.6564C2354.15 87.4665 2354.84 89.6959 2355.04 92.3447C2355.29 95.6946 2354.69 98.4529 2353.22 100.619C2351.78 102.785 2349.6 104.241 2346.68 104.99C2348.28 105.966 2349.63 107.07 2350.72 108.3C2351.81 109.511 2353.34 111.726 2355.3 114.947L2360.2 122.982L2351.75 123.617L2345.91 114.684C2343.81 111.454 2342.39 109.445 2341.67 108.657C2340.94 107.85 2340.19 107.319 2339.43 107.063C2338.67 106.787 2337.47 106.711 2335.83 106.834L2334.37 106.944L2335.71 124.823L2328.64 125.355ZM2333.85 100.108L2339.11 99.7123C2342.33 99.4706 2344.36 99.1805 2345.22 98.8419C2346.07 98.4838 2346.74 97.8558 2347.22 96.9579C2347.7 96.0599 2347.89 94.9 2347.78 93.4783C2347.68 92.1149 2347.32 91.0448 2346.72 90.2678C2346.11 89.4713 2345.33 88.9524 2344.37 88.7111C2343.69 88.5467 2341.76 88.5838 2338.59 88.8226L2333.04 89.24L2333.85 100.108ZM2395.69 120.313L2387.98 120.893L2384.18 111.395L2370.16 112.449L2368 122.395L2360.46 122.962L2370.91 79.1057L2378.42 78.541L2395.69 120.313ZM2381.36 104.35L2375.34 88.8202L2371.78 105.071L2381.36 104.35ZM2401.71 119.86L2390.1 77.6622L2397.38 77.1151L2404.85 106.139L2409.06 76.2363L2417.51 75.6014L2425.92 105.053L2429.08 74.7313L2436.2 74.1952L2430.89 117.665L2423.36 118.232L2413.94 86.7402L2409.39 119.282L2401.71 119.86ZM2453.5 72.8946L2466.44 71.9213C2469.71 71.6752 2472.2 71.86 2473.92 72.4756C2475.64 73.0702 2477.28 74.1815 2478.81 75.8094C2480.34 77.4374 2481.61 79.6041 2482.62 82.3097C2483.62 85.0153 2484.28 88.4228 2484.59 92.5323C2484.87 96.2328 2484.69 99.4876 2484.06 102.297C2483.43 105.086 2482.53 107.328 2481.36 109.022C2480.2 110.716 2478.73 112.04 2476.96 112.996C2475.21 113.931 2472.9 114.506 2470.04 114.721L2456.72 115.723L2453.5 72.8946ZM2461.11 79.6081L2463.25 107.975L2468.56 107.575C2470.84 107.404 2472.47 107.066 2473.45 106.561C2474.45 106.055 2475.24 105.35 2475.82 104.444C2476.42 103.518 2476.86 102.104 2477.15 100.202C2477.43 98.3 2477.46 95.8202 2477.23 92.7624C2476.99 89.5878 2476.58 87.1019 2476 85.3048C2475.43 83.5063 2474.64 82.1163 2473.63 81.1349C2472.63 80.152 2471.46 79.5448 2470.11 79.3133C2469.1 79.1348 2467.17 79.1525 2464.33 79.3664L2461.11 79.6081ZM2492.19 113.056L2488.96 70.2273L2503.89 69.1046C2507.71 68.8176 2510.47 69.002 2512.16 69.658C2513.85 70.2946 2515.3 71.5276 2516.49 73.3572C2517.69 75.1673 2518.38 77.3967 2518.58 80.0455C2518.84 83.3954 2518.23 86.1537 2516.77 88.3203C2515.32 90.4854 2513.14 91.9422 2510.22 92.6907C2511.82 93.6671 2513.17 94.7704 2514.26 96.0006C2515.35 97.2113 2516.88 99.4272 2518.84 102.648L2523.74 110.683L2515.29 111.318L2509.45 102.385C2507.35 99.1548 2505.93 97.1458 2505.21 96.3581C2504.48 95.551 2503.74 95.0194 2502.97 94.7635C2502.21 94.488 2501.01 94.4118 2499.37 94.5349L2497.91 94.6447L2499.26 112.524L2492.19 113.056ZM2497.4 87.8086L2502.66 87.4131C2505.87 87.1714 2507.9 86.8813 2508.76 86.5427C2509.61 86.1846 2510.28 85.5566 2510.76 84.6587C2511.24 83.7607 2511.43 82.6008 2511.32 81.1791C2511.22 79.8157 2510.87 78.7456 2510.26 77.9686C2509.65 77.1721 2508.87 76.6532 2507.91 76.4119C2507.23 76.2475 2505.3 76.2846 2502.13 76.5234L2496.58 76.9408L2497.4 87.8086ZM2559.23 108.013L2551.52 108.593L2547.72 99.0957L2533.7 100.15L2531.54 110.096L2524 110.663L2534.45 66.8065L2541.96 66.2419L2559.23 108.013ZM2544.9 92.0511L2538.88 76.521L2535.32 92.7717L2544.9 92.0511ZM2565.25 107.561L2553.65 65.363L2560.92 64.816L2568.39 93.8394L2572.61 63.9371L2581.05 63.3022L2589.46 92.7541L2592.62 62.4321L2599.75 61.8961L2594.44 105.366L2586.9 105.933L2577.48 74.4411L2572.93 106.983L2565.25 107.561ZM2617.04 60.5954L2629.98 59.6221C2633.25 59.376 2635.75 59.5608 2637.46 60.1764C2639.19 60.771 2640.82 61.8823 2642.35 63.5103C2643.88 65.1382 2645.15 67.3049 2646.16 70.0105C2647.17 72.7161 2647.82 76.1236 2648.13 80.2331C2648.41 83.9336 2648.23 87.1884 2647.6 89.9975C2646.97 92.7872 2646.07 95.0289 2644.91 96.7226C2643.74 98.4163 2642.27 99.741 2640.5 100.697C2638.75 101.631 2636.45 102.206 2633.58 102.422L2620.26 103.424L2617.04 60.5954ZM2624.66 67.3089L2626.79 95.676L2632.11 95.2762C2634.38 95.1048 2636.01 94.7668 2636.99 94.2621C2637.99 93.756 2638.78 93.0503 2639.36 92.145C2639.96 91.2188 2640.4 89.8047 2640.69 87.9028C2640.98 86.0008 2641 83.521 2640.78 80.4632C2640.54 77.2886 2640.12 74.8027 2639.54 73.0056C2638.97 71.2071 2638.18 69.8171 2637.17 68.8357C2636.17 67.8528 2635 67.2457 2633.65 67.0142C2632.64 66.8357 2630.71 66.8533 2627.87 67.0672L2624.66 67.3089ZM2655.73 100.756L2652.51 57.9282L2667.44 56.8055C2671.25 56.5184 2674.01 56.7028 2675.7 57.3589C2677.4 57.9954 2678.84 59.2284 2680.04 61.058C2681.23 62.8681 2681.93 65.0976 2682.13 67.7463C2682.38 71.0962 2681.77 73.8545 2680.31 76.0211C2678.87 78.1862 2676.68 79.643 2673.76 80.3915C2675.36 81.3679 2676.71 82.4712 2677.8 83.7014C2678.89 84.9122 2680.42 87.128 2682.39 90.3491L2687.28 98.3836L2678.84 99.0186L2672.99 90.0858C2670.89 86.8556 2669.48 84.8466 2668.75 84.059C2668.02 83.2518 2667.28 82.7203 2666.52 82.4643C2665.75 82.1889 2664.55 82.1127 2662.91 82.2357L2661.45 82.3455L2662.8 100.225L2655.73 100.756ZM2660.94 75.5094L2666.2 75.1139C2669.41 74.8722 2671.45 74.5821 2672.3 74.2435C2673.16 73.8855 2673.82 73.2575 2674.3 72.3595C2674.79 71.4615 2674.97 70.3017 2674.87 68.8799C2674.76 67.5165 2674.41 66.4464 2673.8 65.6694C2673.19 64.8729 2672.41 64.354 2671.45 64.1127C2670.77 63.9483 2668.85 63.9854 2665.67 64.2242L2660.12 64.6416L2660.94 75.5094ZM2722.77 95.7142L2715.06 96.2942L2711.26 86.7965L2697.24 87.8511L2695.08 97.797L2687.54 98.3638L2697.99 54.5073L2705.5 53.9427L2722.77 95.7142ZM2708.44 79.7519L2702.43 64.2218L2698.86 80.4726L2708.44 79.7519ZM2728.79 95.2616L2717.19 53.0638L2724.46 52.5168L2731.93 81.5402L2736.15 51.638L2744.59 51.003L2753 80.4549L2756.16 50.133L2763.29 49.5969L2757.98 93.0667L2750.44 93.6335L2741.02 62.1419L2736.48 94.6837L2728.79 95.2616ZM2780.58 48.2962L2793.52 47.3229C2796.8 47.0768 2799.29 47.2616 2801 47.8772C2802.73 48.4719 2804.36 49.5831 2805.89 51.2111C2807.42 52.839 2808.69 55.0058 2809.7 57.7113C2810.71 60.4169 2811.37 63.8244 2811.67 67.9339C2811.95 71.6344 2811.78 74.8892 2811.15 77.6984C2810.51 80.488 2809.61 82.7297 2808.45 84.4234C2807.28 86.1171 2805.82 87.4419 2804.05 88.3975C2802.3 89.3323 2799.99 89.9073 2797.13 90.1226L2783.8 91.1245L2780.58 48.2962ZM2788.2 55.0097L2790.33 83.3768L2795.65 82.977C2797.93 82.8056 2799.56 82.4676 2800.54 81.963C2801.54 81.4569 2802.33 80.7512 2802.9 79.8459C2803.5 78.9196 2803.94 77.5055 2804.23 75.6036C2804.52 73.7017 2804.55 71.2218 2804.32 68.164C2804.08 64.9894 2803.67 62.5035 2803.08 60.7065C2802.51 58.9079 2801.72 57.5179 2800.71 56.5365C2799.72 55.5537 2798.54 54.9465 2797.19 54.715C2796.18 54.5365 2794.25 54.5542 2791.41 54.768L2788.2 55.0097ZM2819.27 88.4572L2816.05 45.629L2830.98 44.5063C2834.79 44.2192 2837.55 44.4037 2839.25 45.0597C2840.94 45.6962 2842.38 46.9293 2843.58 48.7588C2844.77 50.5689 2845.47 52.7984 2845.67 55.4471C2845.92 58.7971 2845.31 61.5553 2843.85 63.7219C2842.41 65.887 2840.23 67.3438 2837.31 68.0923C2838.91 69.0687 2840.25 70.172 2841.34 71.4022C2842.43 72.613 2843.96 74.8289 2845.93 78.0499L2850.82 86.0844L2842.38 86.7194L2836.54 77.7867C2834.43 74.5564 2833.02 72.5475 2832.29 71.7598C2831.57 70.9526 2830.82 70.4211 2830.06 70.1651C2829.29 69.8897 2828.09 69.8135 2826.46 69.9365L2825 70.0464L2826.34 87.9256L2819.27 88.4572ZM2824.48 63.2102L2829.74 62.8147C2832.95 62.573 2834.99 62.2829 2835.84 61.9443C2836.7 61.5863 2837.37 60.9583 2837.85 60.0603C2838.33 59.1623 2838.51 58.0025 2838.41 56.5807C2838.31 55.2174 2837.95 54.1472 2837.34 53.3702C2836.74 52.5737 2835.95 52.0549 2834.99 51.8135C2834.32 51.6491 2832.39 51.6863 2829.21 51.925L2823.66 52.3424L2824.48 63.2102ZM2886.32 83.415L2878.6 83.995L2874.81 74.4973L2860.78 75.5519L2858.62 85.4978L2851.08 86.0646L2861.54 42.2081L2869.04 41.6435L2886.32 83.415ZM2871.98 67.4527L2865.97 51.9226L2862.4 68.1734L2871.98 67.4527ZM2892.33 82.9624L2880.73 40.7647L2888 40.2176L2895.47 69.241L2899.69 39.3388L2908.13 38.7038L2916.55 68.1558L2919.7 37.8338L2926.83 37.2977L2921.52 80.7675L2913.98 81.3344L2904.56 49.8427L2900.02 82.3846L2892.33 82.9624ZM2944.12 35.997L2957.07 35.0237C2960.34 34.7777 2962.83 34.9624 2964.54 35.578C2966.27 36.1727 2967.9 37.284 2969.43 38.9119C2970.97 40.5398 2972.24 42.7066 2973.24 45.4121C2974.25 48.1177 2974.91 51.5253 2975.22 55.6347C2975.49 59.3352 2975.32 62.59 2974.69 65.3992C2974.05 68.1888 2973.16 70.4305 2971.99 72.1242C2970.83 73.818 2969.36 75.1427 2967.59 76.0984C2965.84 77.0331 2963.53 77.6081 2960.67 77.8234L2947.35 78.8253L2944.12 35.997ZM2951.74 42.7105L2953.87 71.0777L2959.19 70.6778C2961.47 70.5064 2963.1 70.1684 2964.08 69.6638C2965.08 69.1577 2965.87 68.452 2966.45 67.5467C2967.04 66.6204 2967.48 65.2064 2967.77 63.3044C2968.06 61.4025 2968.09 58.9226 2967.86 55.8648C2967.62 52.6902 2967.21 50.2044 2966.62 48.4073C2966.06 46.6087 2965.27 45.2188 2964.25 44.2373C2963.26 43.2545 2962.09 42.6473 2960.74 42.4158C2959.72 42.2373 2957.8 42.255 2954.95 42.4688L2951.74 42.7105ZM2982.81 76.1581L2979.59 33.3298L2994.52 32.2071C2998.34 31.92 3001.09 32.1045 3002.79 32.7605C3004.48 33.397 3005.92 34.6301 3007.12 36.4597C3008.31 38.2698 3009.01 40.4992 3009.21 43.148C3009.46 46.4979 3008.86 49.2561 3007.39 51.4227C3005.95 53.5878 3003.77 55.0446 3000.85 55.7931C3002.45 56.7695 3003.79 57.8729 3004.89 59.1031C3005.98 60.3138 3007.5 62.5297 3009.47 65.7507L3014.36 73.7852L3005.92 74.4202L3000.08 65.4875C2997.97 62.2572 2996.56 60.2483 2995.83 59.4606C2995.11 58.6534 2994.36 58.1219 2993.6 57.8659C2992.83 57.5905 2991.63 57.5143 2990 57.6373L2988.54 57.7472L2989.88 75.6264L2982.81 76.1581ZM2988.02 50.911L2993.28 50.5155C2996.5 50.2739 2998.53 49.9837 2999.39 49.6452C3000.24 49.2871 3000.91 48.6591 3001.39 47.7611C3001.87 46.8632 3002.06 45.7033 3001.95 44.2815C3001.85 42.9182 3001.49 41.848 3000.89 41.071C3000.28 40.2746 2999.49 39.7557 2998.54 39.5144C2997.86 39.3499 2995.93 39.3871 2992.76 39.6258L2987.21 40.0433L2988.02 50.911ZM3049.86 71.1158L3042.15 71.6958L3038.35 62.1981L3024.32 63.2527L3022.16 73.1986L3014.63 73.7655L3025.08 29.909L3032.59 29.3443L3049.86 71.1158ZM3035.53 55.1535L3029.51 39.6234L3025.94 55.8742L3035.53 55.1535ZM3055.88 70.6632L3044.27 28.4655L3051.55 27.9184L3059.02 56.9418L3063.23 27.0396L3071.67 26.4046L3080.09 55.8566L3083.24 25.5346L3090.37 24.9985L3085.06 68.4683L3077.52 69.0352L3068.11 37.5435L3063.56 70.0854L3055.88 70.6632ZM3107.67 23.6978L3120.61 22.7245C3123.88 22.4785 3126.37 22.6632 3128.08 23.2788C3129.81 23.8735 3131.44 24.9848 3132.98 26.6127C3134.51 28.2406 3135.78 30.4074 3136.78 33.113C3137.79 35.8185 3138.45 39.2261 3138.76 43.3356C3139.04 47.036 3138.86 50.2909 3138.23 53.1C3137.6 55.8896 3136.7 58.1313 3135.53 59.8251C3134.37 61.5188 3132.9 62.8435 3131.13 63.7992C3129.38 64.7339 3127.07 65.3089 3124.21 65.5243L3110.89 66.5261L3107.67 23.6978ZM3115.28 30.4113L3117.41 58.7785L3122.73 58.3786C3125.01 58.2072 3126.64 57.8692 3127.62 57.3646C3128.62 56.8585 3129.41 56.1528 3129.99 55.2475C3130.58 54.3213 3131.03 52.9072 3131.31 51.0052C3131.6 49.1033 3131.63 46.6234 3131.4 43.5657C3131.16 40.391 3130.75 37.9052 3130.16 36.1081C3129.6 34.3096 3128.81 32.9196 3127.79 31.9382C3126.8 30.9553 3125.63 30.3481 3124.28 30.1166C3123.27 29.9381 3121.34 29.9558 3118.5 30.1696L3115.28 30.4113ZM3146.35 63.8589L3143.13 21.0306L3158.06 19.9079C3161.88 19.6208 3164.63 19.8053 3166.33 20.4613C3168.02 21.0978 3169.47 22.3309 3170.66 24.1605C3171.86 25.9706 3172.55 28.2 3172.75 30.8488C3173 34.1987 3172.4 36.9569 3170.94 39.1235C3169.49 41.2886 3167.31 42.7454 3164.39 43.4939C3165.99 44.4704 3167.34 45.5737 3168.43 46.8039C3169.52 48.0146 3171.05 50.2305 3173.01 53.4515L3177.91 61.486L3169.46 62.121L3163.62 53.1883C3161.52 49.9581 3160.1 47.9491 3159.38 47.1614C3158.65 46.3543 3157.9 45.8227 3157.14 45.5667C3156.38 45.2913 3155.18 45.2151 3153.54 45.3381L3152.08 45.448L3153.42 63.3272L3146.35 63.8589ZM3151.57 38.6118L3156.82 38.2164C3160.04 37.9747 3162.07 37.6846 3162.93 37.346C3163.78 36.9879 3164.45 36.3599 3164.93 35.4619C3165.41 34.564 3165.6 33.4041 3165.49 31.9823C3165.39 30.619 3165.03 29.5488 3164.43 28.7718C3163.82 27.9754 3163.04 27.4565 3162.08 27.2152C3161.4 27.0507 3159.47 27.0879 3156.3 27.3266L3150.75 27.7441L3151.57 38.6118ZM3213.4 58.8166L3205.69 59.3966L3201.89 49.8989L3187.87 50.9535L3185.71 60.8994L3178.17 61.4663L3188.62 17.6098L3196.13 17.0451L3213.4 58.8166ZM3199.07 42.8544L3193.05 27.3243L3189.49 43.575L3199.07 42.8544ZM3219.42 58.364L3207.81 16.1663L3215.09 15.6192L3222.56 44.6426L3226.77 14.7404L3235.22 14.1055L3243.63 43.5574L3246.79 13.2354L3253.91 12.6993L3248.6 56.1691L3241.07 56.736L3231.65 25.2443L3227.1 57.7862L3219.42 58.364ZM3271.21 11.3987L3284.15 10.4254C3287.42 10.1793 3289.91 10.3641 3291.63 10.9797C3293.35 11.5743 3294.99 12.6856 3296.52 14.3135C3298.05 15.9415 3299.32 18.1082 3300.33 20.8138C3301.33 23.5194 3301.99 26.9269 3302.3 31.0364C3302.58 34.7369 3302.4 37.9917 3301.77 40.8008C3301.14 43.5905 3300.24 45.8322 3299.07 47.5259C3297.91 49.2196 3296.44 50.5443 3294.67 51.5C3292.92 52.4347 3290.61 53.0098 3287.75 53.2251L3274.43 54.2269L3271.21 11.3987ZM3278.82 18.1121L3280.96 46.4793L3286.27 46.0794C3288.55 45.9081 3290.18 45.5701 3291.16 45.0654C3292.16 44.5593 3292.95 43.8536 3293.53 42.9483C3294.13 42.0221 3294.57 40.608 3294.86 38.7061C3295.14 36.8041 3295.17 34.3243 3294.94 31.2665C3294.7 28.0919 3294.29 25.606 3293.71 23.8089C3293.14 22.0104 3292.35 20.6204 3291.34 19.639C3290.34 18.6561 3289.17 18.0489 3287.82 17.8174C3286.81 17.6389 3284.88 17.6566 3282.04 17.8705L3278.82 18.1121ZM3309.9 51.5597L3306.68 8.73142L3321.6 7.60872C3325.42 7.32164 3328.18 7.5061 3329.87 8.16212C3331.56 8.79866 3333.01 10.0317 3334.2 11.8613C3335.4 13.6714 3336.09 15.9008 3336.29 18.5496C3336.55 21.8995 3335.94 24.6578 3334.48 26.8243C3333.03 28.9895 3330.85 30.4463 3327.93 31.1948C3329.53 32.1712 3330.88 33.2745 3331.97 34.5047C3333.06 35.7154 3334.59 37.9313 3336.55 41.1523L3341.45 49.1869L3333 49.8218L3327.16 40.8891C3325.06 37.6589 3323.64 35.6499 3322.92 34.8622C3322.19 34.0551 3321.45 33.5235 3320.68 33.2676C3319.92 32.9921 3318.72 32.9159 3317.08 33.039L3315.62 33.1488L3316.97 51.028L3309.9 51.5597ZM3315.11 26.3126L3320.37 25.9172C3323.58 25.6755 3325.61 25.3854 3326.47 25.0468C3327.32 24.6887 3327.99 24.0607 3328.47 23.1628C3328.95 22.2648 3329.14 21.1049 3329.03 19.6832C3328.93 18.3198 3328.58 17.2497 3327.97 16.4727C3327.36 15.6762 3326.58 15.1573 3325.62 14.916C3324.94 14.7516 3323.02 14.7887 3319.84 15.0275L3314.29 15.4449L3315.11 26.3126ZM3376.94 46.5174L3369.23 47.0975L3365.43 37.5998L3351.41 38.6544L3349.25 48.6003L3341.71 49.1671L3352.16 5.31059L3359.67 4.74594L3376.94 46.5174ZM3362.61 30.5552L3356.59 15.0251L3353.03 31.2758L3362.61 30.5552ZM3382.96 46.0648L3371.36 3.86712L3378.63 3.32005L3386.1 32.3435L3390.32 2.44122L3398.76 1.80627L3407.17 31.2582L3410.33 0.93623L3417.46 0.400145L3412.15 43.87L3404.61 44.4368L3395.19 12.9451L3390.64 45.487L3382.96 46.0648Z" fill="url(#paint0_radial_745_1479)"/>
</g>
<defs>
<filter id="filter0_d_745_1479" x="0.367188" y="0.399902" width="3424.31" height="303.811" filterUnits="userSpaceOnUse" color-interpolation-filters="sRGB">
<feFlood flood-opacity="0" result="BackgroundImageFix"/>
<feColorMatrix in="SourceAlpha" type="matrix" values="0 0 0 0 0 0 0 0 0 0 0 0 0 0 0 0 0 0 127 0" result="hardAlpha"/>
<feOffset dx="4" dy="4"/>
<feComposite in2="hardAlpha" operator="out"/>
<feColorMatrix type="matrix" values="0 0 0 0 1 0 0 0 0 0.183333 0 0 0 0 0.918333 0 0 0 1 0"/>
<feBlend mode="normal" in2="BackgroundImageFix" result="effect1_dropShadow_745_1479"/>
<feBlend mode="normal" in="SourceGraphic" in2="effect1_dropShadow_745_1479" result="shape"/>
</filter>
<radialGradient id="paint0_radial_745_1479" cx="0" cy="0" r="1" gradientUnits="userSpaceOnUse" gradientTransform="translate(-3.99998 285.5) rotate(-4.42747) scale(3482.98 7658.78)">
<stop stop-color="#7A64FF"/>
<stop offset="0.123504" stop-color="#8AFFAB"/>
<stop offset="0.252504" stop-color="#FF6464"/>
<stop offset="0.407972" stop-color="#5076FF"/>
<stop offset="0.558649" stop-color="#FBFF48"/>
<stop offset="0.723014" stop-color="#25FF3B"/>
<stop offset="0.854185" stop-color="#E125FF"/>
<stop offset="1" stop-color="#FF2525"/>
</radialGradient>
</defs>
</svg>
