<svg width="585" height="200" viewBox="0 0 585 200" fill="none" xmlns="http://www.w3.org/2000/svg">
<g filter="url(#filter0_d_273_774)">
<path d="M19.9665 192.784L0.728693 153.474L7.77505 151.586L20.5045 178.718L19.0945 148.553L27.2728 146.362L41.0084 173.739L38.479 143.359L45.3839 141.509L48.2368 185.209L40.9357 187.165L25.8336 157.969L27.409 190.789L19.9665 192.784ZM60.0656 182.039L48.9495 140.553L55.7978 138.718L60.1729 155.047L73.6431 151.437L69.2679 135.109L76.1445 133.266L87.2606 174.752L80.384 176.595L75.5236 158.455L62.0534 162.065L66.9139 180.204L60.0656 182.039ZM125.011 164.637L117.54 166.639L112.044 158.012L98.4604 161.651L98.1838 171.825L90.8828 173.782L93.0105 128.747L100.283 126.798L125.011 164.637ZM107.964 151.613L99.1693 137.47L98.6816 154.1L107.964 151.613ZM132.793 162.552L123.557 128.084L113.455 130.791L111.574 123.773L138.6 116.532L140.48 123.55L130.406 126.249L139.641 160.717L132.793 162.552ZM172.213 151.989L152.975 112.68L160.022 110.792L172.751 137.923L171.341 107.759L179.519 105.567L193.255 132.945L190.726 102.564L197.63 100.714L200.483 144.414L193.182 146.371L178.08 117.175L179.656 149.995L172.213 151.989ZM212.086 141.305L200.97 99.8196L207.818 97.9846L218.934 139.47L212.086 141.305ZM225.726 137.651L214.701 96.5044L221.549 94.6694L230.701 128.826L247.793 124.246L249.666 131.236L225.726 137.651ZM254.76 129.871L243.735 88.7246L250.583 86.8896L259.735 121.046L276.828 116.466L278.701 123.456L254.76 129.871ZM304.084 116.654L299.406 99.1941L280.517 78.5049L288.554 76.3515L300.96 90.6188L304.429 72.0976L312.325 69.9821L306.269 97.4157L310.933 114.819L304.084 116.654ZM319.988 90.4337C318.664 85.4909 318.301 81.2307 318.899 77.6531C319.512 74.0517 320.787 71.1521 322.726 68.9543C324.664 66.7566 327.313 65.2078 330.671 64.308C335.538 63.0038 339.998 63.8005 344.05 66.6982C348.121 69.5907 351.076 74.4706 352.916 81.3377C354.777 88.2803 354.608 94.1389 352.409 98.9136C350.485 103.129 347.08 105.892 342.194 107.201C337.27 108.521 332.926 107.854 329.163 105.203C324.871 102.167 321.813 97.2442 319.988 90.4337ZM326.987 88.2551C328.266 93.0281 330.132 96.37 332.585 98.2806C335.033 100.172 337.597 100.759 340.276 100.042C342.974 99.3187 344.893 97.5406 346.035 94.7072C347.171 91.8549 347.082 87.9763 345.768 83.0712C344.479 78.2604 342.658 74.9367 340.306 73.1002C337.972 71.2586 335.41 70.7118 332.617 71.46C329.825 72.2081 327.863 73.9775 326.73 76.7681C325.597 79.5587 325.683 83.3877 326.987 88.2551ZM352.678 59.1693L359.527 57.3343L365.547 79.8034C366.483 83.2936 367.177 85.5442 367.629 86.5551C368.422 88.3042 369.518 89.5271 370.917 90.2237C372.336 90.9152 373.979 91.0107 375.847 90.5103C377.432 90.0856 378.631 89.3904 379.443 88.4244C380.251 87.4396 380.668 86.2766 380.692 84.9354C380.731 83.5703 380.197 80.8219 379.09 76.6904L372.94 53.7402L379.817 51.8976L385.655 73.6875C387.147 79.2529 387.924 83.3616 387.988 86.0137C388.065 88.6418 387.264 91.0099 385.584 93.118C383.919 95.2022 381.378 96.7018 377.964 97.6167C374.417 98.5671 371.474 98.6782 369.136 97.95C366.811 97.1979 364.888 95.7924 363.365 93.7334C361.857 91.6505 360.271 87.5057 358.608 81.2988L352.678 59.1693ZM400.248 46.423L412.785 43.0639C415.954 42.2146 418.437 41.9336 420.232 42.2208C422.042 42.4841 423.851 43.2733 425.659 44.5884C427.467 45.9035 429.117 47.7969 430.608 50.2686C432.1 52.7402 433.379 55.9664 434.445 59.9471C435.406 63.5316 435.837 66.7625 435.738 69.64C435.635 72.4986 435.168 74.8682 434.337 76.7488C433.506 78.6294 432.311 80.2035 430.749 81.471C429.202 82.7146 427.042 83.708 424.269 84.4511L411.365 87.9087L400.248 46.423ZM408.977 51.6061L416.34 79.084L421.49 77.704C423.698 77.1125 425.236 76.4779 426.106 75.7999C426.995 75.117 427.639 74.277 428.039 73.2801C428.453 72.2593 428.625 70.7877 428.555 68.8654C428.484 66.9431 428.052 64.501 427.259 61.539C426.435 58.4639 425.568 56.0978 424.659 54.4407C423.769 52.7785 422.735 51.5594 421.556 50.7833C420.396 50.0021 419.132 49.6231 417.763 49.6461C416.736 49.6586 414.844 50.0339 412.09 50.772L408.977 51.6061ZM445.719 78.7035L434.603 37.2177L449.064 33.343C452.761 32.3522 455.504 32.0218 457.29 32.3518C459.072 32.663 460.72 33.6065 462.234 35.1823C463.744 36.7394 464.842 38.8007 465.529 41.3665C466.399 44.6114 466.316 47.4341 465.281 49.8345C464.265 52.23 462.391 54.0665 459.66 55.3443C461.415 56.0065 462.942 56.8407 464.243 57.8468C465.539 58.8342 467.452 60.7279 469.981 63.5279L476.282 70.5143L468.103 72.7057L460.704 65.0129C458.037 62.2294 456.274 60.5179 455.415 59.8786C454.552 59.2204 453.721 58.8364 452.923 58.7266C452.12 58.598 450.926 58.746 449.342 59.1706L447.927 59.5497L452.567 76.8685L445.719 78.7035ZM446.152 52.9279L451.246 51.563C454.359 50.7289 456.305 50.0661 457.083 49.5745C457.856 49.064 458.395 48.323 458.701 47.3513C459.007 46.3797 458.975 45.2053 458.606 43.8281C458.252 42.5075 457.705 41.5218 456.965 40.871C456.219 40.2013 455.353 39.8368 454.367 39.7776C453.67 39.742 451.784 40.1361 448.708 40.9601L443.332 42.4008L446.152 52.9279ZM510.664 61.3014L503.193 63.3032L497.697 54.676L484.114 58.3156L483.837 68.4897L476.536 70.446L478.664 25.4116L485.937 23.4629L510.664 61.3014ZM493.617 48.2777L484.823 34.1343L484.335 50.7648L493.617 48.2777ZM516.494 59.7394L497.256 20.4299L504.302 18.5418L517.032 45.6736L515.622 15.5088L523.8 13.3174L537.536 40.6952L535.006 10.3147L541.911 8.46454L544.764 52.1644L537.463 54.1207L522.361 24.9253L523.936 57.7452L516.494 59.7394ZM567.678 34.5598L561.764 36.1446L561.25 34.341C560.598 31.9074 560.39 29.85 560.627 28.1688C560.864 26.4877 561.665 24.4939 563.028 22.1874C564.539 19.5989 565.4 17.8717 565.613 17.0058C565.826 16.14 565.798 15.2071 565.531 14.2073C565.091 12.5659 564.192 11.3611 562.833 10.5928C561.494 9.81937 560.013 9.65004 558.39 10.0848C554.9 11.02 553.374 13.9262 553.811 18.8034L547.597 19.4977C546.817 15.9055 547.255 12.6741 548.912 9.80361C550.584 6.90919 553.136 5.00197 556.569 4.08195C560.06 3.14676 563.271 3.50966 566.203 5.17064C569.135 6.83163 571.059 9.36947 571.974 12.7842C572.439 14.5198 572.475 16.2792 572.084 18.0625C571.687 19.8268 570.511 22.4168 568.554 25.8324C567.551 27.5975 566.994 28.95 566.882 29.89C566.788 30.8249 567.054 32.3815 567.678 34.5598ZM564.63 46.8414L562.499 38.8895L569.036 37.138L571.167 45.0899L564.63 46.8414Z" fill="url(#paint0_radial_273_774)"/>
</g>
<defs>
<filter id="filter0_d_273_774" x="0.539062" y="0.530884" width="583.646" height="199.136" filterUnits="userSpaceOnUse" color-interpolation-filters="sRGB">
<feFlood flood-opacity="0" result="BackgroundImageFix"/>
<feColorMatrix in="SourceAlpha" type="matrix" values="0 0 0 0 0 0 0 0 0 0 0 0 0 0 0 0 0 0 127 0" result="hardAlpha"/>
<feOffset dx="4" dy="4"/>
<feComposite in2="hardAlpha" operator="out"/>
<feColorMatrix type="matrix" values="0 0 0 0 1 0 0 0 0 0.183333 0 0 0 0 0.918333 0 0 0 1 0"/>
<feBlend mode="normal" in2="BackgroundImageFix" result="effect1_dropShadow_273_774"/>
<feBlend mode="normal" in="SourceGraphic" in2="effect1_dropShadow_273_774" result="shape"/>
</filter>
<radialGradient id="paint0_radial_273_774" cx="0" cy="0" r="1" gradientUnits="userSpaceOnUse" gradientTransform="translate(291.36 97.8053) rotate(-15.2708) scale(304.007 3880.75)">
<stop stop-color="#FF6464"/>
<stop offset="0.359375" stop-color="#5076FF"/>
<stop offset="0.692708" stop-color="#FBFF48"/>
<stop offset="1" stop-color="#25FF3B"/>
</radialGradient>
</defs>
</svg>
