<svg width="173" height="58" viewBox="0 0 173 58" fill="none" xmlns="http://www.w3.org/2000/svg">
<rect width="167" height="50.5" fill="white"/>
<rect x="7.5" y="8.5" width="164" height="47.5" stroke="black" stroke-width="3"/>
<path d="M69.3282 39L66.5254 24.6836H68.9571L70.7149 34.5176L72.8633 24.6836H75.6856L77.7461 34.6836L79.5528 24.6836H81.9356L79.084 39H76.5645L74.2207 28.2969L71.8965 39H69.3282ZM85.8028 39V27.1055H82.3164V24.6836H91.6426V27.1055H88.166V39H85.8028ZM93.1953 39V24.6836H101.242V27.1055H95.5586V30.4941H100.471V32.916H95.5586V39H93.1953ZM108.02 35.3086H105.979L105.969 34.6836C105.969 33.8438 106.079 33.1634 106.301 32.6426C106.522 32.1217 106.952 31.5488 107.59 30.9238C108.3 30.2207 108.726 29.7389 108.869 29.4785C109.012 29.2181 109.084 28.9154 109.084 28.5703C109.084 28.0039 108.898 27.5384 108.527 27.1738C108.163 26.8092 107.701 26.627 107.141 26.627C105.936 26.627 105.194 27.431 104.914 29.0391L102.854 28.7266C102.912 27.5026 103.332 26.5 104.113 25.7188C104.901 24.931 105.887 24.5371 107.072 24.5371C108.277 24.5371 109.279 24.931 110.08 25.7188C110.881 26.5065 111.281 27.4896 111.281 28.668C111.281 29.2669 111.141 29.8366 110.861 30.377C110.581 30.9108 109.979 31.6432 109.055 32.5742C108.579 33.056 108.283 33.4434 108.166 33.7363C108.055 34.0293 108.007 34.5534 108.02 35.3086ZM105.979 39V36.2559H108.234V39H105.979Z" fill="black"/>
</svg>
